<?xml version="1.0" encoding="UTF-8"?>
<!-- Generated by jsxcad -->
<!DOCTYPE svg PUBLIC "-//W3C//DTD SVG 1.1 Tiny//EN" "http://www.w3.org/Graphics/SVG/1.1/DTD/svg11-tiny.dtd">
<svg viewBox="-250 -250 500 500" width="500" height="500" xmlns="http://www.w3.org/2000/svg"><path d="M135.63487102179465,6.821011309710935L-53.19212709015521,36.91739139908394L-55.060255113747274,54.00143553947244z" style="fill:rgb(84,220,202)"/><path d="M133.87834408207135,-10.144915520516365L146.46464578762894,38.53224214954519L143.9712941920536,16.24768229840698z" style="fill:rgb(247,158,158)"/><path d="M-53.19212709015521,36.91739139908394L135.63487102179465,6.821011309710935L133.87834408207135,-10.144915520516365z" style="fill:rgb(84,220,202)"/><path d="M136.01945917783868,20.281388342209393L-55.060255113747274,54.00143553947244L-58.869499442064146,67.8677836680117z" style="fill:rgb(85,234,182)"/><path d="M146.46464578762894,38.53224214954519L133.87834408207135,-10.144915520516365L147.27673033217533,56.725222804497776z" style="fill:rgb(247,158,158)"/><path d="M-55.060255113747274,54.00143553947244L136.01945917783868,20.281388342209393L135.63487102179465,6.821011309710935z" style="fill:rgb(85,234,182)"/><path d="M147.27673033217533,56.725222804497776L133.87834408207135,-10.144915520516365L135.63487102179465,6.821011309710935z" style="fill:rgb(247,158,158)"/><path d="M-64.62197544164326,77.84110453253444L136.01945917783868,20.281388342209393L-58.869499442064146,67.8677836680117z" style="fill:rgb(89,244,159)"/><path d="M-55.060255113747274,54.00143553947244L144.36379264124912,74.2621221160061L135.63487102179465,6.821011309710935zM144.36379264124912,74.2621221160061L-55.060255113747274,54.00143553947244L-58.43224589593862,121.06848072434155z" style="fill:rgb(83,212,212)"/><path d="M136.01945917783868,20.281388342209393L-64.62197544164326,77.84110453253444L134.9237422802314,29.547069522000708z" style="fill:rgb(89,244,159)"/><path d="M-72.25333175632183,83.27683850999824L134.9237422802314,29.547069522000708L-64.62197544164326,77.84110453253444z" style="fill:rgb(93,250,135)"/><path d="M147.27673033217533,56.725222804497776L135.63487102179465,6.821011309710935L144.36379264124912,74.2621221160061z" style="fill:rgb(247,158,158)"/><path d="M-58.869499442064146,67.8677836680117L143.2667489498596,76.83403179105262L136.01945917783868,20.281388342209393zM143.2667489498596,76.83403179105262L-58.869499442064146,67.8677836680117L-61.8525794442407,124.0631013009325z" style="fill:rgb(83,212,212)"/><path d="M136.01945917783868,20.281388342209393L144.36379264124912,74.2621221160061L135.63487102179465,6.821011309710935zM147.27673033217533,56.725222804497776L144.36379264124912,74.2621221160061L146.23052953829014,69.88571250287691z" style="fill:rgb(247,158,158)"/><path d="M140.92256597294542,77.14968794042535L-64.62197544164326,77.84110453253444L-67.35221807684059,125.11645134081533zM-64.62197544164326,77.84110453253444L140.92256597294542,77.14968794042535L134.9237422802314,29.547069522000708z" style="fill:rgb(83,212,212)"/><path d="M134.9237422802314,29.547069522000708L143.2667489498596,76.83403179105262L136.01945917783868,20.281388342209393z" style="fill:rgb(247,158,158)"/><path d="M134.9237422802314,29.547069522000708L-72.25333175632183,83.27683850999824L132.27274337619133,33.9621457512103z" style="fill:rgb(93,250,135)"/><path d="M144.36379264124912,74.2621221160061L136.01945917783868,20.281388342209393L143.2667489498596,76.83403179105262z" style="fill:rgb(247,158,158)"/><path d="M143.1760936287952,77.04657099727551L-74.06741707185401,126.1539267196983L-62.13504754931152,124.31040660280466z" style="fill:rgb(155,4,143)"/><path d="M137.54283936023816,76.79613253091736L-72.25333175632183,83.27683850999824L-74.98586827683015,125.80008731018854z" style="fill:rgb(83,212,212)"/><path d="M132.27274337619133,33.9621457512103L140.92256597294542,77.14968794042535L134.9237422802314,29.547069522000708z" style="fill:rgb(247,158,158)"/><path d="M-72.25333175632183,83.27683850999824L137.54283936023816,76.79613253091736L132.27274337619133,33.9621457512103z" style="fill:rgb(83,212,212)"/><path d="M143.2667489498596,76.83403179105262L134.9237422802314,29.547069522000708L140.92256597294542,77.14968794042535zM143.2667489498596,76.83403179105262L140.92256597294542,77.14968794042535L143.1760936287952,77.04657099727551z" style="fill:rgb(247,158,158)"/><path d="M-74.06741707185401,126.1539267196983L143.1760936287952,77.04657099727551L138.01683579665283,77.28264429811101z" style="fill:rgb(155,4,143)"/><path d="M132.67241490366376,71.79699672339348L-81.61288490481927,83.61037751737322L-84.41079931497902,122.16911587298898z" style="fill:rgb(83,212,212)"/><path d="M140.92256597294542,77.14968794042535L132.27274337619133,33.9621457512103L137.54283936023816,76.79613253091736zM128.04226423762782,32.95728652228399L137.54283936023816,76.79613253091736L132.27274337619133,33.9621457512103z" style="fill:rgb(247,158,158)"/><path d="M-81.61288490481927,83.61037751737322L132.67241490366376,71.79699672339348L128.04226423762782,32.95728652228399z" style="fill:rgb(83,212,212)"/><path d="M-74.06741707185401,126.1539267196983L130.74346669720117,69.81707613180018L-88.13726078895907,120.7334965862807z" style="fill:rgb(148,8,167)"/><path d="M140.92256597294542,77.14968794042535L137.54283936023816,76.79613253091736L138.01683579665283,77.28264429811101z" style="fill:rgb(247,158,158)"/><path d="M130.74346669720117,69.81707613180018L-74.06741707185401,126.1539267196983L138.01683579665283,77.28264429811101z" style="fill:rgb(148,8,167)"/><path d="M126.45547245910069,62.57767814440449L-92.44492748635633,78.42298608187608L-95.43486726543317,114.63217834019058z" style="fill:rgb(83,212,212)"/><path d="M137.54283936023816,76.79613253091736L128.04226423762782,32.95728652228399L132.67241490366376,71.79699672339348z" style="fill:rgb(247,158,158)"/><path d="M-92.44492748635633,78.42298608187608L126.45547245910069,62.57767814440449L122.27852430593704,26.121565942201972z" style="fill:rgb(83,212,212)"/><path d="M122.27852430593704,26.121565942201972L132.67241490366376,71.79699672339348L128.04226423762782,32.95728652228399z" style="fill:rgb(247,158,158)"/><path d="M-107.6981837302973,102.80747062010974L115.1176155897195,13.28764090090922L-104.3759223686266,67.51982731970966z" style="fill:rgb(83,212,212)"/><path d="M-88.13726078895907,120.7334965862807L121.47200557416396,54.16409420607398L-103.90111219017167,107.55380737209519zM121.47200557416396,54.16409420607398L-88.13726078895907,120.7334965862807L130.74346669720117,69.81707613180018z" style="fill:rgb(140,16,189)"/><path d="M132.67241490366376,71.79699672339348L122.27852430593704,26.121565942201972L126.45547245910069,62.57767814440449zM115.1176155897195,13.28764090090922L126.45547245910069,62.57767814440449L122.27852430593704,26.121565942201972zM132.67241490366376,71.79699672339348L126.45547245910069,62.57767814440449L130.74346669720117,69.81707613180018z" style="fill:rgb(247,158,158)"/><path d="M115.1176155897195,13.28764090090922L-107.6981837302973,102.80747062010974L118.99266766425612,48.78066191278478zM110.47844058446942,30.293494753742237L-116.91334554738086,51.00936758973895L-120.71638018810052,86.53476859413256z" style="fill:rgb(83,212,212)"/><path d="M-103.90111219017167,107.55380737209519L110.47844058446942,30.293494753742237L-120.71638018810052,86.53476859413256z" style="fill:rgb(131,29,208)"/><path d="M126.45547245910069,62.57767814440449L115.1176155897195,13.28764090090922L118.99266766425612,48.78066191278478z" style="fill:rgb(247,158,158)"/><path d="M-116.91334554738086,51.00936758973895L110.47844058446942,30.293494753742237L106.79979423102785,-5.381695756784469z" style="fill:rgb(83,212,212)"/><path d="M110.47844058446942,30.293494753742237L-103.90111219017167,107.55380737209519L121.47200557416396,54.16409420607398z" style="fill:rgb(131,29,208)"/><path d="M106.79979423102785,-5.381695756784469L118.99266766425612,48.78066191278478L115.1176155897195,13.28764090090922zM126.45547245910069,62.57767814440449L118.99266766425612,48.78066191278478L121.47200557416396,54.16409420607398zM118.99266766425612,48.78066191278478L106.79979423102785,-5.381695756784469L110.47844058446942,30.293494753742237zM56.82723701845225,-127.25984369662L110.47844058446942,30.293494753742237L106.79979423102785,-5.381695756784469z" style="fill:rgb(247,158,158)"/><path d="M59.021280727956274,-91.97672063770014L-120.71638018810052,86.53476859413256L110.47844058446942,30.293494753742237zM-120.71638018810052,86.53476859413256L59.021280727956274,-91.97672063770014L-195.21010042760557,-21.784841944799727z" style="fill:rgb(127,37,217)"/><path d="M59.021280727956274,-91.97672063770014L-188.38706132522992,-57.412813559994824L-195.21010042760557,-21.784841944799727z" style="fill:rgb(83,212,212)"/><path d="M110.47844058446942,30.293494753742237L56.82723701845225,-127.25984369662L59.021280727956274,-91.97672063770014z" style="fill:rgb(247,158,158)"/><path d="M-188.38706132522992,-57.412813559994824L59.021280727956274,-91.97672063770014L56.82723701845225,-127.25984369662z" style="fill:rgb(83,212,212)"/></svg>
