solid JSxCAD
facet normal -1 0 0
outer loop
vertex 0 -15 0
vertex 0 0 3
vertex 0 0 0
endloop
endfacet
facet normal -1 0 0
outer loop
vertex 0 0 3
vertex 0 -15 0
vertex 0 -15 3
endloop
endfacet
facet normal -0.0980187172009508 0 0.9951845713626594
outer loop
vertex 0 -15 3
vertex 1.9509 0 3.19215
vertex 0 0 3
endloop
endfacet
facet normal -0.0980187172009508 0 0.9951845713626594
outer loop
vertex 1.9509 0 3.19215
vertex 0 -15 3
vertex 1.9509 -15 3.19215
endloop
endfacet
facet normal 0 0 1
outer loop
vertex 1.9509 0 3.19215
vertex 8.44244 -15 3.19215
vertex 8.44244 0 3.19215
endloop
endfacet
facet normal 0 0 1
outer loop
vertex 8.44244 -15 3.19215
vertex 1.9509 0 3.19215
vertex 1.9509 -15 3.19215
endloop
endfacet
facet normal 0.6343883203189489 0 -0.7730145270581289
outer loop
vertex 9.19239 -15 3.80761
vertex 8.44244 0 3.19215
vertex 9.19239 0 3.80761
endloop
endfacet
facet normal 0.6343922448268332 3.283612145788794e-7 -0.7730113063231764
outer loop
vertex 9.19239 -15 3.80761
vertex 7.22241 0 2.1909
vertex 8.44244 0 3.19215
endloop
endfacet
facet normal 0.6343983024570895 0.0000016597423340141103 -0.7730063349266993
outer loop
vertex 9.13584 -15 3.7612
vertex 7.22241 0 2.1909
vertex 9.19239 -15 3.80761
endloop
endfacet
facet normal 0.6343875062148847 -6.449968625566488e-7 -0.7730151951663327
outer loop
vertex 8.44244 -15 3.19215
vertex 7.22241 0 2.1909
vertex 9.13584 -15 3.7612
endloop
endfacet
facet normal 0.634392244826867 0 -0.7730113063232182
outer loop
vertex 7.22241 0 2.1909
vertex 8.44244 -15 3.19215
vertex 7.22241 -15 2.1909
endloop
endfacet
facet normal 0.47139679378127913 0 -0.8819212339051204
outer loop
vertex 7.22241 -15 2.1909
vertex 4.97488 0 0.98957
vertex 7.22241 0 2.1909
endloop
endfacet
facet normal 0.4713967937812792 0 -0.8819212339051204
outer loop
vertex 4.97488 0 0.98957
vertex 7.22241 -15 2.1909
vertex 4.97488 -15 0.98957
endloop
endfacet
facet normal 0.29028662095189955 0 -0.9569397461158817
outer loop
vertex 4.97488 -15 0.98957
vertex 2.53617 0 0.24979
vertex 4.97488 0 0.98957
endloop
endfacet
facet normal 0.29028662095189955 0 -0.9569397461158817
outer loop
vertex 2.53617 0 0.24979
vertex 4.97488 -15 0.98957
vertex 2.53617 -15 0.24979
endloop
endfacet
facet normal 0.09801677406730483 0 -0.9951847627458124
outer loop
vertex 2.53617 -15 0.24979
vertex 0 0 0
vertex 2.53617 0 0.24979
endloop
endfacet
facet normal 0.09801677406730483 0 -0.9951847627458124
outer loop
vertex 0 0 0
vertex 2.53617 -15 0.24979
vertex 0 -15 0
endloop
endfacet
facet normal -0.2902813399870942 0 0.9569413480748427
outer loop
vertex 1.9509 -15 3.19215
vertex 3.82683 0 3.7612
vertex 1.9509 0 3.19215
endloop
endfacet
facet normal -0.2902813399870937 0 0.9569413480748427
outer loop
vertex 3.82683 0 3.7612
vertex 1.9509 -15 3.19215
vertex 3.82683 -15 3.7612
endloop
endfacet
facet normal 0 0 1
outer loop
vertex 3.82683 0 3.7612
vertex 9.13584 -15 3.7612
vertex 9.13584 0 3.7612
endloop
endfacet
facet normal 0 0 1
outer loop
vertex 9.13584 -15 3.7612
vertex 3.82683 0 3.7612
vertex 3.82683 -15 3.7612
endloop
endfacet
facet normal 0 0 -1
outer loop
vertex 1.9509 -15 3.19215
vertex 8.44244 0 3.19215
vertex 8.44244 -15 3.19215
endloop
endfacet
facet normal 0 0 -1
outer loop
vertex 8.44244 0 3.19215
vertex 1.9509 -15 3.19215
vertex 1.9509 0 3.19215
endloop
endfacet
facet normal -0.47139663064874004 0 0.8819213211012733
outer loop
vertex 3.82683 -15 3.7612
vertex 5.5557 0 4.6853
vertex 3.82683 0 3.7612
endloop
endfacet
facet normal -0.47139663064873977 0 0.8819213211012736
outer loop
vertex 5.5557 0 4.6853
vertex 3.82683 -15 3.7612
vertex 5.5557 -15 4.6853
endloop
endfacet
facet normal 0 0 1
outer loop
vertex 5.5557 0 4.6853
vertex 9.91269 -15 4.6853
vertex 9.91269 0 4.6853
endloop
endfacet
facet normal 0 0 1
outer loop
vertex 9.91269 -15 4.6853
vertex 5.5557 0 4.6853
vertex 5.5557 -15 4.6853
endloop
endfacet
facet normal 0.773012532421219 0 -0.6343907508150901
outer loop
vertex 10.8091 -15 5.77759
vertex 9.19239 0 3.80761
vertex 10.8091 0 5.77759
endloop
endfacet
facet normal 0.7730136588654921 3.016736479960202e-7 -0.6343893782270427
outer loop
vertex 9.91269 -15 4.6853
vertex 9.19239 0 3.80761
vertex 10.8091 -15 5.77759
endloop
endfacet
facet normal 0.7730111305563058 0 -0.6343924589999964
outer loop
vertex 9.19239 0 3.80761
vertex 9.91269 -15 4.6853
vertex 9.19239 -15 3.80761
endloop
endfacet
facet normal 0 0 -1
outer loop
vertex 3.82683 -15 3.7612
vertex 9.13584 0 3.7612
vertex 9.13584 -15 3.7612
endloop
endfacet
facet normal 0 0 -1
outer loop
vertex 9.13584 0 3.7612
vertex 3.82683 -15 3.7612
vertex 3.82683 0 3.7612
endloop
endfacet
facet normal -0.6343926686613752 0 0.7730109584919858
outer loop
vertex 5.5557 -15 4.6853
vertex 7.07107 0 5.92893
vertex 5.5557 0 4.6853
endloop
endfacet
facet normal -0.6343926686613758 0 0.7730109584919853
outer loop
vertex 7.07107 0 5.92893
vertex 5.5557 -15 4.6853
vertex 7.07107 -15 5.92893
endloop
endfacet
facet normal 0 0 1
outer loop
vertex 7.07107 0 5.92893
vertex 10.89 -15 5.92893
vertex 10.89 0 5.92893
endloop
endfacet
facet normal 0 0 1
outer loop
vertex 10.89 -15 5.92893
vertex 7.07107 0 5.92893
vertex 7.07107 -15 5.92893
endloop
endfacet
facet normal 0.8819224708908553 0 -0.4713944795367978
outer loop
vertex 12.01043 -15 8.02512
vertex 10.89 0 5.92893
vertex 12.01043 0 8.02512
endloop
endfacet
facet normal 0.8819041002974819 -0.000006174921497909441 -0.4714288470600405
outer loop
vertex 12.01043 -15 8.02512
vertex 10.8091 0 5.77759
vertex 10.89 0 5.92893
endloop
endfacet
facet normal 0.8819242678393386 0.0000010934694780779616 -0.471391117645264
outer loop
vertex 11.69998 -15 7.4443
vertex 10.8091 0 5.77759
vertex 12.01043 -15 8.02512
endloop
endfacet
facet normal 0.881921782144045 4.29108777744482e-7 -0.4713957680969224
outer loop
vertex 10.89 -15 5.92893
vertex 10.8091 0 5.77759
vertex 11.69998 -15 7.4443
endloop
endfacet
facet normal 0.8819041003142978 0 -0.4714288470690237
outer loop
vertex 10.8091 0 5.77759
vertex 10.89 -15 5.92893
vertex 10.8091 -15 5.77759
endloop
endfacet
facet normal 0 0 -1
outer loop
vertex 5.5557 -15 4.6853
vertex 9.91269 0 4.6853
vertex 9.91269 -15 4.6853
endloop
endfacet
facet normal 0 0 -1
outer loop
vertex 9.91269 0 4.6853
vertex 5.5557 -15 4.6853
vertex 5.5557 0 4.6853
endloop
endfacet
facet normal -0.7730109584919851 0 0.634392668661376
outer loop
vertex 7.07107 -15 5.92893
vertex 8.3147 0 7.4443
vertex 7.07107 0 5.92893
endloop
endfacet
facet normal -0.773010958491986 0 0.6343926686613751
outer loop
vertex 8.3147 0 7.4443
vertex 7.07107 -15 5.92893
vertex 8.3147 -15 7.4443
endloop
endfacet
facet normal 0 0 1
outer loop
vertex 8.3147 0 7.4443
vertex 11.69998 -15 7.4443
vertex 11.69998 0 7.4443
endloop
endfacet
facet normal 0 0 1
outer loop
vertex 11.69998 -15 7.4443
vertex 8.3147 0 7.4443
vertex 8.3147 -15 7.4443
endloop
endfacet
facet normal 0 0 -1
outer loop
vertex 7.07107 -15 5.92893
vertex 10.89 0 5.92893
vertex 10.89 -15 5.92893
endloop
endfacet
facet normal 0 0 -1
outer loop
vertex 10.89 0 5.92893
vertex 7.07107 -15 5.92893
vertex 7.07107 0 5.92893
endloop
endfacet
facet normal -0.8819213211012737 0 0.47139663064873943
outer loop
vertex 8.3147 -15 7.4443
vertex 9.2388 0 9.17317
vertex 8.3147 0 7.4443
endloop
endfacet
facet normal -0.8819213211012737 0 0.47139663064873943
outer loop
vertex 9.2388 0 9.17317
vertex 8.3147 -15 7.4443
vertex 9.2388 -15 9.17317
endloop
endfacet
facet normal 0 0 1
outer loop
vertex 9.2388 0 9.17317
vertex 12.35869 -15 9.17317
vertex 12.35869 0 9.17317
endloop
endfacet
facet normal 0 0 1
outer loop
vertex 12.35869 -15 9.17317
vertex 9.2388 0 9.17317
vertex 9.2388 -15 9.17317
endloop
endfacet
facet normal 0.9569398065517 0 -0.2902864217230888
outer loop
vertex 12.75021 -15 10.46383
vertex 12.35869 0 9.17317
vertex 12.75021 0 10.46383
endloop
endfacet
facet normal 0.9569396781727255 -3.976516871591912e-8 -0.29028684492873397
outer loop
vertex 12.75021 -15 10.46383
vertex 12.01043 0 8.02512
vertex 12.35869 0 9.17317
endloop
endfacet
facet normal 0.9569398065516993 3.5371366640977397e-8 -0.2902864217230886
outer loop
vertex 12.35869 -15 9.17317
vertex 12.01043 0 8.02512
vertex 12.75021 -15 10.46383
endloop
endfacet
facet normal 0.9569396781727264 0 -0.29028684492873374
outer loop
vertex 12.01043 0 8.02512
vertex 12.35869 -15 9.17317
vertex 12.01043 -15 8.02512
endloop
endfacet
facet normal 0 0 -1
outer loop
vertex 8.3147 -15 7.4443
vertex 11.69998 0 7.4443
vertex 11.69998 -15 7.4443
endloop
endfacet
facet normal 0 0 -1
outer loop
vertex 11.69998 0 7.4443
vertex 8.3147 -15 7.4443
vertex 8.3147 0 7.4443
endloop
endfacet
facet normal -0.9569413480748425 0 0.2902813399870941
outer loop
vertex 9.2388 -15 9.17317
vertex 9.80785 0 11.0491
vertex 9.2388 0 9.17317
endloop
endfacet
facet normal -0.9569413480748422 0 0.29028133998709515
outer loop
vertex 9.80785 0 11.0491
vertex 9.2388 -15 9.17317
vertex 9.80785 -15 11.0491
endloop
endfacet
facet normal 0 0 1
outer loop
vertex 9.80785 0 11.0491
vertex 12.80785 -15 11.0491
vertex 12.80785 0 11.0491
endloop
endfacet
facet normal 0 0 1
outer loop
vertex 12.80785 -15 11.0491
vertex 9.80785 0 11.0491
vertex 9.80785 -15 11.0491
endloop
endfacet
facet normal 0 1 0
outer loop
vertex 13 0 13
vertex 12.75021 0 10.46383
vertex 12.80785 0 11.0491
endloop
endfacet
facet normal 0.9951847627458124 0 -0.09801677406730513
outer loop
vertex 13 -15 13
vertex 12.75021 0 10.46383
vertex 13 0 13
endloop
endfacet
facet normal 0.9951845713626046 -3.3172819041504436e-7 -0.09801871720094528
outer loop
vertex 12.80785 -15 11.0491
vertex 12.75021 0 10.46383
vertex 13 -15 13
endloop
endfacet
facet normal 0.9951854006627858 0 -0.09801029694705708
outer loop
vertex 12.75021 0 10.46383
vertex 12.80785 -15 11.0491
vertex 12.75021 -15 10.46383
endloop
endfacet
facet normal 0 0 -1
outer loop
vertex 9.2388 -15 9.17317
vertex 12.35869 0 9.17317
vertex 12.35869 -15 9.17317
endloop
endfacet
facet normal 0 0 -1
outer loop
vertex 12.35869 0 9.17317
vertex 9.2388 -15 9.17317
vertex 9.2388 0 9.17317
endloop
endfacet
facet normal -0.9951845713626593 0 0.09801871720095066
outer loop
vertex 9.80785 -15 11.0491
vertex 10 0 13
vertex 9.80785 0 11.0491
endloop
endfacet
facet normal -0.9951845713626593 0 0.09801871720095066
outer loop
vertex 10 0 13
vertex 9.80785 -15 11.0491
vertex 10 -15 13
endloop
endfacet
facet normal 0 0 1
outer loop
vertex 10 0 13
vertex 13 -15 13
vertex 13 0 13
endloop
endfacet
facet normal 0 0 1
outer loop
vertex 13 -15 13
vertex 10 0 13
vertex 10 -15 13
endloop
endfacet
facet normal 0 0 -1
outer loop
vertex 9.80785 -15 11.0491
vertex 12.80785 0 11.0491
vertex 12.80785 -15 11.0491
endloop
endfacet
facet normal 0 0 -1
outer loop
vertex 12.80785 0 11.0491
vertex 9.80785 -15 11.0491
vertex 9.80785 0 11.0491
endloop
endfacet
facet normal 0 -1 0
outer loop
vertex 8.44244 -15 3.19215
vertex 4.97488 -15 0.98957
vertex 7.22241 -15 2.1909
endloop
endfacet
facet normal 0 -0.9999999999999999 1.012810320690574e-14
outer loop
vertex 8.44244 -15 3.19215
vertex 2.53617 -15 0.24979
vertex 4.97488 -15 0.98957
endloop
endfacet
facet normal 0 -0.9999999999999999 -1.4880127405609264e-15
outer loop
vertex 1.9509 -15 3.19215
vertex 2.53617 -15 0.24979
vertex 8.44244 -15 3.19215
endloop
endfacet
facet normal 0 -1 6.070203081690338e-16
outer loop
vertex 0 -15 3
vertex 2.53617 -15 0.24979
vertex 1.9509 -15 3.19215
endloop
endfacet
facet normal 0 -1 0
outer loop
vertex 2.53617 -15 0.24979
vertex 0 -15 3
vertex 0 -15 0
endloop
endfacet
facet normal 0 -1 0
outer loop
vertex 9.91269 -15 4.6853
vertex 9.13584 -15 3.7612
vertex 9.19239 -15 3.80761
endloop
endfacet
facet normal 0 -1 -1.7647560132414557e-15
outer loop
vertex 5.5557 -15 4.6853
vertex 9.13584 -15 3.7612
vertex 9.91269 -15 4.6853
endloop
endfacet
facet normal 0 -0.9999999999999999 0
outer loop
vertex 9.13584 -15 3.7612
vertex 5.5557 -15 4.6853
vertex 3.82683 -15 3.7612
endloop
endfacet
facet normal 0 -1 1.3850865853883888e-15
outer loop
vertex 8.3147 -15 7.4443
vertex 10.89 -15 5.92893
vertex 11.69998 -15 7.4443
endloop
endfacet
facet normal 0 -1 -1.2278061959196963e-15
outer loop
vertex 10.89 -15 5.92893
vertex 8.3147 -15 7.4443
vertex 7.07107 -15 5.92893
endloop
endfacet
facet normal 0 -1 0
outer loop
vertex 12.80785 -15 11.0491
vertex 12.35869 -15 9.17317
vertex 12.75021 -15 10.46383
endloop
endfacet
facet normal 0 -1 -6.312804278056755e-16
outer loop
vertex 9.80785 -15 11.0491
vertex 12.35869 -15 9.17317
vertex 12.80785 -15 11.0491
endloop
endfacet
facet normal 0 -1 1.214043625523354e-15
outer loop
vertex 12.35869 -15 9.17317
vertex 9.80785 -15 11.0491
vertex 9.2388 -15 9.17317
endloop
endfacet
facet normal 0 -1 -6.070213198695477e-16
outer loop
vertex 10 -15 13
vertex 12.80785 -15 11.0491
vertex 13 -15 13
endloop
endfacet
facet normal 0 -1 6.07021319869547e-16
outer loop
vertex 12.80785 -15 11.0491
vertex 10 -15 13
vertex 9.80785 -15 11.0491
endloop
endfacet
facet normal 0 -1 0
outer loop
vertex 12.35869 -15 9.17317
vertex 11.69998 -15 7.4443
vertex 12.01043 -15 8.02512
endloop
endfacet
facet normal 0 -1 0
outer loop
vertex 9.2388 -15 9.17317
vertex 11.69998 -15 7.4443
vertex 12.35869 -15 9.17317
endloop
endfacet
facet normal 0 -1 -1.2140407658759785e-15
outer loop
vertex 11.69998 -15 7.4443
vertex 9.2388 -15 9.17317
vertex 8.3147 -15 7.4443
endloop
endfacet
facet normal 0 -1 0
outer loop
vertex 10.89 -15 5.92893
vertex 9.91269 -15 4.6853
vertex 10.8091 -15 5.77759
endloop
endfacet
facet normal 0 -1 7.480443038165816e-16
outer loop
vertex 7.07107 -15 5.92893
vertex 9.91269 -15 4.6853
vertex 10.89 -15 5.92893
endloop
endfacet
facet normal 0 -1 1.3113313701313318e-15
outer loop
vertex 9.91269 -15 4.6853
vertex 7.07107 -15 5.92893
vertex 5.5557 -15 4.6853
endloop
endfacet
facet normal 0 -1 -2.351939969770345e-15
outer loop
vertex 3.82683 -15 3.7612
vertex 8.44244 -15 3.19215
vertex 9.13584 -15 3.7612
endloop
endfacet
facet normal 0 -0.9999999999999999 3.846998653296587e-15
outer loop
vertex 8.44244 -15 3.19215
vertex 3.82683 -15 3.7612
vertex 1.9509 -15 3.19215
endloop
endfacet
facet normal 0 1 0
outer loop
vertex 12.80785 0 11.0491
vertex 10 0 13
vertex 13 0 13
endloop
endfacet
facet normal 0 1 0
outer loop
vertex 10 0 13
vertex 12.80785 0 11.0491
vertex 9.80785 0 11.0491
endloop
endfacet
facet normal 0 1 0
outer loop
vertex 12.35869 0 9.17317
vertex 12.80785 0 11.0491
vertex 12.75021 0 10.46383
endloop
endfacet
facet normal 0 1 0
outer loop
vertex 12.35869 0 9.17317
vertex 9.80785 0 11.0491
vertex 12.80785 0 11.0491
endloop
endfacet
facet normal 0 1 0
outer loop
vertex 9.80785 0 11.0491
vertex 12.35869 0 9.17317
vertex 9.2388 0 9.17317
endloop
endfacet
facet normal 0 1 0
outer loop
vertex 11.69998 0 7.4443
vertex 12.35869 0 9.17317
vertex 12.01043 0 8.02512
endloop
endfacet
facet normal 0 1 0
outer loop
vertex 11.69998 0 7.4443
vertex 9.2388 0 9.17317
vertex 12.35869 0 9.17317
endloop
endfacet
facet normal 0 1 0
outer loop
vertex 9.2388 0 9.17317
vertex 11.69998 0 7.4443
vertex 8.3147 0 7.4443
endloop
endfacet
facet normal 0 1 0
outer loop
vertex 10.89 0 5.92893
vertex 8.3147 0 7.4443
vertex 11.69998 0 7.4443
endloop
endfacet
facet normal 0 1 0
outer loop
vertex 8.3147 0 7.4443
vertex 10.89 0 5.92893
vertex 7.07107 0 5.92893
endloop
endfacet
facet normal 0 1 0
outer loop
vertex 9.91269 0 4.6853
vertex 10.89 0 5.92893
vertex 10.8091 0 5.77759
endloop
endfacet
facet normal 0 1 0
outer loop
vertex 9.91269 0 4.6853
vertex 7.07107 0 5.92893
vertex 10.89 0 5.92893
endloop
endfacet
facet normal 0 1 0
outer loop
vertex 7.07107 0 5.92893
vertex 9.91269 0 4.6853
vertex 5.5557 0 4.6853
endloop
endfacet
facet normal 0 1 0
outer loop
vertex 9.13584 0 3.7612
vertex 9.91269 0 4.6853
vertex 9.19239 0 3.80761
endloop
endfacet
facet normal 0 1 0
outer loop
vertex 9.13584 0 3.7612
vertex 5.5557 0 4.6853
vertex 9.91269 0 4.6853
endloop
endfacet
facet normal 0 0.9999999999999999 0
outer loop
vertex 5.5557 0 4.6853
vertex 9.13584 0 3.7612
vertex 3.82683 0 3.7612
endloop
endfacet
facet normal 0 1 0
outer loop
vertex 8.44244 0 3.19215
vertex 3.82683 0 3.7612
vertex 9.13584 0 3.7612
endloop
endfacet
facet normal 0 0.9999999999999999 0
outer loop
vertex 3.82683 0 3.7612
vertex 8.44244 0 3.19215
vertex 1.9509 0 3.19215
endloop
endfacet
facet normal 0 1 0
outer loop
vertex 4.97488 0 0.98957
vertex 8.44244 0 3.19215
vertex 7.22241 0 2.1909
endloop
endfacet
facet normal 0 0.9999999999999999 0
outer loop
vertex 2.53617 0 0.24979
vertex 8.44244 0 3.19215
vertex 4.97488 0 0.98957
endloop
endfacet
facet normal 0 0.9999999999999999 0
outer loop
vertex 2.53617 0 0.24979
vertex 1.9509 0 3.19215
vertex 8.44244 0 3.19215
endloop
endfacet
facet normal 0 1 0
outer loop
vertex 2.53617 0 0.24979
vertex 0 0 3
vertex 1.9509 0 3.19215
endloop
endfacet
facet normal 0 1 0
outer loop
vertex 0 0 3
vertex 2.53617 0 0.24979
vertex 0 0 0
endloop
endfacet
facet normal -1 0 0
outer loop
vertex 10 0 13
vertex 10 -15 23
vertex 10 0 23
endloop
endfacet
facet normal -1 0 0
outer loop
vertex 10 -15 23
vertex 10 0 13
vertex 10 -15 13
endloop
endfacet
facet normal 0 0 1
outer loop
vertex 10 0 23
vertex 13 -15 23
vertex 13 0 23
endloop
endfacet
facet normal 0 0 1
outer loop
vertex 13 -15 23
vertex 10 0 23
vertex 10 -15 23
endloop
endfacet
facet normal 1 0 0
outer loop
vertex 13 -15 13
vertex 13 0 23
vertex 13 -15 23
endloop
endfacet
facet normal 1 0 0
outer loop
vertex 13 0 23
vertex 13 -15 13
vertex 13 0 13
endloop
endfacet
facet normal 0 0 -1
outer loop
vertex 10 -15 13
vertex 13 0 13
vertex 13 -15 13
endloop
endfacet
facet normal 0 0 -1
outer loop
vertex 13 0 13
vertex 10 -15 13
vertex 10 0 13
endloop
endfacet
facet normal 0 -1 0
outer loop
vertex 10 -15 23
vertex 13 -15 13
vertex 13 -15 23
endloop
endfacet
facet normal 0 -1 0
outer loop
vertex 13 -15 13
vertex 10 -15 23
vertex 10 -15 13
endloop
endfacet
facet normal 0 1 0
outer loop
vertex 10 0 13
vertex 13 0 23
vertex 13 0 13
endloop
endfacet
facet normal 0 1 0
outer loop
vertex 13 0 23
vertex 10 0 13
vertex 10 0 23
endloop
endfacet
endsolid JSxCAD
