solid JSxCAD
facet normal -1 0 0
outer loop
vertex 0 -15 -3
vertex 0 0 0
vertex 0 0 -3
endloop
endfacet
facet normal -1 0 0
outer loop
vertex 0 0 0
vertex 0 -15 -3
vertex 0 -15 0
endloop
endfacet
facet normal -0.09801871720095083 0 0.9951845713626594
outer loop
vertex 0 -15 0
vertex 1.9509 0 0.19215
vertex 0 0 0
endloop
endfacet
facet normal -0.09801871720095083 0 0.9951845713626594
outer loop
vertex 1.9509 0 0.19215
vertex 0 -15 0
vertex 1.9509 -15 0.19215
endloop
endfacet
facet normal 0 0 1
outer loop
vertex 1.9509 0 0.19215
vertex 8.44244 -15 0.19215
vertex 8.44244 0 0.19215
endloop
endfacet
facet normal 0 0 1
outer loop
vertex 8.44244 -15 0.19215
vertex 1.9509 0 0.19215
vertex 1.9509 -15 0.19215
endloop
endfacet
facet normal 0.6343883203189491 0 -0.7730145270581287
outer loop
vertex 9.19239 -15 0.80761
vertex 8.44244 0 0.19215
vertex 9.19239 0 0.80761
endloop
endfacet
facet normal 0.6343922448268329 3.283612145788795e-7 -0.7730113063231766
outer loop
vertex 9.19239 -15 0.80761
vertex 7.22241 0 -0.8091
vertex 8.44244 0 0.19215
endloop
endfacet
facet normal 0.6343983024570885 0.0000016597423340141124 -0.7730063349267003
outer loop
vertex 9.13584 -15 0.7612
vertex 7.22241 0 -0.8091
vertex 9.19239 -15 0.80761
endloop
endfacet
facet normal 0.6343875062148852 -6.449968625566486e-7 -0.7730151951663323
outer loop
vertex 8.44244 -15 0.19215
vertex 7.22241 0 -0.8091
vertex 9.13584 -15 0.7612
endloop
endfacet
facet normal 0.634392244826867 0 -0.7730113063232182
outer loop
vertex 7.22241 0 -0.8091
vertex 8.44244 -15 0.19215
vertex 7.22241 -15 -0.8091
endloop
endfacet
facet normal 0.471396793781279 0 -0.8819212339051204
outer loop
vertex 7.22241 -15 -0.8091
vertex 4.97488 0 -2.01043
vertex 7.22241 0 -0.8091
endloop
endfacet
facet normal 0.47139679378127913 0 -0.8819212339051204
outer loop
vertex 4.97488 0 -2.01043
vertex 7.22241 -15 -0.8091
vertex 4.97488 -15 -2.01043
endloop
endfacet
facet normal 0.2902866209518999 0 -0.9569397461158816
outer loop
vertex 4.97488 -15 -2.01043
vertex 2.53617 0 -2.75021
vertex 4.97488 0 -2.01043
endloop
endfacet
facet normal 0.2902866209518992 0 -0.956939746115882
outer loop
vertex 2.53617 0 -2.75021
vertex 4.97488 -15 -2.01043
vertex 2.53617 -15 -2.75021
endloop
endfacet
facet normal 0.09801677406730507 0 -0.9951847627458124
outer loop
vertex 2.53617 -15 -2.75021
vertex 0 0 -3
vertex 2.53617 0 -2.75021
endloop
endfacet
facet normal 0.09801677406730469 0 -0.9951847627458124
outer loop
vertex 0 0 -3
vertex 2.53617 -15 -2.75021
vertex 0 -15 -3
endloop
endfacet
facet normal -0.29028133998709393 0 0.9569413480748427
outer loop
vertex 1.9509 -15 0.19215
vertex 3.82683 0 0.7612
vertex 1.9509 0 0.19215
endloop
endfacet
facet normal -0.290281339987094 0 0.9569413480748427
outer loop
vertex 3.82683 0 0.7612
vertex 1.9509 -15 0.19215
vertex 3.82683 -15 0.7612
endloop
endfacet
facet normal 0 0 1
outer loop
vertex 3.82683 0 0.7612
vertex 9.13584 -15 0.7612
vertex 9.13584 0 0.7612
endloop
endfacet
facet normal 0 0 1
outer loop
vertex 9.13584 -15 0.7612
vertex 3.82683 0 0.7612
vertex 3.82683 -15 0.7612
endloop
endfacet
facet normal 0 0 -1
outer loop
vertex 1.9509 -15 0.19215
vertex 8.44244 0 0.19215
vertex 8.44244 -15 0.19215
endloop
endfacet
facet normal 0 0 -1
outer loop
vertex 8.44244 0 0.19215
vertex 1.9509 -15 0.19215
vertex 1.9509 0 0.19215
endloop
endfacet
facet normal -0.47139663064873993 0 0.8819213211012735
outer loop
vertex 3.82683 -15 0.7612
vertex 5.5557 0 1.6853
vertex 3.82683 0 0.7612
endloop
endfacet
facet normal -0.47139663064873993 0 0.8819213211012735
outer loop
vertex 5.5557 0 1.6853
vertex 3.82683 -15 0.7612
vertex 5.5557 -15 1.6853
endloop
endfacet
facet normal 0 0 1
outer loop
vertex 5.5557 0 1.6853
vertex 9.91269 -15 1.6853
vertex 9.91269 0 1.6853
endloop
endfacet
facet normal 0 0 1
outer loop
vertex 9.91269 -15 1.6853
vertex 5.5557 0 1.6853
vertex 5.5557 -15 1.6853
endloop
endfacet
facet normal 0 -0.9999999999999999 0
outer loop
vertex 10.8091 0 2.77759
vertex 9.19239 0 0.80761
vertex 9.91269 0 1.6853
endloop
endfacet
facet normal 0.7730125324212194 0 -0.6343907508150899
outer loop
vertex 10.8091 -15 2.77759
vertex 9.19239 0 0.80761
vertex 10.8091 0 2.77759
endloop
endfacet
facet normal 0.7730136588654918 3.0167364799602035e-7 -0.6343893782270429
outer loop
vertex 9.91269 -15 1.6853
vertex 9.19239 0 0.80761
vertex 10.8091 -15 2.77759
endloop
endfacet
facet normal 0.7730111305563055 0 -0.6343924589999964
outer loop
vertex 9.19239 0 0.80761
vertex 9.91269 -15 1.6853
vertex 9.19239 -15 0.80761
endloop
endfacet
facet normal 0 0 -1
outer loop
vertex 3.82683 -15 0.7612
vertex 9.13584 0 0.7612
vertex 9.13584 -15 0.7612
endloop
endfacet
facet normal 0 0 -1
outer loop
vertex 9.13584 0 0.7612
vertex 3.82683 -15 0.7612
vertex 3.82683 0 0.7612
endloop
endfacet
facet normal -0.6343926686613752 0 0.7730109584919858
outer loop
vertex 5.5557 -15 1.6853
vertex 7.07107 0 2.92893
vertex 5.5557 0 1.6853
endloop
endfacet
facet normal -0.6343926686613752 0 0.7730109584919858
outer loop
vertex 7.07107 0 2.92893
vertex 5.5557 -15 1.6853
vertex 7.07107 -15 2.92893
endloop
endfacet
facet normal 0 0 1
outer loop
vertex 7.07107 0 2.92893
vertex 10.89 -15 2.92893
vertex 10.89 0 2.92893
endloop
endfacet
facet normal 0 0 1
outer loop
vertex 10.89 -15 2.92893
vertex 7.07107 0 2.92893
vertex 7.07107 -15 2.92893
endloop
endfacet
facet normal 0.8819242678398663 0 -0.4713911176455445
outer loop
vertex 12.01043 -15 5.02512
vertex 11.69998 0 4.4443
vertex 12.01043 0 5.02512
endloop
endfacet
facet normal 0.8819217821441024 -2.3151729550924966e-7 -0.4713957680969537
outer loop
vertex 12.01043 -15 5.02512
vertex 10.89 0 2.92893
vertex 11.69998 0 4.4443
endloop
endfacet
facet normal 0.8819041002974843 -0.00000617492149963461 -0.47142884706003596
outer loop
vertex 12.01043 -15 5.02512
vertex 10.8091 0 2.77759
vertex 10.89 0 2.92893
endloop
endfacet
facet normal 0.8819242678393386 0.0000010934694780779616 -0.471391117645264
outer loop
vertex 11.69998 -15 4.4443
vertex 10.8091 0 2.77759
vertex 12.01043 -15 5.02512
endloop
endfacet
facet normal 0.881921782144045 4.2910877746879856e-7 -0.4713957680969222
outer loop
vertex 10.89 -15 2.92893
vertex 10.8091 0 2.77759
vertex 11.69998 -15 4.4443
endloop
endfacet
facet normal 0.8819041003142967 0 -0.47142884706902605
outer loop
vertex 10.8091 0 2.77759
vertex 10.89 -15 2.92893
vertex 10.8091 -15 2.77759
endloop
endfacet
facet normal 0 0 -1
outer loop
vertex 5.5557 -15 1.6853
vertex 9.91269 0 1.6853
vertex 9.91269 -15 1.6853
endloop
endfacet
facet normal 0 0 -1
outer loop
vertex 9.91269 0 1.6853
vertex 5.5557 -15 1.6853
vertex 5.5557 0 1.6853
endloop
endfacet
facet normal -0.7730109584919854 0 0.6343926686613754
outer loop
vertex 7.07107 -15 2.92893
vertex 8.3147 0 4.4443
vertex 7.07107 0 2.92893
endloop
endfacet
facet normal -0.773010958491986 0 0.6343926686613751
outer loop
vertex 8.3147 0 4.4443
vertex 7.07107 -15 2.92893
vertex 8.3147 -15 4.4443
endloop
endfacet
facet normal 0 0 1
outer loop
vertex 8.3147 0 4.4443
vertex 11.69998 -15 4.4443
vertex 11.69998 0 4.4443
endloop
endfacet
facet normal 0 0 1
outer loop
vertex 11.69998 -15 4.4443
vertex 8.3147 0 4.4443
vertex 8.3147 -15 4.4443
endloop
endfacet
facet normal 0 0 -1
outer loop
vertex 7.07107 -15 2.92893
vertex 10.89 0 2.92893
vertex 10.89 -15 2.92893
endloop
endfacet
facet normal 0 0 -1
outer loop
vertex 10.89 0 2.92893
vertex 7.07107 -15 2.92893
vertex 7.07107 0 2.92893
endloop
endfacet
facet normal -0.8819213211012737 0 0.47139663064873943
outer loop
vertex 8.3147 -15 4.4443
vertex 9.2388 0 6.17317
vertex 8.3147 0 4.4443
endloop
endfacet
facet normal -0.8819213211012735 0 0.4713966306487398
outer loop
vertex 9.2388 0 6.17317
vertex 8.3147 -15 4.4443
vertex 9.2388 -15 6.17317
endloop
endfacet
facet normal 0 0 1
outer loop
vertex 9.2388 0 6.17317
vertex 12.35869 -15 6.17317
vertex 12.35869 0 6.17317
endloop
endfacet
facet normal 0 0 1
outer loop
vertex 12.35869 -15 6.17317
vertex 9.2388 0 6.17317
vertex 9.2388 -15 6.17317
endloop
endfacet
facet normal 0.9569398065517 0 -0.2902864217230888
outer loop
vertex 12.75021 -15 7.46383
vertex 12.35869 0 6.17317
vertex 12.75021 0 7.46383
endloop
endfacet
facet normal 0.9569396781727255 -3.976516911076054e-8 -0.29028684492873397
outer loop
vertex 12.75021 -15 7.46383
vertex 12.01043 0 5.02512
vertex 12.35869 0 6.17317
endloop
endfacet
facet normal 0.9569398065516993 3.537136699219131e-8 -0.2902864217230886
outer loop
vertex 12.35869 -15 6.17317
vertex 12.01043 0 5.02512
vertex 12.75021 -15 7.46383
endloop
endfacet
facet normal 0.9569396781727264 0 -0.2902868449287342
outer loop
vertex 12.01043 0 5.02512
vertex 12.35869 -15 6.17317
vertex 12.01043 -15 5.02512
endloop
endfacet
facet normal 0 0 -1
outer loop
vertex 8.3147 -15 4.4443
vertex 11.69998 0 4.4443
vertex 11.69998 -15 4.4443
endloop
endfacet
facet normal 0 0 -1
outer loop
vertex 11.69998 0 4.4443
vertex 8.3147 -15 4.4443
vertex 8.3147 0 4.4443
endloop
endfacet
facet normal -0.9569413480748424 0 0.2902813399870946
outer loop
vertex 9.2388 -15 6.17317
vertex 9.80785 0 8.0491
vertex 9.2388 0 6.17317
endloop
endfacet
facet normal -0.9569413480748425 0 0.2902813399870941
outer loop
vertex 9.80785 0 8.0491
vertex 9.2388 -15 6.17317
vertex 9.80785 -15 8.0491
endloop
endfacet
facet normal 0 0 1
outer loop
vertex 9.80785 0 8.0491
vertex 12.80785 -15 8.0491
vertex 12.80785 0 8.0491
endloop
endfacet
facet normal 0 0 1
outer loop
vertex 12.80785 -15 8.0491
vertex 9.80785 0 8.0491
vertex 9.80785 -15 8.0491
endloop
endfacet
facet normal 0.9951847627458124 0 -0.09801677406730513
outer loop
vertex 13 -15 10
vertex 12.75021 0 7.46383
vertex 13 0 10
endloop
endfacet
facet normal 0.9951845713626046 -3.3172819041504436e-7 -0.09801871720094528
outer loop
vertex 12.80785 -15 8.0491
vertex 12.75021 0 7.46383
vertex 13 -15 10
endloop
endfacet
facet normal 0.9951854006627858 0 -0.09801029694705708
outer loop
vertex 12.75021 0 7.46383
vertex 12.80785 -15 8.0491
vertex 12.75021 -15 7.46383
endloop
endfacet
facet normal 0 0 -1
outer loop
vertex 9.2388 -15 6.17317
vertex 12.35869 0 6.17317
vertex 12.35869 -15 6.17317
endloop
endfacet
facet normal 0 0 -1
outer loop
vertex 12.35869 0 6.17317
vertex 9.2388 -15 6.17317
vertex 9.2388 0 6.17317
endloop
endfacet
facet normal -0.9951845713626593 0 0.09801871720095076
outer loop
vertex 9.80785 -15 8.0491
vertex 10 0 10
vertex 9.80785 0 8.0491
endloop
endfacet
facet normal -0.9951845713626593 0 0.09801871720095066
outer loop
vertex 10 0 10
vertex 9.80785 -15 8.0491
vertex 10 -15 10
endloop
endfacet
facet normal 0 0 1
outer loop
vertex 10 0 10
vertex 13 -15 10
vertex 13 0 10
endloop
endfacet
facet normal 0 0 1
outer loop
vertex 13 -15 10
vertex 10 0 10
vertex 10 -15 10
endloop
endfacet
facet normal 0 0 -1
outer loop
vertex 9.80785 -15 8.0491
vertex 12.80785 0 8.0491
vertex 12.80785 -15 8.0491
endloop
endfacet
facet normal 0 0 -1
outer loop
vertex 12.80785 0 8.0491
vertex 9.80785 -15 8.0491
vertex 9.80785 0 8.0491
endloop
endfacet
facet normal 0 -1 0
outer loop
vertex 8.44244 -15 0.19215
vertex 4.97488 -15 -2.01043
vertex 7.22241 -15 -0.8091
endloop
endfacet
facet normal 0 -1 1.0128103206905733e-14
outer loop
vertex 8.44244 -15 0.19215
vertex 2.53617 -15 -2.75021
vertex 4.97488 -15 -2.01043
endloop
endfacet
facet normal 0 -0.9999999999999999 -1.4880127405609264e-15
outer loop
vertex 1.9509 -15 0.19215
vertex 2.53617 -15 -2.75021
vertex 8.44244 -15 0.19215
endloop
endfacet
facet normal 0 -1 6.070203081690339e-16
outer loop
vertex 0 -15 0
vertex 2.53617 -15 -2.75021
vertex 1.9509 -15 0.19215
endloop
endfacet
facet normal 0 -1 0
outer loop
vertex 2.53617 -15 -2.75021
vertex 0 -15 0
vertex 0 -15 -3
endloop
endfacet
facet normal 0 -1 0
outer loop
vertex 9.91269 -15 1.6853
vertex 9.13584 -15 0.7612
vertex 9.19239 -15 0.80761
endloop
endfacet
facet normal 0 -1 -1.764756013241455e-15
outer loop
vertex 5.5557 -15 1.6853
vertex 9.13584 -15 0.7612
vertex 9.91269 -15 1.6853
endloop
endfacet
facet normal 0 -1 0
outer loop
vertex 9.13584 -15 0.7612
vertex 5.5557 -15 1.6853
vertex 3.82683 -15 0.7612
endloop
endfacet
facet normal 0 -1 1.3850865853883898e-15
outer loop
vertex 8.3147 -15 4.4443
vertex 10.89 -15 2.92893
vertex 11.69998 -15 4.4443
endloop
endfacet
facet normal 0 -0.9999999999999999 -1.2278061959196955e-15
outer loop
vertex 10.89 -15 2.92893
vertex 8.3147 -15 4.4443
vertex 7.07107 -15 2.92893
endloop
endfacet
facet normal 0 -1 0
outer loop
vertex 12.80785 -15 8.0491
vertex 12.35869 -15 6.17317
vertex 12.75021 -15 7.46383
endloop
endfacet
facet normal 0 -1 -6.312804278056755e-16
outer loop
vertex 9.80785 -15 8.0491
vertex 12.35869 -15 6.17317
vertex 12.80785 -15 8.0491
endloop
endfacet
facet normal 0 -1 1.214043625523354e-15
outer loop
vertex 12.35869 -15 6.17317
vertex 9.80785 -15 8.0491
vertex 9.2388 -15 6.17317
endloop
endfacet
facet normal 0 -1 -6.070213198695477e-16
outer loop
vertex 10 -15 10
vertex 12.80785 -15 8.0491
vertex 13 -15 10
endloop
endfacet
facet normal 0 -1 6.07021319869547e-16
outer loop
vertex 12.80785 -15 8.0491
vertex 10 -15 10
vertex 9.80785 -15 8.0491
endloop
endfacet
facet normal 0 -1 0
outer loop
vertex 12.35869 -15 6.17317
vertex 11.69998 -15 4.4443
vertex 12.01043 -15 5.02512
endloop
endfacet
facet normal 0 -1 0
outer loop
vertex 9.2388 -15 6.17317
vertex 11.69998 -15 4.4443
vertex 12.35869 -15 6.17317
endloop
endfacet
facet normal 0 -1 -1.2140407658759777e-15
outer loop
vertex 11.69998 -15 4.4443
vertex 9.2388 -15 6.17317
vertex 8.3147 -15 4.4443
endloop
endfacet
facet normal 0 -1 0
outer loop
vertex 10.89 -15 2.92893
vertex 9.91269 -15 1.6853
vertex 10.8091 -15 2.77759
endloop
endfacet
facet normal 0 -1 7.480443038165822e-16
outer loop
vertex 7.07107 -15 2.92893
vertex 9.91269 -15 1.6853
vertex 10.89 -15 2.92893
endloop
endfacet
facet normal 0 -1 1.3113313701313322e-15
outer loop
vertex 9.91269 -15 1.6853
vertex 7.07107 -15 2.92893
vertex 5.5557 -15 1.6853
endloop
endfacet
facet normal 0 -1 -2.3519399697703457e-15
outer loop
vertex 3.82683 -15 0.7612
vertex 8.44244 -15 0.19215
vertex 9.13584 -15 0.7612
endloop
endfacet
facet normal 0 -1 3.846998653296589e-15
outer loop
vertex 8.44244 -15 0.19215
vertex 3.82683 -15 0.7612
vertex 1.9509 -15 0.19215
endloop
endfacet
facet normal 0 1 0
outer loop
vertex 12.80785 0 8.0491
vertex 10 0 10
vertex 13 0 10
endloop
endfacet
facet normal 0 1 0
outer loop
vertex 10 0 10
vertex 12.80785 0 8.0491
vertex 9.80785 0 8.0491
endloop
endfacet
facet normal 0 1 0
outer loop
vertex 12.35869 0 6.17317
vertex 12.80785 0 8.0491
vertex 12.75021 0 7.46383
endloop
endfacet
facet normal 0 1 0
outer loop
vertex 12.35869 0 6.17317
vertex 9.80785 0 8.0491
vertex 12.80785 0 8.0491
endloop
endfacet
facet normal 0 1 0
outer loop
vertex 9.80785 0 8.0491
vertex 12.35869 0 6.17317
vertex 9.2388 0 6.17317
endloop
endfacet
facet normal 0 1 0
outer loop
vertex 11.69998 0 4.4443
vertex 12.35869 0 6.17317
vertex 12.01043 0 5.02512
endloop
endfacet
facet normal 0 1 0
outer loop
vertex 11.69998 0 4.4443
vertex 9.2388 0 6.17317
vertex 12.35869 0 6.17317
endloop
endfacet
facet normal 0 1 0
outer loop
vertex 9.2388 0 6.17317
vertex 11.69998 0 4.4443
vertex 8.3147 0 4.4443
endloop
endfacet
facet normal 0 1 0
outer loop
vertex 10.89 0 2.92893
vertex 8.3147 0 4.4443
vertex 11.69998 0 4.4443
endloop
endfacet
facet normal 0 0.9999999999999999 0
outer loop
vertex 8.3147 0 4.4443
vertex 10.89 0 2.92893
vertex 7.07107 0 2.92893
endloop
endfacet
facet normal 0 0.9999999999999999 0
outer loop
vertex 9.91269 0 1.6853
vertex 10.89 0 2.92893
vertex 10.8091 0 2.77759
endloop
endfacet
facet normal 0 1 0
outer loop
vertex 9.91269 0 1.6853
vertex 7.07107 0 2.92893
vertex 10.89 0 2.92893
endloop
endfacet
facet normal 0 1 0
outer loop
vertex 7.07107 0 2.92893
vertex 9.91269 0 1.6853
vertex 5.5557 0 1.6853
endloop
endfacet
facet normal 0 1 0
outer loop
vertex 9.13584 0 0.7612
vertex 9.91269 0 1.6853
vertex 9.19239 0 0.80761
endloop
endfacet
facet normal 0 1 0
outer loop
vertex 9.13584 0 0.7612
vertex 5.5557 0 1.6853
vertex 9.91269 0 1.6853
endloop
endfacet
facet normal 0 1 0
outer loop
vertex 5.5557 0 1.6853
vertex 9.13584 0 0.7612
vertex 3.82683 0 0.7612
endloop
endfacet
facet normal 0 1 0
outer loop
vertex 8.44244 0 0.19215
vertex 3.82683 0 0.7612
vertex 9.13584 0 0.7612
endloop
endfacet
facet normal 0 1 0
outer loop
vertex 3.82683 0 0.7612
vertex 8.44244 0 0.19215
vertex 1.9509 0 0.19215
endloop
endfacet
facet normal 0 1 0
outer loop
vertex 4.97488 0 -2.01043
vertex 8.44244 0 0.19215
vertex 7.22241 0 -0.8091
endloop
endfacet
facet normal 0 1 0
outer loop
vertex 2.53617 0 -2.75021
vertex 8.44244 0 0.19215
vertex 4.97488 0 -2.01043
endloop
endfacet
facet normal 0 0.9999999999999999 0
outer loop
vertex 2.53617 0 -2.75021
vertex 1.9509 0 0.19215
vertex 8.44244 0 0.19215
endloop
endfacet
facet normal 0 1 0
outer loop
vertex 2.53617 0 -2.75021
vertex 0 0 0
vertex 1.9509 0 0.19215
endloop
endfacet
facet normal 0 1 0
outer loop
vertex 0 0 0
vertex 2.53617 0 -2.75021
vertex 0 0 -3
endloop
endfacet
facet normal -1 0 0
outer loop
vertex 10 0 30
vertex 10 -15 10
vertex 10 -15 30
endloop
endfacet
facet normal -1 0 0
outer loop
vertex 10 -15 10
vertex 10 0 30
vertex 10 0 10
endloop
endfacet
facet normal 0 0 1
outer loop
vertex 10 0 30
vertex 13 -15 30
vertex 13 0 30
endloop
endfacet
facet normal 0 0 1
outer loop
vertex 13 -15 30
vertex 10 0 30
vertex 10 -15 30
endloop
endfacet
facet normal 1 0 0
outer loop
vertex 13 -15 10
vertex 13 0 30
vertex 13 -15 30
endloop
endfacet
facet normal 1 0 0
outer loop
vertex 13 0 30
vertex 13 -15 10
vertex 13 0 10
endloop
endfacet
facet normal 0 0 -1
outer loop
vertex 10 -15 10
vertex 13 0 10
vertex 13 -15 10
endloop
endfacet
facet normal 0 0 -1
outer loop
vertex 13 0 10
vertex 10 -15 10
vertex 10 0 10
endloop
endfacet
facet normal 0 -1 0
outer loop
vertex 10 -15 30
vertex 13 -15 10
vertex 13 -15 30
endloop
endfacet
facet normal 0 -1 0
outer loop
vertex 13 -15 10
vertex 10 -15 30
vertex 10 -15 10
endloop
endfacet
facet normal 0 1 0
outer loop
vertex 10 0 10
vertex 13 0 30
vertex 13 0 10
endloop
endfacet
facet normal 0 1 0
outer loop
vertex 13 0 30
vertex 10 0 10
vertex 10 0 30
endloop
endfacet
endsolid JSxCAD
