solid JSxCAD
facet normal -1 0 0
outer loop
vertex 0 -10 0
vertex 0 0 3
vertex 0 0 0
endloop
endfacet
facet normal -1 0 0
outer loop
vertex 0 0 3
vertex 0 -10 0
vertex 0 -10 3
endloop
endfacet
facet normal -0.09801871720095057 0 0.9951845713626594
outer loop
vertex 0 -10 3
vertex 1.9509 0 3.19215
vertex 0 0 3
endloop
endfacet
facet normal -0.09801871720095091 0 0.9951845713626593
outer loop
vertex 1.9509 0 3.19215
vertex 0 -10 3
vertex 1.9509 -10 3.19215
endloop
endfacet
facet normal 0 0 1
outer loop
vertex 1.9509 0 3.19215
vertex 8.44244 -10 3.19215
vertex 8.44244 0 3.19215
endloop
endfacet
facet normal 0 0 1
outer loop
vertex 8.44244 -10 3.19215
vertex 1.9509 0 3.19215
vertex 1.9509 -10 3.19215
endloop
endfacet
facet normal 0 1 0
outer loop
vertex 9.13584 0 3.7612
vertex 7.22241 0 2.1909
vertex 8.44244 0 3.19215
endloop
endfacet
facet normal 0.6343983024579525 0 -0.7730063349277729
outer loop
vertex 9.19239 -10 3.80761
vertex 9.13584 0 3.7612
vertex 9.19239 0 3.80761
endloop
endfacet
facet normal 0.6343905276291383 -7.357928201807357e-8 -0.7730127155839146
outer loop
vertex 9.19239 -10 3.80761
vertex 7.22241 0 2.1909
vertex 9.13584 0 3.7612
endloop
endfacet
facet normal 0.6343983024559923 0.000002489613501016898 -0.7730063349253726
outer loop
vertex 9.13584 -10 3.7612
vertex 7.22241 0 2.1909
vertex 9.19239 -10 3.80761
endloop
endfacet
facet normal 0.6343875062147201 -9.674952938347213e-7 -0.7730151951661316
outer loop
vertex 8.44244 -10 3.19215
vertex 7.22241 0 2.1909
vertex 9.13584 -10 3.7612
endloop
endfacet
facet normal 0.6343922448268672 0 -0.7730113063232182
outer loop
vertex 7.22241 0 2.1909
vertex 8.44244 -10 3.19215
vertex 7.22241 -10 2.1909
endloop
endfacet
facet normal 0.471396793781279 0 -0.8819212339051206
outer loop
vertex 7.22241 -10 2.1909
vertex 4.97488 0 0.98957
vertex 7.22241 0 2.1909
endloop
endfacet
facet normal 0.4713967937812791 0 -0.8819212339051204
outer loop
vertex 4.97488 0 0.98957
vertex 7.22241 -10 2.1909
vertex 4.97488 -10 0.98957
endloop
endfacet
facet normal 0.2902866209518996 0 -0.9569397461158818
outer loop
vertex 4.97488 -10 0.98957
vertex 2.53617 0 0.24979
vertex 4.97488 0 0.98957
endloop
endfacet
facet normal 0.29028662095189955 0 -0.9569397461158818
outer loop
vertex 2.53617 0 0.24979
vertex 4.97488 -10 0.98957
vertex 2.53617 -10 0.24979
endloop
endfacet
facet normal 0.09801677406730484 0 -0.9951847627458126
outer loop
vertex 2.53617 -10 0.24979
vertex 0 0 0
vertex 2.53617 0 0.24979
endloop
endfacet
facet normal 0.09801677406730484 0 -0.9951847627458126
outer loop
vertex 0 0 0
vertex 2.53617 -10 0.24979
vertex 0 -10 0
endloop
endfacet
facet normal -0.2902813399870943 0 0.9569413480748425
outer loop
vertex 1.9509 -10 3.19215
vertex 3.82683 0 3.7612
vertex 1.9509 0 3.19215
endloop
endfacet
facet normal -0.290281339987094 0 0.9569413480748425
outer loop
vertex 3.82683 0 3.7612
vertex 1.9509 -10 3.19215
vertex 3.82683 -10 3.7612
endloop
endfacet
facet normal 0 0 0.9999999999999999
outer loop
vertex 3.82683 0 3.7612
vertex 9.13584 -10 3.7612
vertex 9.13584 0 3.7612
endloop
endfacet
facet normal 0 0 0.9999999999999999
outer loop
vertex 9.13584 -10 3.7612
vertex 3.82683 0 3.7612
vertex 3.82683 -10 3.7612
endloop
endfacet
facet normal 0 0 -1
outer loop
vertex 1.9509 -10 3.19215
vertex 8.44244 0 3.19215
vertex 8.44244 -10 3.19215
endloop
endfacet
facet normal 0 0 -1
outer loop
vertex 8.44244 0 3.19215
vertex 1.9509 -10 3.19215
vertex 1.9509 0 3.19215
endloop
endfacet
facet normal -0.4713966306487398 0 0.8819213211012734
outer loop
vertex 3.82683 -10 3.7612
vertex 5.5557 0 4.6853
vertex 3.82683 0 3.7612
endloop
endfacet
facet normal -0.47139663064873927 0 0.8819213211012737
outer loop
vertex 5.5557 0 4.6853
vertex 3.82683 -10 3.7612
vertex 5.5557 -10 4.6853
endloop
endfacet
facet normal 0 0 1
outer loop
vertex 5.5557 0 4.6853
vertex 9.91269 -10 4.6853
vertex 9.91269 0 4.6853
endloop
endfacet
facet normal 0 0 1
outer loop
vertex 9.91269 -10 4.6853
vertex 5.5557 0 4.6853
vertex 5.5557 -10 4.6853
endloop
endfacet
facet normal 0.7730136588655271 0 -0.6343893782270718
outer loop
vertex 10.8091 -10 5.77759
vertex 9.91269 0 4.6853
vertex 10.8091 0 5.77759
endloop
endfacet
facet normal 0.773011130556183 -5.631499123306364e-7 -0.6343924589998959
outer loop
vertex 10.8091 -10 5.77759
vertex 9.19239 0 3.80761
vertex 9.91269 0 4.6853
endloop
endfacet
facet normal 0.7730136588654477 4.525104719940047e-7 -0.6343893782270067
outer loop
vertex 9.91269 -10 4.6853
vertex 9.19239 0 3.80761
vertex 10.8091 -10 5.77759
endloop
endfacet
facet normal 0.773011130556306 0 -0.634392458999996
outer loop
vertex 9.19239 0 3.80761
vertex 9.91269 -10 4.6853
vertex 9.19239 -10 3.80761
endloop
endfacet
facet normal 0 0 -0.9999999999999999
outer loop
vertex 3.82683 -10 3.7612
vertex 9.13584 0 3.7612
vertex 9.13584 -10 3.7612
endloop
endfacet
facet normal 0 0 -0.9999999999999999
outer loop
vertex 9.13584 0 3.7612
vertex 3.82683 -10 3.7612
vertex 3.82683 0 3.7612
endloop
endfacet
facet normal -0.6343926686613754 0 0.7730109584919856
outer loop
vertex 5.5557 -10 4.6853
vertex 7.07107 0 5.92893
vertex 5.5557 0 4.6853
endloop
endfacet
facet normal -0.6343926686613759 0 0.7730109584919853
outer loop
vertex 7.07107 0 5.92893
vertex 5.5557 -10 4.6853
vertex 7.07107 -10 5.92893
endloop
endfacet
facet normal 0 0 1
outer loop
vertex 7.07107 0 5.92893
vertex 10.89 -10 5.92893
vertex 10.89 0 5.92893
endloop
endfacet
facet normal 0 0 1
outer loop
vertex 10.89 -10 5.92893
vertex 7.07107 0 5.92893
vertex 7.07107 -10 5.92893
endloop
endfacet
facet normal 0.8819224708908555 0 -0.4713944795367976
outer loop
vertex 12.01043 -10 8.02512
vertex 10.89 0 5.92893
vertex 12.01043 0 8.02512
endloop
endfacet
facet normal 0.8819041002764653 -0.00000926238224664343 -0.47142884704880594
outer loop
vertex 12.01043 -10 8.02512
vertex 10.8091 0 5.77759
vertex 10.89 0 5.92893
endloop
endfacet
facet normal 0.8819242678386795 0.0000016402042171157165 -0.47139111764491165
outer loop
vertex 11.69998 -10 7.4443
vertex 10.8091 0 5.77759
vertex 12.01043 -10 8.02512
endloop
endfacet
facet normal 0.8819201766269434 0 -0.47139877180397977
outer loop
vertex 11.69998 -10 7.4443
vertex 10.8091 -10 5.77759
vertex 10.8091 0 5.77759
endloop
endfacet
facet normal 0 1 0
outer loop
vertex 10.8091 -10 5.77759
vertex 11.69998 -10 7.4443
vertex 10.89 -10 5.92893
endloop
endfacet
facet normal 0 0 -1
outer loop
vertex 5.5557 -10 4.6853
vertex 9.91269 0 4.6853
vertex 9.91269 -10 4.6853
endloop
endfacet
facet normal 0 0 -1
outer loop
vertex 9.91269 0 4.6853
vertex 5.5557 -10 4.6853
vertex 5.5557 0 4.6853
endloop
endfacet
facet normal -0.7730109584919858 0 0.6343926686613754
outer loop
vertex 7.07107 -10 5.92893
vertex 8.3147 0 7.4443
vertex 7.07107 0 5.92893
endloop
endfacet
facet normal -0.7730109584919854 0 0.6343926686613758
outer loop
vertex 8.3147 0 7.4443
vertex 7.07107 -10 5.92893
vertex 8.3147 -10 7.4443
endloop
endfacet
facet normal 0 0 1
outer loop
vertex 8.3147 0 7.4443
vertex 11.69998 -10 7.4443
vertex 11.69998 0 7.4443
endloop
endfacet
facet normal 0 0 1
outer loop
vertex 11.69998 -10 7.4443
vertex 8.3147 0 7.4443
vertex 8.3147 -10 7.4443
endloop
endfacet
facet normal 0 0 -1
outer loop
vertex 7.07107 -10 5.92893
vertex 10.89 0 5.92893
vertex 10.89 -10 5.92893
endloop
endfacet
facet normal 0 0 -1
outer loop
vertex 10.89 0 5.92893
vertex 7.07107 -10 5.92893
vertex 7.07107 0 5.92893
endloop
endfacet
facet normal -0.8819213211012737 0 0.47139663064873943
outer loop
vertex 8.3147 -10 7.4443
vertex 9.2388 0 9.17317
vertex 8.3147 0 7.4443
endloop
endfacet
facet normal -0.8819213211012737 0 0.47139663064873943
outer loop
vertex 9.2388 0 9.17317
vertex 8.3147 -10 7.4443
vertex 9.2388 -10 9.17317
endloop
endfacet
facet normal 0 0 1
outer loop
vertex 9.2388 0 9.17317
vertex 12.35869 -10 9.17317
vertex 12.35869 0 9.17317
endloop
endfacet
facet normal 0 0 1
outer loop
vertex 12.35869 -10 9.17317
vertex 9.2388 0 9.17317
vertex 9.2388 -10 9.17317
endloop
endfacet
facet normal 0.9569398065517002 0 -0.29028642172308866
outer loop
vertex 12.75021 -10 10.46383
vertex 12.35869 0 9.17317
vertex 12.75021 0 10.46383
endloop
endfacet
facet normal 0.9569396781727247 -5.964775307387863e-8 -0.2902868449287337
outer loop
vertex 12.75021 -10 10.46383
vertex 12.01043 0 8.02512
vertex 12.35869 0 9.17317
endloop
endfacet
facet normal 0.9569398065516987 5.3057049961466015e-8 -0.2902864217230882
outer loop
vertex 12.35869 -10 9.17317
vertex 12.01043 0 8.02512
vertex 12.75021 -10 10.46383
endloop
endfacet
facet normal 0.9569396781727263 0 -0.2902868449287342
outer loop
vertex 12.01043 0 8.02512
vertex 12.35869 -10 9.17317
vertex 12.01043 -10 8.02512
endloop
endfacet
facet normal 0 0 -1
outer loop
vertex 8.3147 -10 7.4443
vertex 11.69998 0 7.4443
vertex 11.69998 -10 7.4443
endloop
endfacet
facet normal 0 0 -1
outer loop
vertex 11.69998 0 7.4443
vertex 8.3147 -10 7.4443
vertex 8.3147 0 7.4443
endloop
endfacet
facet normal -0.9569413480748427 0 0.290281339987094
outer loop
vertex 9.2388 -10 9.17317
vertex 9.80785 0 11.0491
vertex 9.2388 0 9.17317
endloop
endfacet
facet normal -0.9569413480748423 0 0.2902813399870952
outer loop
vertex 9.80785 0 11.0491
vertex 9.2388 -10 9.17317
vertex 9.80785 -10 11.0491
endloop
endfacet
facet normal 0 0 1
outer loop
vertex 9.80785 0 11.0491
vertex 12.80785 -10 11.0491
vertex 12.80785 0 11.0491
endloop
endfacet
facet normal 0 0 1
outer loop
vertex 12.80785 -10 11.0491
vertex 9.80785 0 11.0491
vertex 9.80785 -10 11.0491
endloop
endfacet
facet normal 0 1 0
outer loop
vertex 13 0 13
vertex 12.75021 0 10.46383
vertex 12.80785 0 11.0491
endloop
endfacet
facet normal 0.9951847627457395 -3.827633701022343e-7 -0.09801677406729793
outer loop
vertex 13 0 13
vertex 12.80785 -10 11.0491
vertex 12.75021 0 10.46383
endloop
endfacet
facet normal 0.9951845713626595 0 -0.09801871720095068
outer loop
vertex 12.80785 -10 11.0491
vertex 13 0 13
vertex 13 -10 13
endloop
endfacet
facet normal 0.995185400662786 0 -0.09801029694705742
outer loop
vertex 12.75021 0 10.46383
vertex 12.80785 -10 11.0491
vertex 12.75021 -10 10.46383
endloop
endfacet
facet normal 0 0 -1
outer loop
vertex 9.2388 -10 9.17317
vertex 12.35869 0 9.17317
vertex 12.35869 -10 9.17317
endloop
endfacet
facet normal 0 0 -1
outer loop
vertex 12.35869 0 9.17317
vertex 9.2388 -10 9.17317
vertex 9.2388 0 9.17317
endloop
endfacet
facet normal -0.9951845713626595 0 0.09801871720095068
outer loop
vertex 9.80785 -10 11.0491
vertex 10 0 13
vertex 9.80785 0 11.0491
endloop
endfacet
facet normal -0.9951845713626595 0 0.09801871720095068
outer loop
vertex 10 0 13
vertex 9.80785 -10 11.0491
vertex 10 -10 13
endloop
endfacet
facet normal 0 0 1
outer loop
vertex 10 0 13
vertex 13 -10 13
vertex 13 0 13
endloop
endfacet
facet normal 0 0 1
outer loop
vertex 13 -10 13
vertex 10 0 13
vertex 10 -10 13
endloop
endfacet
facet normal 0 0 -1
outer loop
vertex 9.80785 -10 11.0491
vertex 12.80785 0 11.0491
vertex 12.80785 -10 11.0491
endloop
endfacet
facet normal 0 0 -1
outer loop
vertex 12.80785 0 11.0491
vertex 9.80785 -10 11.0491
vertex 9.80785 0 11.0491
endloop
endfacet
facet normal 0 -1 9.055182190915099e-15
outer loop
vertex 8.44244 -10 3.19215
vertex 4.97488 -10 0.98957
vertex 7.22241 -10 2.1909
endloop
endfacet
facet normal 0 -0.9999999999999999 2.532025801726435e-15
outer loop
vertex 8.44244 -10 3.19215
vertex 2.53617 -10 0.24979
vertex 4.97488 -10 0.98957
endloop
endfacet
facet normal 0 -0.9999999999999999 0
outer loop
vertex 1.9509 -10 3.19215
vertex 2.53617 -10 0.24979
vertex 8.44244 -10 3.19215
endloop
endfacet
facet normal 0 -1 6.070203081690338e-16
outer loop
vertex 0 -10 3
vertex 2.53617 -10 0.24979
vertex 1.9509 -10 3.19215
endloop
endfacet
facet normal 0 -1 0
outer loop
vertex 2.53617 -10 0.24979
vertex 0 -10 3
vertex 0 -10 0
endloop
endfacet
facet normal 0 -1 0
outer loop
vertex 9.91269 -10 4.6853
vertex 9.13584 -10 3.7612
vertex 9.19239 -10 3.80761
endloop
endfacet
facet normal 0 -1 0
outer loop
vertex 5.5557 -10 4.6853
vertex 9.13584 -10 3.7612
vertex 9.91269 -10 4.6853
endloop
endfacet
facet normal 0 -0.9999999999999999 0
outer loop
vertex 9.13584 -10 3.7612
vertex 5.5557 -10 4.6853
vertex 3.82683 -10 3.7612
endloop
endfacet
facet normal 0 -1 -1.3850865853883888e-15
outer loop
vertex 8.3147 -10 7.4443
vertex 10.89 -10 5.92893
vertex 11.69998 -10 7.4443
endloop
endfacet
facet normal 0 -1 6.139030979598481e-16
outer loop
vertex 10.89 -10 5.92893
vertex 8.3147 -10 7.4443
vertex 7.07107 -10 5.92893
endloop
endfacet
facet normal 0 -1 0
outer loop
vertex 12.80785 -10 11.0491
vertex 12.35869 -10 9.17317
vertex 12.75021 -10 10.46383
endloop
endfacet
facet normal 0 -1 0
outer loop
vertex 9.80785 -10 11.0491
vertex 12.35869 -10 9.17317
vertex 12.80785 -10 11.0491
endloop
endfacet
facet normal 0 -1 0
outer loop
vertex 12.35869 -10 9.17317
vertex 9.80785 -10 11.0491
vertex 9.2388 -10 9.17317
endloop
endfacet
facet normal 0 -1 0
outer loop
vertex 10 -10 13
vertex 12.80785 -10 11.0491
vertex 13 -10 13
endloop
endfacet
facet normal 0 -1 0
outer loop
vertex 12.80785 -10 11.0491
vertex 10 -10 13
vertex 9.80785 -10 11.0491
endloop
endfacet
facet normal 0 -1 0
outer loop
vertex 12.35869 -10 9.17317
vertex 11.69998 -10 7.4443
vertex 12.01043 -10 8.02512
endloop
endfacet
facet normal 0 -1 0
outer loop
vertex 9.2388 -10 9.17317
vertex 11.69998 -10 7.4443
vertex 12.35869 -10 9.17317
endloop
endfacet
facet normal 0 -1 1.2140407658759785e-15
outer loop
vertex 11.69998 -10 7.4443
vertex 9.2388 -10 9.17317
vertex 8.3147 -10 7.4443
endloop
endfacet
facet normal 0 -1 0
outer loop
vertex 10.89 -10 5.92893
vertex 9.91269 -10 4.6853
vertex 10.8091 -10 5.77759
endloop
endfacet
facet normal 0 -1 -1.4960886076331631e-15
outer loop
vertex 7.07107 -10 5.92893
vertex 9.91269 -10 4.6853
vertex 10.89 -10 5.92893
endloop
endfacet
facet normal 0 -1 6.556656850656659e-16
outer loop
vertex 9.91269 -10 4.6853
vertex 7.07107 -10 5.92893
vertex 5.5557 -10 4.6853
endloop
endfacet
facet normal 0 -1 0
outer loop
vertex 3.82683 -10 3.7612
vertex 8.44244 -10 3.19215
vertex 9.13584 -10 3.7612
endloop
endfacet
facet normal 0 -0.9999999999999999 -1.9234993266482936e-15
outer loop
vertex 8.44244 -10 3.19215
vertex 3.82683 -10 3.7612
vertex 1.9509 -10 3.19215
endloop
endfacet
facet normal 0 1 0
outer loop
vertex 12.80785 0 11.0491
vertex 10 0 13
vertex 13 0 13
endloop
endfacet
facet normal 0 1 0
outer loop
vertex 10 0 13
vertex 12.80785 0 11.0491
vertex 9.80785 0 11.0491
endloop
endfacet
facet normal 0 1 0
outer loop
vertex 12.35869 0 9.17317
vertex 12.80785 0 11.0491
vertex 12.75021 0 10.46383
endloop
endfacet
facet normal 0 1 0
outer loop
vertex 12.35869 0 9.17317
vertex 9.80785 0 11.0491
vertex 12.80785 0 11.0491
endloop
endfacet
facet normal 0 1 0
outer loop
vertex 9.80785 0 11.0491
vertex 12.35869 0 9.17317
vertex 9.2388 0 9.17317
endloop
endfacet
facet normal 0 1 0
outer loop
vertex 11.69998 0 7.4443
vertex 12.35869 0 9.17317
vertex 12.01043 0 8.02512
endloop
endfacet
facet normal 0 1 0
outer loop
vertex 11.69998 0 7.4443
vertex 9.2388 0 9.17317
vertex 12.35869 0 9.17317
endloop
endfacet
facet normal 0 1 0
outer loop
vertex 9.2388 0 9.17317
vertex 11.69998 0 7.4443
vertex 8.3147 0 7.4443
endloop
endfacet
facet normal 0 1 0
outer loop
vertex 10.89 0 5.92893
vertex 8.3147 0 7.4443
vertex 11.69998 0 7.4443
endloop
endfacet
facet normal 0 1 0
outer loop
vertex 8.3147 0 7.4443
vertex 10.89 0 5.92893
vertex 7.07107 0 5.92893
endloop
endfacet
facet normal 0 1 0
outer loop
vertex 9.91269 0 4.6853
vertex 10.89 0 5.92893
vertex 10.8091 0 5.77759
endloop
endfacet
facet normal 0 1 0
outer loop
vertex 9.91269 0 4.6853
vertex 7.07107 0 5.92893
vertex 10.89 0 5.92893
endloop
endfacet
facet normal 0 1 0
outer loop
vertex 7.07107 0 5.92893
vertex 9.91269 0 4.6853
vertex 5.5557 0 4.6853
endloop
endfacet
facet normal 0 1 0
outer loop
vertex 9.13584 0 3.7612
vertex 9.91269 0 4.6853
vertex 9.19239 0 3.80761
endloop
endfacet
facet normal 0 1 0
outer loop
vertex 9.13584 0 3.7612
vertex 5.5557 0 4.6853
vertex 9.91269 0 4.6853
endloop
endfacet
facet normal 0 0.9999999999999999 0
outer loop
vertex 5.5557 0 4.6853
vertex 9.13584 0 3.7612
vertex 3.82683 0 3.7612
endloop
endfacet
facet normal 0 1 0
outer loop
vertex 8.44244 0 3.19215
vertex 3.82683 0 3.7612
vertex 9.13584 0 3.7612
endloop
endfacet
facet normal 0 0.9999999999999999 0
outer loop
vertex 3.82683 0 3.7612
vertex 8.44244 0 3.19215
vertex 1.9509 0 3.19215
endloop
endfacet
facet normal 0 1 0
outer loop
vertex 4.97488 0 0.98957
vertex 8.44244 0 3.19215
vertex 7.22241 0 2.1909
endloop
endfacet
facet normal 0 0.9999999999999999 0
outer loop
vertex 2.53617 0 0.24979
vertex 8.44244 0 3.19215
vertex 4.97488 0 0.98957
endloop
endfacet
facet normal 0 0.9999999999999999 0
outer loop
vertex 2.53617 0 0.24979
vertex 1.9509 0 3.19215
vertex 8.44244 0 3.19215
endloop
endfacet
facet normal 0 1 0
outer loop
vertex 2.53617 0 0.24979
vertex 0 0 3
vertex 1.9509 0 3.19215
endloop
endfacet
facet normal 0 1 0
outer loop
vertex 0 0 3
vertex 2.53617 0 0.24979
vertex 0 0 0
endloop
endfacet
facet normal -1 0 0
outer loop
vertex 10 0 13
vertex 10 -10 33
vertex 10 0 33
endloop
endfacet
facet normal -1 0 0
outer loop
vertex 10 -10 33
vertex 10 0 13
vertex 10 -10 13
endloop
endfacet
facet normal 0 0 1
outer loop
vertex 10 0 33
vertex 13 -10 33
vertex 13 0 33
endloop
endfacet
facet normal 0 0 1
outer loop
vertex 13 -10 33
vertex 10 0 33
vertex 10 -10 33
endloop
endfacet
facet normal 1 0 0
outer loop
vertex 13 -10 33
vertex 13 0 13
vertex 13 0 33
endloop
endfacet
facet normal 1 0 0
outer loop
vertex 13 0 13
vertex 13 -10 33
vertex 13 -10 13
endloop
endfacet
facet normal 0 0 -1
outer loop
vertex 10 -10 13
vertex 13 0 13
vertex 13 -10 13
endloop
endfacet
facet normal 0 0 -1
outer loop
vertex 13 0 13
vertex 10 -10 13
vertex 10 0 13
endloop
endfacet
facet normal 0 -1 0
outer loop
vertex 10 -10 33
vertex 13 -10 13
vertex 13 -10 33
endloop
endfacet
facet normal 0 -1 0
outer loop
vertex 13 -10 13
vertex 10 -10 33
vertex 10 -10 13
endloop
endfacet
facet normal 0 1 0
outer loop
vertex 10 0 13
vertex 13 0 33
vertex 13 0 13
endloop
endfacet
facet normal 0 1 0
outer loop
vertex 13 0 33
vertex 10 0 13
vertex 10 0 33
endloop
endfacet
endsolid JSxCAD
