<?xml version="1.0" encoding="UTF-8"?>
<!-- Generated by jsxcad -->
<!DOCTYPE svg PUBLIC "-//W3C//DTD SVG 1.1 Tiny//EN" "http://www.w3.org/Graphics/SVG/1.1/DTD/svg11-tiny.dtd">
<svg viewBox="-250 -250 500 500" width="500" height="500" xmlns="http://www.w3.org/2000/svg"><path d="M102.59697319137773,14.995010353004057L-23.185138050382385,29.3683724146615L-24.494656002654455,46.43911075567272zM-23.185138050382385,29.3683724146615L102.59697319137773,14.995010353004057L101.49220928311941,-1.9973640676052848z" style="fill:rgb(84,220,202)"/><path d="M102.59697319137773,14.995010353004057L112.31552155254231,23.992933340766065L101.49220928311941,-1.9973640676052848z" style="fill:rgb(247,158,158)"/><path d="M102.22575581926628,28.532861213088392L-24.494656002654455,46.43911075567272L-27.65913797448981,60.247092267090856zM-24.494656002654455,46.43911075567272L102.22575581926628,28.532861213088392L102.59697319137773,14.995010353004057z" style="fill:rgb(85,234,182)"/><path d="M-26.006950397972307,113.58455149022687L102.59697319137773,14.995010353004057L-24.494656002654455,46.43911075567272z" style="fill:rgb(83,212,212)"/><path d="M112.31552155254231,23.992933340766065L109.14421816358178,82.39097766945291L113.99502144495582,46.29932756732808zM112.31552155254231,23.992933340766065L102.59697319137773,14.995010353004057L109.14421816358178,82.39097766945291z" style="fill:rgb(247,158,158)"/><path d="M-32.69756202256223,70.11476174174182L102.22575581926628,28.532861213088392L-27.65913797448981,60.247092267090856z" style="fill:rgb(89,244,159)"/><path d="M113.99502144495582,46.29932756732808L109.14421816358178,82.39097766945291L113.85200119396112,64.57423120298077z" style="fill:rgb(247,158,158)"/><path d="M102.22575581926628,28.532861213088392L-32.69756202256223,70.11476174174182L100.28874341463677,37.92942749863279z" style="fill:rgb(89,244,159)"/><path d="M102.22575581926628,28.532861213088392L109.14421816358178,82.39097766945291L102.59697319137773,14.995010353004057z" style="fill:rgb(247,158,158)"/><path d="M-27.65913797448981,60.247092267090856L107.62614122881651,85.04034143221352L102.22575581926628,28.532861213088392zM102.59697319137773,14.995010353004057L-26.006950397972307,113.58455149022687L109.14421816358178,82.39097766945291z" style="fill:rgb(83,212,212)"/><path d="M-39.567413751276696,75.39571190345089L100.28874341463677,37.92942749863279L-32.69756202256223,70.11476174174182z" style="fill:rgb(93,250,135)"/><path d="M107.62614122881651,85.04034143221352L-27.65913797448981,60.247092267090856L-29.072233226306892,116.51536586591912z" style="fill:rgb(83,212,212)"/><path d="M113.85200119396112,64.57423120298077L109.14421816358178,82.39097766945291L111.72813592146335,77.88150908828207zM100.28874341463677,37.92942749863279L107.62614122881651,85.04034143221352L102.22575581926628,28.532861213088392z" style="fill:rgb(247,158,158)"/><path d="M-32.69756202256223,70.11476174174182L104.709104276431,85.48983436464945L100.28874341463677,37.92942749863279z" style="fill:rgb(83,212,212)"/><path d="M109.14421816358178,82.39097766945291L102.22575581926628,28.532861213088392L107.62614122881651,85.04034143221352z" style="fill:rgb(247,158,158)"/><path d="M100.28874341463677,37.92942749863279L-39.567413751276696,75.39571190345089L96.73562283783578,42.53074618091906z" style="fill:rgb(93,250,135)"/><path d="M104.709104276431,85.48983436464945L-32.69756202256223,70.11476174174182L-34.09056325187929,117.45611364153623z" style="fill:rgb(83,212,212)"/><path d="M107.50070539536749,85.25925667605806L-40.22568870300514,118.3556589181103L-29.32540549714238,116.75744088220749z" style="fill:rgb(155,4,143)"/><path d="M96.73562283783578,42.53074618091906L104.709104276431,85.48983436464945L100.28874341463677,37.92942749863279zM107.62614122881651,85.04034143221352L100.28874341463677,37.92942749863279L104.709104276431,85.48983436464945z" style="fill:rgb(247,158,158)"/><path d="M-39.567413751276696,75.39571190345089L100.55575467158558,85.32445614827434L96.73562283783578,42.53074618091906zM100.55575467158558,85.32445614827434L-39.567413751276696,75.39571190345089L-41.07658355643628,117.98143750409076z" style="fill:rgb(83,212,212)"/><path d="M107.62614122881651,85.04034143221352L104.709104276431,85.48983436464945L107.50070539536749,85.25925667605806z" style="fill:rgb(247,158,158)"/><path d="M-40.22568870300514,118.3556589181103L107.50070539536749,85.25925667605806L101.11069083429648,85.78704864844742z" style="fill:rgb(155,4,143)"/><path d="M104.709104276431,85.48983436464945L96.73562283783578,42.53074618091906L100.55575467158558,85.32445614827434z" style="fill:rgb(247,158,158)"/><path d="M94.85487793719226,80.57220009242333L-48.1451173537987,75.52450072976374L-49.81007872815648,114.14034417591526zM-48.1451173537987,75.52450072976374L94.85487793719226,80.57220009242333L91.57344562868164,41.76822300107873z" style="fill:rgb(83,212,212)"/><path d="M94.85487793719226,80.57220009242333L96.73562283783578,42.53074618091906L91.57344562868164,41.76822300107873zM104.709104276431,85.48983436464945L100.55575467158558,85.32445614827434L101.11069083429648,85.78704864844742zM96.73562283783578,42.53074618091906L94.85487793719226,80.57220009242333L100.55575467158558,85.32445614827434z" style="fill:rgb(247,158,158)"/><path d="M-40.22568870300514,118.3556589181103L92.59769498626771,78.69061127586599L-53.26409004266296,112.6212324214066zM92.59769498626771,78.69061127586599L-40.22568870300514,118.3556589181103L101.11069083429648,85.78704864844742z" style="fill:rgb(148,8,167)"/><path d="M-60.10650070120524,106.34429918299867L84.88630035906243,35.22940662805687L-58.207080065445524,70.08347849630591z" style="fill:rgb(83,212,212)"/><path d="M87.75906770312352,71.65568613193015L91.57344562868164,41.76822300107873L84.88630035906243,35.22940662805687zM91.57344562868164,41.76822300107873L87.75906770312352,71.65568613193015L94.85487793719226,80.57220009242333z" style="fill:rgb(247,158,158)"/><path d="M84.88630035906243,35.22940662805687L-60.10650070120524,106.34429918299867L87.75906770312352,71.65568613193015zM-71.64550631559487,94.21510244715256L76.85358056106872,22.74187103906453L-69.41579357316355,58.8819222151043z" style="fill:rgb(83,212,212)"/><path d="M-53.26409004266296,112.6212324214066L82.13737563721871,63.48226053808383L-68.0468897673926,99.06013146390308zM82.13737563721871,63.48226053808383L-53.26409004266296,112.6212324214066L92.59769498626771,78.69061127586599z" style="fill:rgb(140,16,189)"/><path d="M94.85487793719226,80.57220009242333L87.75906770312352,71.65568613193015L92.59769498626771,78.69061127586599zM79.41602151186137,58.212891310254676L84.88630035906243,35.22940662805687L76.85358056106872,22.74187103906453zM84.88630035906243,35.22940662805687L79.41602151186137,58.212891310254676L87.75906770312352,71.65568613193015z" style="fill:rgb(247,158,158)"/><path d="M76.85358056106872,22.74187103906453L-71.64550631559487,94.21510244715256L79.41602151186137,58.212891310254676zM70.07331980853226,40.122586770059776L-81.31661187849858,42.03654691213688L-83.98648023186311,77.59972172962588z" style="fill:rgb(83,212,212)"/><path d="M-68.0468897673926,99.06013146390308L70.07331980853226,40.122586770059776L-83.98648023186311,77.59972172962588z" style="fill:rgb(131,29,208)"/><path d="M-81.31661187849858,42.03654691213688L70.07331980853226,40.122586770059776L67.76198985297218,4.458509255464327z" style="fill:rgb(83,212,212)"/><path d="M87.75906770312352,71.65568613193015L79.41602151186137,58.212891310254676L82.13737563721871,63.48226053808383z" style="fill:rgb(247,158,158)"/><path d="M70.07331980853226,40.122586770059776L-68.0468897673926,99.06013146390308L82.13737563721871,63.48226053808383z" style="fill:rgb(131,29,208)"/><path d="M70.07331980853226,40.122586770059776L76.85358056106872,22.74187103906453L67.76198985297218,4.458509255464327zM76.85358056106872,22.74187103906453L70.07331980853226,40.122586770059776L79.41602151186137,58.212891310254676z" style="fill:rgb(247,158,158)"/><path d="M14.343866052237038,-79.64153479833537L-83.98648023186311,77.59972172962588L70.07331980853226,40.122586770059776z" style="fill:rgb(127,37,217)"/><path d="M67.76198985297218,4.458509255464327L14.343866052237038,-79.64153479833537L70.07331980853226,40.122586770059776z" style="fill:rgb(247,158,158)"/><path d="M-83.98648023186311,77.59972172962588L14.343866052237038,-79.64153479833537L-155.04754853655368,-32.87350013862647z" style="fill:rgb(127,37,217)"/><path d="M14.343866052237038,-79.64153479833537L67.76198985297218,4.458509255464327L13.816239359016416,-115.00855759661246z" style="fill:rgb(247,158,158)"/><path d="M14.343866052237038,-79.64153479833537L-149.57376349566488,-68.46842329175755L-155.04754853655368,-32.87350013862647zM-149.57376349566488,-68.46842329175755L14.343866052237038,-79.64153479833537L13.816239359016416,-115.00855759661246z" style="fill:rgb(83,212,212)"/></svg>
