<?xml version="1.0" encoding="UTF-8"?>
<!-- Generated by jsxcad -->
<!DOCTYPE svg PUBLIC "-//W3C//DTD SVG 1.1 Tiny//EN" "http://www.w3.org/Graphics/SVG/1.1/DTD/svg11-tiny.dtd">
<svg viewBox="-250 -250 500 500" width="500" height="500" xmlns="http://www.w3.org/2000/svg"><path d="M110.56414489596648,36.44056569850764L-22.126834785354358,56.43938217618728L-23.028611599700486,68.74059889501947zM-22.126834785354358,56.43938217618728L110.56414489596648,36.44056569850764L109.67731486707815,24.176054124585395z" style="fill:rgb(84,220,202)"/><path d="M110.56414489596648,36.44056569850764L117.21512308113122,42.16156492257374L109.67731486707815,24.176054124585395z" style="fill:rgb(247,158,158)"/><path d="M110.43216219046415,46.19969172616853L-23.028611599700486,68.74059889501947L-25.204865012044184,78.6765963195776zM-23.028611599700486,68.74059889501947L110.43216219046415,46.19969172616853L110.56414489596648,36.44056569850764z" style="fill:rgb(85,234,182)"/><path d="M-28.638587503685105,85.79180972905343L110.43216219046415,46.19969172616853L-25.204865012044184,78.6765963195776z" style="fill:rgb(89,244,159)"/><path d="M117.21512308113122,42.16156492257374L115.41404720810154,83.70766975648296L118.48529945617345,58.20176305941646z" style="fill:rgb(247,158,158)"/><path d="M-23.028611599700486,68.74059889501947L115.41404720810154,83.70766975648296L110.56414489596648,36.44056569850764z" style="fill:rgb(83,212,212)"/><path d="M117.21512308113122,42.16156492257374L110.56414489596648,36.44056569850764L115.41404720810154,83.70766975648296z" style="fill:rgb(247,158,158)"/><path d="M-26.08584920226463,117.81667588207897L110.43216219046415,46.19969172616853L-25.204865012044184,78.6765963195776zM115.41404720810154,83.70766975648296L-23.028611599700486,68.74059889501947L-24.004923939254372,115.7936998144015z" style="fill:rgb(83,212,212)"/><path d="M118.48529945617345,58.20176305941646L115.41404720810154,83.70766975648296L118.47702356526315,71.21249726381272z" style="fill:rgb(247,158,158)"/><path d="M110.43216219046415,46.19969172616853L-28.638587503685105,85.79180972905343L109.2372834388945,52.99478868652784z" style="fill:rgb(89,244,159)"/><path d="M-33.26729040096952,89.68202622821043L109.2372834388945,52.99478868652784L-28.638587503685105,85.79180972905343z" style="fill:rgb(93,250,135)"/><path d="M110.43216219046415,46.19969172616853L115.41404720810154,83.70766975648296L110.56414489596648,36.44056569850764zM118.47702356526315,71.21249726381272L115.41404720810154,83.70766975648296L117.11157490269206,80.56873720362918z" style="fill:rgb(247,158,158)"/><path d="M110.43216219046415,46.19969172616853L-26.08584920226463,117.81667588207897L114.42699582662755,85.53286671629009zM112.51704852485037,85.8446388305353L-28.638587503685105,85.79180972905343L-29.469084100317094,118.47128277258669zM-28.638587503685105,85.79180972905343L112.51704852485037,85.8446388305353L109.2372834388945,52.99478868652784z" style="fill:rgb(83,212,212)"/><path d="M109.2372834388945,52.99478868652784L114.42699582662755,85.53286671629009L110.43216219046415,46.19969172616853z" style="fill:rgb(247,158,158)"/><path d="M109.2372834388945,52.99478868652784L-33.26729040096952,89.68202622821043L106.96763415799451,56.421310134273256z" style="fill:rgb(93,250,135)"/><path d="M115.41404720810154,83.70766975648296L110.43216219046415,46.19969172616853L114.42699582662755,85.53286671629009z" style="fill:rgb(247,158,158)"/><path d="M-34.12513038258905,118.84113426283426L106.96763415799451,56.421310134273256L-33.26729040096952,89.68202622821043z" style="fill:rgb(83,212,212)"/><path d="M114.34577340177724,85.68306530889633L-33.55991347399967,119.0930314178926L-26.257033651685884,117.98308973162668z" style="fill:rgb(155,4,143)"/><path d="M106.96763415799451,56.421310134273256L112.51704852485037,85.8446388305353L109.2372834388945,52.99478868652784zM114.42699582662755,85.53286671629009L109.2372834388945,52.99478868652784L112.51704852485037,85.8446388305353zM114.42699582662755,85.53286671629009L112.51704852485037,85.8446388305353L114.34577340177724,85.68306530889633z" style="fill:rgb(247,158,158)"/><path d="M-33.55991347399967,119.0930314178926L114.34577340177724,85.68306530889633L110.18609511546131,86.05059870067987z" style="fill:rgb(155,4,143)"/><path d="M106.96763415799451,56.421310134273256L-34.12513038258905,118.84113426283426L109.82489108656756,85.73810643872295zM106.14519375826434,82.55464280863436L-38.975223122404444,90.02473414591195L-39.879769049357826,116.27652903522436z" style="fill:rgb(83,212,212)"/><path d="M112.51704852485037,85.8446388305353L106.96763415799451,56.421310134273256L109.82489108656756,85.73810643872295z" style="fill:rgb(247,158,158)"/><path d="M-38.975223122404444,90.02473414591195L106.14519375826434,82.55464280863436L103.65194179225276,56.160644739961576z" style="fill:rgb(83,212,212)"/><path d="M-33.55991347399967,119.0930314178926L104.7036665429738,81.30750989802202L-42.1324336606152,115.27260323641198z" style="fill:rgb(148,8,167)"/><path d="M-46.578002669792845,111.11930341477489L99.36751005889977,52.01772349212375L-45.58743716198974,86.61491991217785z" style="fill:rgb(83,212,212)"/><path d="M106.14519375826434,82.55464280863436L106.96763415799451,56.421310134273256L103.65194179225276,56.160644739961576zM112.51704852485037,85.8446388305353L109.82489108656756,85.73810643872295L110.18609511546131,86.05059870067987z" style="fill:rgb(247,158,158)"/><path d="M104.7036665429738,81.30750989802202L-33.55991347399967,119.0930314178926L110.18609511546131,86.05059870067987z" style="fill:rgb(148,8,167)"/><path d="M106.96763415799451,56.421310134273256L106.14519375826434,82.55464280863436L109.82489108656756,85.73810643872295zM101.60664799998354,76.65030970888176L103.65194179225276,56.160644739961576L99.36751005889977,52.01772349212375z" style="fill:rgb(247,158,158)"/><path d="M-42.1324336606152,115.27260323641198L98.04780423164006,71.29862883514194L-51.68249171112166,106.35040001368016z" style="fill:rgb(140,16,189)"/><path d="M99.36751005889977,52.01772349212375L-46.578002669792845,111.11930341477489L101.60664799998354,76.65030970888176z" style="fill:rgb(83,212,212)"/><path d="M103.65194179225276,56.160644739961576L101.60664799998354,76.65030970888176L106.14519375826434,82.55464280863436z" style="fill:rgb(247,158,158)"/><path d="M96.32150949661771,67.85347869089361L-52.867691148549135,79.40261777564348L-53.98958313678937,103.18087473508491z" style="fill:rgb(83,212,212)"/><path d="M98.04780423164006,71.29862883514194L-42.1324336606152,115.27260323641198L104.7036665429738,81.30750989802202z" style="fill:rgb(140,16,189)"/><path d="M-52.867691148549135,79.40261777564348L96.32150949661771,67.85347869089361L94.24623801687869,43.96043537985991z" style="fill:rgb(83,212,212)"/><path d="M106.14519375826434,82.55464280863436L101.60664799998354,76.65030970888176L104.7036665429738,81.30750989802202zM96.32150949661771,67.85347869089361L99.36751005889977,52.01772349212375L94.24623801687869,43.96043537985991zM99.36751005889977,52.01772349212375L96.32150949661771,67.85347869089361L101.60664799998354,76.65030970888176z" style="fill:rgb(247,158,158)"/><path d="M90.4543280069851,56.14439297885969L-60.522188562726654,68.52652854907464L-61.825179016927784,92.41618738782327z" style="fill:rgb(83,212,212)"/><path d="M-51.68249171112166,106.35040001368016L90.4543280069851,56.14439297885969L-61.825179016927784,92.41618738782327z" style="fill:rgb(131,29,208)"/><path d="M-60.522188562726654,68.52652854907464L90.4543280069851,56.14439297885969L88.47670542043242,32.15473709746169z" style="fill:rgb(83,212,212)"/><path d="M90.4543280069851,56.14439297885969L-51.68249171112166,106.35040001368016L98.04780423164006,71.29862883514194z" style="fill:rgb(131,29,208)"/><path d="M101.60664799998354,76.65030970888176L96.32150949661771,67.85347869089361L98.04780423164006,71.29862883514194zM90.4543280069851,56.14439297885969L94.24623801687869,43.96043537985991L88.47670542043242,32.15473709746169zM94.24623801687869,43.96043537985991L90.4543280069851,56.14439297885969L96.32150949661771,67.85347869089361z" style="fill:rgb(247,158,158)"/><path d="M17.91557789651257,-104.26521522236912L-61.825179016927784,92.41618738782327L90.4543280069851,56.14439297885969z" style="fill:rgb(127,37,217)"/><path d="M88.47670542043242,32.15473709746169L17.91557789651257,-104.26521522236912L90.4543280069851,56.14439297885969z" style="fill:rgb(247,158,158)"/><path d="M-61.825179016927784,92.41618738782327L17.91557789651257,-104.26521522236912L-155.01222071541233,-55.515106959943864z" style="fill:rgb(127,37,217)"/><path d="M17.91557789651257,-104.26521522236912L88.47670542043242,32.15473709746169L17.4617378644075,-127.99766176805208z" style="fill:rgb(247,158,158)"/><path d="M17.91557789651257,-104.26521522236912L-151.24844625025594,-79.44600224409504L-155.01222071541233,-55.515106959943864zM-151.24844625025594,-79.44600224409504L17.91557789651257,-104.26521522236912L17.4617378644075,-127.99766176805208z" style="fill:rgb(83,212,212)"/></svg>
