<?xml version="1.0" encoding="UTF-8"?>
<!-- Generated by jsxcad -->
<!DOCTYPE svg PUBLIC "-//W3C//DTD SVG 1.1 Tiny//EN" "http://www.w3.org/Graphics/SVG/1.1/DTD/svg11-tiny.dtd">
<svg viewBox="-250 -250 500 500" width="500" height="500" xmlns="http://www.w3.org/2000/svg"><path d="M143.16878241561733,102.00247440636674L120.61100698162721,127.85686164714028L135.28068740413698,111.19571997940778z" style="fill:rgb(221,44,149)"/><path d="M-165.33857764962278,-60.19533594846628L-149.13591304460152,-93.08501569960696L-157.32867120804846,-76.82962180943353z" style="fill:rgb(14,182,149)"/><path d="M170.37671222516792,43.46824728463617L156.03609775652345,81.53310440326167L164.42938573214212,60.70445898313767z" style="fill:rgb(244,82,151)"/><path d="M31.13363424450017,172.0761800699719L16.667272841649456,174.5550250903902L38.898618276157336,171.51638786934512z" style="fill:rgb(143,3,150)"/><path d="M-19.175374864587194,175.073283276153L-58.61644265335913,165.60975198504752L-41.58736205930629,170.63691067403906z" style="fill:rgb(99,5,154)"/><path d="M-139.6812633300503,-106.9365906881559L-118.93689697812415,-128.6121304543422L-127.85845700110973,-120.23350910344652z" style="fill:rgb(35,212,152)"/><path d="M-27.675232593662884,-173.15620080215638L-24.687280678360434,-172.8020557946113L-9.838769615124402,-175.54160700741275z" style="fill:rgb(109,251,151)"/><path d="M95.95205706330174,-147.26867999121455L128.2720396265194,-120.12059973695457L114.16435271185735,-133.194262852426z" style="fill:rgb(207,223,153)"/><path d="M126.17643217755109,121.29956672438215L102.93237395809153,142.77207137839963L120.61100698162721,127.85686164714028z" style="fill:rgb(208,32,154)"/><path d="M59.74670035325583,-165.16222596444916L95.95205706330174,-147.26867999121455L79.83175202596951,-156.29651879298547z" style="fill:rgb(183,239,154)"/><path d="M61.26473754728482,165.03902806280968L31.13363424450017,172.0761800699719L38.898618276157336,171.51638786934512z" style="fill:rgb(161,7,154)"/><path d="M128.2720396265194,-120.12059973695457L153.728722079639,-84.85734132908095L143.02298546158866,-101.8141619648324z" style="fill:rgb(228,200,155)"/><path d="M105.6310318279382,138.62318476368176L82.89269733523018,155.33449813202714L102.93237395809153,142.77207137839963z" style="fill:rgb(193,22,156)"/><path d="M153.728722079639,-84.85734132908095L169.93658412097147,-43.63173941648777L163.75805100556673,-63.76963866724274z" style="fill:rgb(242,173,157)"/><path d="M16.667272841649456,174.5550250903902L31.13363424450017,172.0761800699719L5.3634736029384475,175.60249841072147z" style="fill:rgb(143,3,150)"/><path d="M82.89269733523018,155.33449813202714L57.13126870983666,164.5390963693285L61.26473754728482,165.03902806280968z" style="fill:rgb(177,14,157)"/><path d="M120.61100698162721,127.85686164714028L143.16878241561733,102.00247440636674L126.17643217755109,121.29956672438215z" style="fill:rgb(221,44,149)"/><path d="M-24.687280678360434,-172.8020557946113L-27.675232593662884,-173.15620080215638L-38.85348873331217,-170.91226450666008z" style="fill:rgb(109,251,151)"/><path d="M-156.09492922325902,79.71982565057002L-171.18756395122634,38.718286435894136L-164.79607786907712,61.58701195022006z" style="fill:rgb(11,85,159)"/><path d="M-149.13591304460152,-93.08501569960696L-165.33857764962278,-60.19533594846628L-155.9059218937913,-79.01644286028694z" style="fill:rgb(14,182,149)"/><path d="M-58.61644265335913,165.60975198504752L-97.2254007055199,145.71329461257218L-80.01710395557588,156.78431238771307z" style="fill:rgb(72,17,159)"/><path d="M-149.13591304460152,-93.08501569960696L-128.3099939057578,-118.0592255862936L-139.6812633300503,-106.9365906881559z" style="fill:rgb(29,202,158)"/><path d="M-9.838769615124402,-175.54160700741275L-11.25271853788878,-172.90394086927338L7.174479694629732,-175.69688273626306z" style="fill:rgb(120,251,157)"/><path d="M-169.93658412097147,-43.63173941648766L-155.9059218937913,-79.01644286028694L-165.33857764962278,-60.19533594846628z" style="fill:rgb(12,171,159)"/><path d="M-130.80364925446565,116.35949945593167L-156.09492922325902,79.71982565057002L-144.7151349251076,100.22017562429804z" style="fill:rgb(25,58,161)"/><path d="M156.03609775652345,81.53310440326167L170.37671222516792,43.46824728463617L161.1275333458959,66.38253649063172z" style="fill:rgb(244,82,151)"/><path d="M174.48121878848198,21.120611257094136L171.11657437206358,24.002703428477847L170.37671222516792,43.46824728463617z" style="fill:rgb(250,111,156)"/><path d="M161.1275333458959,66.38253649063172L143.16878241561733,102.00247440636674L156.03609775652345,81.53310440326167z" style="fill:rgb(234,67,161)"/><path d="M-97.2254007055199,145.71329461257218L-130.80364925446565,116.35949945593167L-115.61433282133059,132.79351401918876z" style="fill:rgb(46,34,161)"/><path d="M43.09162205378442,-170.43360542401246L36.89865247932941,-169.07942509765525L59.74670035325583,-165.16222596444916z" style="fill:rgb(156,247,157)"/><path d="M-170.8332405238438,-27.59657848251836L-174.48795986390158,-21.65137650167997L-175.5693695855817,-3.4403810964077133z" style="fill:rgb(4,144,157)"/><path d="M-118.93689697812415,-128.6121304543422L-139.6812633300503,-106.9365906881559L-128.3099939057578,-118.0592255862936z" style="fill:rgb(35,212,152)"/><path d="M-174.68606002450602,19.92264517691055L-172.303511872199,13.734938192666542L-175.5693695855817,-3.4403810964077133z" style="fill:rgb(4,115,157)"/><path d="M171.11657437206358,24.002703428477847L174.48121878848198,21.120611257094136L175.50015646122927,0.4210409071365834z" style="fill:rgb(250,111,156)"/><path d="M-174.48795986390158,-21.65137650167997L-170.8332405238438,-27.59657848251836L-169.93658412097147,-43.63173941648766z" style="fill:rgb(4,144,157)"/><path d="M-172.303511872199,13.734938192666542L-174.68606002450602,19.92264517691055L-171.18756395122634,38.718286435894136z" style="fill:rgb(4,115,157)"/><path d="M102.93237395809153,142.77207137839963L126.17643217755109,121.29956672438215L105.6310318279382,138.62318476368176z" style="fill:rgb(208,32,154)"/><path d="M-58.61644265335913,165.60975198504752L-19.175374864587194,175.073283276153L-33.9195498853471,170.47365813479948z" style="fill:rgb(99,5,154)"/><path d="M174.48795986390158,-21.651376501680083L170.89027786681734,-21.202809683320485L175.50015646122927,0.4210409071365834z" style="fill:rgb(250,142,158)"/><path d="M31.13363424450017,172.0761800699719L61.26473754728482,165.03902806280968L57.13126870983666,164.5390963693285z" style="fill:rgb(161,7,154)"/><path d="M170.89027786681734,-21.202809683320485L174.48795986390158,-21.651376501680083L169.93658412097147,-43.63173941648777z" style="fill:rgb(250,142,158)"/><path d="M36.89865247932941,-169.07942509765525L43.09162205378442,-170.43360542401246L22.90735850019112,-173.55113310080853z" style="fill:rgb(156,247,157)"/><path d="M128.2720396265194,-120.12059973695457L95.95205706330174,-147.26867999121455L108.8368158360334,-135.2729467763838z" style="fill:rgb(207,223,153)"/><path d="M95.95205706330174,-147.26867999121455L59.74670035325583,-165.16222596444916L73.9413059378634,-157.1726267806702z" style="fill:rgb(183,239,154)"/><path d="M-11.25271853788878,-172.90394086927338L-9.838769615124402,-175.54160700741275L-24.687280678360434,-172.8020557946113z" style="fill:rgb(120,251,157)"/><path d="M82.89269733523018,155.33449813202714L105.6310318279382,138.62318476368176L82.30580333736773,153.24005184715546z" style="fill:rgb(193,22,156)"/><path d="M57.13126870983666,164.5390963693285L82.89269733523018,155.33449813202714L82.30580333736773,153.24005184715546z" style="fill:rgb(177,14,157)"/><path d="M153.728722079639,-84.85734132908095L128.2720396265194,-120.12059973695457L138.36160852597212,-104.03064904880632z" style="fill:rgb(228,200,155)"/><path d="M-79.75880533235251,-152.1510263406935L-67.89950364701275,-162.12487007252184L-82.0553580025172,-155.48046099804833z" style="fill:rgb(74,237,163)"/><path d="M-95.50032628034083,-147.54896807856338L-79.75880533235251,-152.1510263406935L-82.0553580025172,-155.48046099804833z" style="fill:rgb(66,233,164)"/><path d="M-6.745922702228778,171.007635176471L-19.175374864587194,175.073283276153L5.3634736029384475,175.60249841072147z" style="fill:rgb(117,5,163)"/><path d="M-69.78949035528272,-156.82801313941118L-53.37964512611241,-167.31568170388041L-67.89950364701275,-162.12487007252184z" style="fill:rgb(83,241,165)"/><path d="M-107.90038433892693,-138.52131603656954L-89.22313881782786,-146.56384083738354L-95.50032628034083,-147.54896807856338z" style="fill:rgb(58,228,165)"/><path d="M169.93658412097147,-43.63173941648777L153.728722079639,-84.85734132908095L159.71252716752957,-65.09823067958645z" style="fill:rgb(242,173,157)"/><path d="M-155.9059218937913,-79.01644286028694L-135.74344142771528,-107.12290033876386L-149.13591304460152,-93.08501569960696z" style="fill:rgb(25,193,166)"/><path d="M7.174479694629732,-175.69688273626306L1.0775621710463947,-171.17254283258367L22.90735850019112,-173.55113310080853z" style="fill:rgb(131,249,164)"/><path d="M-128.3099939057578,-118.0592255862936L-149.13591304460152,-93.08501569960696L-135.74344142771528,-107.12290033876386z" style="fill:rgb(29,202,158)"/><path d="M73.9413059378634,-157.1726267806702L108.8368158360334,-135.2729467763838L95.95205706330174,-147.26867999121455z" style="fill:rgb(191,230,167)"/><path d="M-171.18756395122634,38.718286435894136L-156.09492922325902,79.71982565057002L-162.86786004968076,55.850005184538276z" style="fill:rgb(11,85,159)"/><path d="M146.8535385077641,88.999202750273L126.17643217755109,121.29956672438215L143.16878241561733,102.00247440636674z" style="fill:rgb(222,53,169)"/><path d="M-97.2254007055199,145.71329461257218L-58.61644265335913,165.60975198504752L-74.58012219535232,154.9788546217442z" style="fill:rgb(72,17,159)"/><path d="M108.8368158360334,-135.2729467763838L138.36160852597212,-104.03064904880632L128.2720396265194,-120.12059973695457z" style="fill:rgb(214,211,169)"/><path d="M-118.93689697812415,-128.6121304543422L-97.93179590710454,-140.21141660838325L-107.90038433892693,-138.52131603656954z" style="fill:rgb(52,222,167)"/><path d="M-155.9059218937913,-79.01644286028694L-169.93658412097147,-43.63173941648766L-159.71252716752963,-65.09823067958635z" style="fill:rgb(12,171,159)"/><path d="M-53.37964512611241,-167.31568170388041L-49.390020304351516,-162.9753114851174L-38.85348873331217,-170.91226450666008z" style="fill:rgb(92,243,167)"/><path d="M-19.175374864587194,175.073283276153L-6.745922702228778,171.007635176471L-33.9195498853471,170.47365813479948z" style="fill:rgb(117,5,163)"/><path d="M143.16878241561733,102.00247440636674L161.1275333458959,66.38253649063172L146.8535385077641,88.999202750273z" style="fill:rgb(234,67,161)"/><path d="M1.0775621710463947,-171.17254283258367L7.174479694629732,-175.69688273626306L-11.25271853788878,-172.90394086927338z" style="fill:rgb(131,249,164)"/><path d="M-156.09492922325902,79.71982565057002L-130.80364925446565,116.35949945593167L-142.373083782068,95.47905845031627z" style="fill:rgb(25,58,161)"/><path d="M138.36160852597212,-104.03064904880632L159.71252716752957,-65.09823067958645L153.728722079639,-84.85734132908095z" style="fill:rgb(231,186,171)"/><path d="M-130.80364925446565,116.35949945593167L-97.2254007055199,145.71329461257218L-112.0442653226919,129.41949483130793z" style="fill:rgb(46,34,161)"/><path d="M-67.89950364701275,-162.12487007252184L-79.75880533235251,-152.1510263406935L-69.78949035528272,-156.82801313941118z" style="fill:rgb(74,237,163)"/><path d="M-79.75880533235251,-152.1510263406935L-95.50032628034083,-147.54896807856338L-89.22313881782786,-146.56384083738354z" style="fill:rgb(66,233,164)"/><path d="M21.897947024544976,167.03240718715386L5.3634736029384475,175.60249841072147L31.13363424450017,172.0761800699719z" style="fill:rgb(136,7,170)"/><path d="M-128.3099939057578,-118.0592255862936L-105.64869864362522,-133.25729979461573L-118.93689697812415,-128.6121304543422z" style="fill:rgb(46,215,171)"/><path d="M59.74670035325583,-165.16222596444916L48.692748713354135,-162.31214025545822L73.9413059378634,-157.1726267806702z" style="fill:rgb(166,241,168)"/><path d="M170.37671222516792,43.46824728463617L161.19636921668226,48.286175735710216L161.1275333458959,66.38253649063172z" style="fill:rgb(243,95,169)"/><path d="M-38.85348873331217,-170.91226450666008L-39.50185611426229,-164.26529505442699L-24.687280678360434,-172.8020557946113z" style="fill:rgb(101,244,170)"/><path d="M48.692748713354135,-162.31214025545822L59.74670035325583,-165.16222596444916L36.89865247932941,-169.07942509765525z" style="fill:rgb(166,241,168)"/><path d="M-53.37964512611241,-167.31568170388041L-69.78949035528272,-156.82801313941118L-59.57685366842519,-160.47021524455718z" style="fill:rgb(83,241,165)"/><path d="M-89.22313881782786,-146.56384083738354L-107.90038433892693,-138.52131603656954L-97.93179590710454,-140.21141660838325z" style="fill:rgb(58,228,165)"/><path d="M-142.373083782068,95.47905845031627L-162.86786004968076,55.850005184538276L-156.09492922325902,79.71982565057002z" style="fill:rgb(21,74,174)"/><path d="M161.19636921668226,48.286175735710216L170.37671222516792,43.46824728463617L171.11657437206358,24.002703428477847z" style="fill:rgb(243,95,169)"/><path d="M127.93414308499246,110.39940888605118L105.6310318279382,138.62318476368176L126.17643217755109,121.29956672438215z" style="fill:rgb(208,40,174)"/><path d="M-49.390020304351516,-162.9753114851174L-53.37964512611241,-167.31568170388041L-59.57685366842519,-160.47021524455718z" style="fill:rgb(92,243,167)"/><path d="M-175.5693695855817,-3.4403810964077133L-167.81111229797708,-12.581431088121668L-170.8332405238438,-27.59657848251836z" style="fill:rgb(7,132,170)"/><path d="M-135.74344142771528,-107.12290033876386L-155.9059218937913,-79.01644286028694L-140.9911894179847,-96.08460899311089z" style="fill:rgb(25,193,166)"/><path d="M-48.30866886503864,160.03275117391837L-58.61644265335913,165.60975198504752L-33.9195498853471,170.47365813479948z" style="fill:rgb(89,14,172)"/><path d="M-160.32853628861665,-51.724352941276244L-169.93658412097147,-43.63173941648766L-170.8332405238438,-27.59657848251836z" style="fill:rgb(12,159,171)"/><path d="M-167.81111229797708,-12.581431088121668L-175.5693695855817,-3.4403810964077133L-172.303511872199,13.734938192666542z" style="fill:rgb(7,132,170)"/><path d="M-74.58012219535232,154.9788546217442L-112.0442653226919,129.41949483130793L-97.2254007055199,145.71329461257218z" style="fill:rgb(62,28,176)"/><path d="M-159.71252716752963,-65.09823067958635L-140.9911894179847,-96.08460899311089L-155.9059218937913,-79.01644286028694z" style="fill:rgb(23,183,174)"/><path d="M-169.93658412097147,-43.63173941648766L-160.32853628861665,-51.724352941276244L-159.71252716752963,-65.09823067958635z" style="fill:rgb(12,159,171)"/><path d="M-112.0442653226919,129.41949483130793L-142.373083782068,95.47905845031627L-130.80364925446565,116.35949945593167z" style="fill:rgb(39,49,176)"/><path d="M22.90735850019112,-173.55113310080853L11.936529784581976,-167.60352873970055L36.89865247932941,-169.07942509765525z" style="fill:rgb(140,246,172)"/><path d="M-171.18756395122634,38.718286435894136L-164.5280989796016,29.28671818983467L-172.303511872199,13.734938192666542z" style="fill:rgb(10,103,172)"/><path d="M-97.93179590710454,-140.21141660838325L-118.93689697812415,-128.6121304543422L-105.64869864362522,-133.25729979461573z" style="fill:rgb(52,222,167)"/><path d="M108.8368158360334,-135.2729467763838L73.9413059378634,-157.1726267806702L85.14402663266289,-146.554735133046z" style="fill:rgb(191,230,167)"/><path d="M50.87044111832647,158.59188145691584L31.13363424450017,172.0761800699719L57.13126870983666,164.5390963693285z" style="fill:rgb(155,12,175)"/><path d="M175.50015646122927,0.4210409071365834L166.2503475345958,2.850117028914335L171.11657437206358,24.002703428477847z" style="fill:rgb(246,126,173)"/><path d="M5.3634736029384475,175.60249841072147L21.897947024544976,167.03240718715386L-6.745922702228778,171.007635176471z" style="fill:rgb(136,7,170)"/><path d="M-164.5280989796016,29.28671818983467L-171.18756395122634,38.718286435894136L-162.86786004968076,55.850005184538276z" style="fill:rgb(10,103,172)"/><path d="M-58.61644265335913,165.60975198504752L-48.30866886503864,160.03275117391837L-74.58012219535232,154.9788546217442z" style="fill:rgb(89,14,172)"/><path d="M-135.74344142771528,-107.12290033876386L-112.15637262566219,-125.88183190572083L-128.3099939057578,-118.0592255862936z" style="fill:rgb(41,208,176)"/><path d="M160.45346308777036,-43.02653427082833L169.93658412097147,-43.63173941648777L159.71252716752957,-65.09823067958645z" style="fill:rgb(242,157,173)"/><path d="M-24.687280678360434,-172.8020557946113L-30.184751193043663,-164.2890344005153L-11.25271853788878,-172.90394086927338z" style="fill:rgb(109,244,175)"/><path d="M166.2503475345958,2.850117028914335L175.50015646122927,0.4210409071365834L170.89027786681734,-21.202809683320485z" style="fill:rgb(246,126,173)"/><path d="M126.17643217755109,121.29956672438215L146.8535385077641,88.999202750273L127.93414308499246,110.39940888605118z" style="fill:rgb(222,53,169)"/><path d="M-39.50185611426229,-164.26529505442699L-38.85348873331217,-170.91226450666008L-49.390020304351516,-162.9753114851174z" style="fill:rgb(101,244,170)"/><path d="M169.93658412097147,-43.63173941648777L160.45346308777036,-43.02653427082833L170.89027786681734,-21.202809683320485z" style="fill:rgb(242,157,173)"/><path d="M105.01190117388717,129.66934996381943L82.30580333736773,153.24005184715546L105.6310318279382,138.62318476368176z" style="fill:rgb(191,29,177)"/><path d="M11.936529784581976,-167.60352873970055L22.90735850019112,-173.55113310080853L1.0775621710463947,-171.17254283258367z" style="fill:rgb(140,246,172)"/><path d="M138.36160852597212,-104.03064904880632L108.8368158360334,-135.2729467763838L117.90359994998623,-120.49379897727087z" style="fill:rgb(214,211,169)"/><path d="M78.96811550207875,145.96772860837834L57.13126870983666,164.5390963693285L82.30580333736773,153.24005184715546z" style="fill:rgb(173,20,178)"/><path d="M-105.64869864362522,-133.25729979461573L-128.3099939057578,-118.0592255862936L-112.15637262566219,-125.88183190572083z" style="fill:rgb(46,215,171)"/><path d="M159.71252716752957,-65.09823067958645L138.36160852597212,-104.03064904880632L143.84589908261248,-85.24439150387921z" style="fill:rgb(231,186,171)"/><path d="M85.14402663266289,-146.554735133046L117.90359994998623,-120.49379897727087L108.8368158360334,-135.2729467763838z" style="fill:rgb(197,219,181)"/><path d="M-30.184751193043663,-164.2890344005153L-24.687280678360434,-172.8020557946113L-39.50185611426229,-164.26529505442699z" style="fill:rgb(109,244,175)"/><path d="M31.13363424450017,172.0761800699719L50.87044111832647,158.59188145691584L21.897947024544976,167.03240718715386z" style="fill:rgb(155,12,175)"/><path d="M161.1275333458959,66.38253649063172L145.85421976828403,72.34727589545676L146.8535385077641,88.999202750273z" style="fill:rgb(233,80,180)"/><path d="M105.6310318279382,138.62318476368176L127.93414308499246,110.39940888605118L105.01190117388717,129.66934996381943z" style="fill:rgb(208,40,174)"/><path d="M-140.9911894179847,-96.08460899311089L-117.260451195783,-118.28004606767554L-135.74344142771528,-107.12290033876386z" style="fill:rgb(38,201,181)"/><path d="M-140.9911894179847,-96.08460899311089L-159.71252716752963,-65.09823067958635L-143.84589908261253,-85.24439150387911z" style="fill:rgb(23,183,174)"/><path d="M-11.25271853788878,-172.90394086927338L-21.70565500834202,-163.02473656375452L1.0775621710463947,-171.17254283258367z" style="fill:rgb(117,243,180)"/><path d="M117.90359994998623,-120.49379897727087L143.84589908261248,-85.24439150387921L138.36160852597212,-104.03064904880632z" style="fill:rgb(217,198,183)"/><path d="M-162.86786004968076,55.850005184538276L-142.373083782068,95.47905845031627L-149.68240611899395,70.65035885474892z" style="fill:rgb(21,74,174)"/><path d="M73.9413059378634,-157.1726267806702L57.85378432459215,-153.34490047734354L85.14402663266289,-146.554735133046zM57.85378432459215,-153.34490047734354L73.9413059378634,-157.1726267806702L48.692748713354135,-162.31214025545822z" style="fill:rgb(173,234,180)"/><path d="M-112.15637262566219,-125.88183190572083L-135.74344142771528,-107.12290033876386L-117.260451195783,-118.28004606767554z" style="fill:rgb(41,208,176)"/><path d="M-19.282517597339787,160.47033733279568L-33.9195498853471,170.47365813479948L-6.745922702228778,171.007635176471z" style="fill:rgb(108,13,182)"/><path d="M-112.0442653226919,129.41949483130793L-74.58012219535232,154.9788546217442L-88.81995977232313,138.72652309419288z" style="fill:rgb(62,28,176)"/><path d="M57.13126870983666,164.5390963693285L78.96811550207875,145.96772860837834L50.87044111832647,158.59188145691584z" style="fill:rgb(173,20,178)"/><path d="M82.30580333736773,153.24005184715546L105.01190117388717,129.66934996381943L78.96811550207875,145.96772860837834z" style="fill:rgb(191,29,177)"/><path d="M36.89865247932941,-169.07942509765525L20.971752372997813,-162.23938282815095L48.692748713354135,-162.31214025545822z" style="fill:rgb(148,241,181)"/><path d="M145.85421976828403,72.34727589545676L161.1275333458959,66.38253649063172L161.19636921668226,48.286175735710216z" style="fill:rgb(233,80,180)"/><path d="M-142.373083782068,95.47905845031627L-112.0442653226919,129.41949483130793L-123.77329014601533,108.15952416459292z" style="fill:rgb(39,49,176)"/><path d="M-74.67127586545386,-143.55594206627413L-69.78949035528272,-156.82801313941118L-79.75880533235251,-152.1510263406935z" style="fill:rgb(77,229,184)"/><path d="M-79.60892819634553,-140.63593402436143L-79.75880533235251,-152.1510263406935L-89.22313881782786,-146.56384083738354z" style="fill:rgb(72,227,184)"/><path d="M-21.70565500834202,-163.02473656375452L-11.25271853788878,-172.90394086927338L-30.184751193043663,-164.2890344005153z" style="fill:rgb(117,243,180)"/><path d="M20.971752372997813,-162.23938282815095L36.89865247932941,-169.07942509765525L11.936529784581976,-167.60352873970055z" style="fill:rgb(148,241,181)"/><path d="M-69.46562082864524,-145.99504600814524L-59.57685366842519,-160.47021524455718L-69.78949035528272,-156.82801313941118z" style="fill:rgb(82,231,185)"/><path d="M-97.93179590710454,-140.21141660838325L-79.60892819634553,-140.63593402436143L-89.22313881782786,-146.56384083738354z" style="fill:rgb(67,223,185)"/><path d="M-170.8332405238438,-27.59657848251836L-157.59550715312466,-39.30881201004949L-160.32853628861665,-51.724352941276244zM-157.59550715312466,-39.30881201004949L-170.8332405238438,-27.59657848251836L-167.81111229797708,-12.581431088121668z" style="fill:rgb(14,149,182)"/><path d="M-144.1493095013725,-74.91644356950559L-159.71252716752963,-65.09823067958635L-160.32853628861665,-51.724352941276244z" style="fill:rgb(23,174,183)"/><path d="M-33.9195498853471,170.47365813479948L-19.282517597339787,160.47033733279568L-48.30866886503864,160.03275117391837z" style="fill:rgb(108,13,182)"/><path d="M145.85421976828403,72.34727589545676L127.93414308499246,110.39940888605118L146.8535385077641,88.999202750273z" style="fill:rgb(220,65,188)"/><path d="M-172.303511872199,13.734938192666542L-160.75046025922683,0.8994860233753426L-167.81111229797708,-12.581431088121668z" style="fill:rgb(13,121,184)"/><path d="M-59.57685366842519,-160.47021524455718L-58.84176372570135,-149.16729707238594L-49.390020304351516,-162.9753114851174z" style="fill:rgb(88,233,186)"/><path d="M-105.64869864362522,-133.25729979461573L-84.1385569792789,-137.31696492390893L-97.93179590710454,-140.21141660838325z" style="fill:rgb(63,220,187)"/><path d="M-159.71252716752963,-65.09823067958635L-144.1493095013725,-74.91644356950559L-143.84589908261253,-85.24439150387911z" style="fill:rgb(23,174,183)"/><path d="M-160.75046025922683,0.8994860233753426L-172.303511872199,13.734938192666542L-164.5280989796016,29.28671818983467z" style="fill:rgb(13,121,184)"/><path d="M-143.84589908261253,-85.24439150387911L-120.79496522339699,-110.65896744884643L-140.9911894179847,-96.08460899311089z" style="fill:rgb(37,194,187)"/><path d="M171.11657437206358,24.002703428477847L155.8634550600935,27.704890582806563L161.19636921668226,48.286175735710216z" style="fill:rgb(239,110,185)"/><path d="M1.0775621710463947,-171.17254283258367L-14.320091050792938,-160.48292016870312L11.936529784581976,-167.60352873970055z" style="fill:rgb(123,240,186)"/><path d="M-117.260451195783,-118.28004606767554L-140.9911894179847,-96.08460899311089L-120.79496522339699,-110.65896744884643z" style="fill:rgb(38,201,181)"/><path d="M117.90359994998623,-120.49379897727087L85.14402663266289,-146.554735133046L92.85580398254505,-133.48798575547298z" style="fill:rgb(197,219,181)"/><path d="M-88.81995977232313,138.72652309419288L-123.77329014601533,108.15952416459292L-112.0442653226919,129.41949483130793z" style="fill:rgb(55,43,190)"/><path d="M144.23844610153552,-64.22840502469333L159.71252716752957,-65.09823067958645L143.84589908261248,-85.24439150387921z" style="fill:rgb(231,171,186)"/><path d="M-49.390020304351516,-162.9753114851174L-53.72536884257918,-149.80566327860356L-39.50185611426229,-164.26529505442699z" style="fill:rgb(93,234,188)"/><path d="M-112.15637262566219,-125.88183190572083L-88.13022789271584,-133.69189264558503L-105.64869864362522,-133.25729979461573z" style="fill:rgb(59,216,189)"/><path d="M155.8634550600935,27.704890582806563L171.11657437206358,24.002703428477847L166.2503475345958,2.850117028914335z" style="fill:rgb(239,110,185)"/><path d="M-162.86786004968076,55.850005184538276L-152.21910071564454,42.61066962676825L-164.5280989796016,29.28671818983467z" style="fill:rgb(20,93,187)"/><path d="M159.71252716752957,-65.09823067958645L144.23844610153552,-64.22840502469333L160.45346308777036,-43.02653427082833z" style="fill:rgb(231,171,186)"/><path d="M-14.320091050792938,-160.48292016870312L1.0775621710463947,-171.17254283258367L-21.70565500834202,-163.02473656375452z" style="fill:rgb(123,240,186)"/><path d="M11.412848984342563,156.09273772969917L-6.745922702228778,171.007635176471L21.897947024544976,167.03240718715386z" style="fill:rgb(128,16,189)"/><path d="M170.89027786681734,-21.202809683320485L155.58779362928976,-19.294865201925784L166.2503475345958,2.850117028914335z" style="fill:rgb(239,141,187)"/><path d="M-152.21910071564454,42.61066962676825L-162.86786004968076,55.850005184538276L-149.68240611899395,70.65035885474892z" style="fill:rgb(20,93,187)"/><path d="M-61.76898941195384,143.7051578185645L-74.58012219535232,154.9788546217442L-48.30866886503864,160.03275117391837z" style="fill:rgb(80,25,188)"/><path d="M155.58779362928976,-19.294865201925784L170.89027786681734,-21.202809683320485L160.45346308777036,-43.02653427082833z" style="fill:rgb(239,141,187)"/><path d="M-79.75880533235251,-152.1510263406935L-79.60892819634553,-140.63593402436143L-74.67127586545386,-143.55594206627413z" style="fill:rgb(72,227,184)"/><path d="M-69.78949035528272,-156.82801313941118L-74.67127586545386,-143.55594206627413L-69.46562082864524,-145.99504600814524z" style="fill:rgb(77,229,184)"/><path d="M143.84589908261248,-85.24439150387921L117.90359994998623,-120.49379897727087L122.62812304696293,-103.2342293598962z" style="fill:rgb(217,198,183)"/><path d="M-59.57685366842519,-160.47021524455718L-69.46562082864524,-145.99504600814524L-64.13888677776512,-147.88389394569646z" style="fill:rgb(82,231,185)"/><path d="M-74.58012219535232,154.9788546217442L-61.76898941195384,143.7051578185645L-88.81995977232313,138.72652309419288z" style="fill:rgb(80,25,188)"/><path d="M-79.60892819634553,-140.63593402436143L-97.93179590710454,-140.21141660838325L-84.1385569792789,-137.31696492390893z" style="fill:rgb(67,223,185)"/><path d="M-39.50185611426229,-164.26529505442699L-48.93782650813878,-149.77621233091614L-30.184751193043663,-164.2890344005153z" style="fill:rgb(98,233,191)"/><path d="M-117.260451195783,-118.28004606767554L-91.46707516987027,-129.86250594891592L-112.15637262566219,-125.88183190572083z" style="fill:rgb(57,211,192)"/><path d="M-142.373083782068,95.47905845031627L-131.77336624046367,82.45666870516075L-149.68240611899395,70.65035885474892z" style="fill:rgb(34,66,189)"/><path d="M-58.84176372570135,-149.16729707238594L-59.57685366842519,-160.47021524455718L-64.13888677776512,-147.88389394569646z" style="fill:rgb(88,233,186)"/><path d="M125.49266359352244,95.19373839880502L105.01190117388717,129.66934996381943L127.93414308499246,110.39940888605118z" style="fill:rgb(205,51,194)"/><path d="M-131.77336624046367,82.45666870516075L-142.373083782068,95.47905845031627L-123.77329014601533,108.15952416459292z" style="fill:rgb(34,66,189)"/><path d="M-84.1385569792789,-137.31696492390893L-105.64869864362522,-133.25729979461573L-88.13022789271584,-133.69189264558503z" style="fill:rgb(63,220,187)"/><path d="M48.692748713354135,-162.31214025545822L27.857130238245528,-155.1752681930442L57.85378432459215,-153.34490047734354zM27.857130238245528,-155.1752681930442L48.692748713354135,-162.31214025545822L20.971752372997813,-162.23938282815095z" style="fill:rgb(154,234,190)"/><path d="M92.85580398254505,-133.48798575547298L122.62812304696293,-103.2342293598962L117.90359994998623,-120.49379897727087z" style="fill:rgb(200,207,194)"/><path d="M-53.72536884257918,-149.80566327860356L-49.390020304351516,-162.9753114851174L-58.84176372570135,-149.16729707238594z" style="fill:rgb(93,234,188)"/><path d="M-120.79496522339699,-110.65896744884643L-143.84589908261253,-85.24439150387911L-122.62812304696298,-103.2342293598961z" style="fill:rgb(37,194,187)"/><path d="M63.98465557040628,-142.3483456570506L85.14402663266289,-146.554735133046L57.85378432459215,-153.34490047734354z" style="fill:rgb(178,224,191)"/><path d="M-6.745922702228778,171.007635176471L11.412848984342563,156.09273772969917L-19.282517597339787,160.47033733279568z" style="fill:rgb(128,16,189)"/><path d="M127.93414308499246,110.39940888605118L145.85421976828403,72.34727589545676L125.49266359352244,95.19373839880502z" style="fill:rgb(220,65,188)"/><path d="M85.14402663266289,-146.554735133046L63.98465557040628,-142.3483456570506L92.85580398254505,-133.48798575547298z" style="fill:rgb(178,224,191)"/><path d="M42.53456351570807,146.9461606618642L21.897947024544976,167.03240718715386L50.87044111832647,158.59188145691584z" style="fill:rgb(148,21,195)"/><path d="M11.936529784581976,-167.60352873970055L-8.265100659648759,-156.70894572846444L20.971752372997813,-162.23938282815095z" style="fill:rgb(129,236,193)"/><path d="M-88.13022789271584,-133.69189264558503L-112.15637262566219,-125.88183190572083L-91.46707516987027,-129.86250594891592z" style="fill:rgb(59,216,189)"/><path d="M-160.32853628861665,-51.724352941276244L-141.80404907139226,-65.42239612368736L-144.1493095013725,-74.91644356950559z" style="fill:rgb(25,166,193)"/><path d="M-30.184751193043663,-164.2890344005153L-44.620621667061044,-149.07405548645218L-21.70565500834202,-163.02473656375452z" style="fill:rgb(103,233,194)"/><path d="M-141.80404907139226,-65.42239612368736L-160.32853628861665,-51.724352941276244L-157.59550715312466,-39.30881201004949z" style="fill:rgb(25,166,193)"/><path d="M-120.79496522339699,-110.65896744884643L-94.04834401953258,-125.93744800304033L-117.260451195783,-118.28004606767554z" style="fill:rgb(55,207,195)"/><path d="M100.80812133717218,115.83117126577021L78.96811550207875,145.96772860837834L105.01190117388717,129.66934996381943z" style="fill:rgb(187,39,197)"/><path d="M-8.265100659648759,-156.70894572846444L11.936529784581976,-167.60352873970055L-14.320091050792938,-160.48292016870312z" style="fill:rgb(129,236,193)"/><path d="M-48.93782650813878,-149.77621233091614L-39.50185611426229,-164.26529505442699L-53.72536884257918,-149.80566327860356z" style="fill:rgb(98,233,191)"/><path d="M-122.66875535118768,-96.2255636452965L-143.84589908261253,-85.24439150387911L-144.1493095013725,-74.91644356950559z" style="fill:rgb(37,187,194)"/><path d="M-167.81111229797708,-12.581431088121668L-151.4429897315756,-28.27485342849282L-157.59550715312466,-39.30881201004949z" style="fill:rgb(19,140,194)"/><path d="M72.76464741102878,133.33908226027637L50.87044111832647,158.59188145691584L78.96811550207875,145.96772860837834z" style="fill:rgb(168,29,197)"/><path d="M-151.4429897315756,-28.27485342849282L-167.81111229797708,-12.581431088121668L-160.75046025922683,0.8994860233753426z" style="fill:rgb(19,140,194)"/><path d="M-143.84589908261253,-85.24439150387911L-122.66875535118768,-96.2255636452965L-122.62812304696298,-103.2342293598961z" style="fill:rgb(37,187,194)"/><path d="M-123.77329014601533,108.15952416459292L-88.81995977232313,138.72652309419288L-100.66991210951919,117.10032066214667z" style="fill:rgb(55,43,190)"/><path d="M-91.46707516987027,-129.86250594891592L-117.260451195783,-118.28004606767554L-94.04834401953258,-125.93744800304033z" style="fill:rgb(57,211,192)"/><path d="M161.19636921668226,48.286175735710216L139.84465910341223,52.41247012992012L145.85421976828403,72.34727589545676z" style="fill:rgb(229,93,196)"/><path d="M-44.620621667061044,-149.07405548645218L-30.184751193043663,-164.2890344005153L-48.93782650813878,-149.77621233091614z" style="fill:rgb(103,233,194)"/><path d="M-164.5280989796016,29.28671818983467L-149.6571790433241,12.327288223089235L-160.75046025922683,0.8994860233753426z" style="fill:rgb(22,112,197)"/><path d="M-21.70565500834202,-163.02473656375452L-40.904808096856996,-147.71296608268565L-14.320091050792938,-160.48292016870312z" style="fill:rgb(107,231,198)"/><path d="M21.897947024544976,167.03240718715386L42.53456351570807,146.9461606618642L11.412848984342563,156.09273772969917z" style="fill:rgb(148,21,195)"/><path d="M-122.62812304696298,-103.2342293598961L-95.79236166065611,-122.0297977604783L-120.79496522339699,-110.65896744884643z" style="fill:rgb(54,203,199)"/><path d="M105.01190117388717,129.66934996381943L125.49266359352244,95.19373839880502L100.80812133717218,115.83117126577021z" style="fill:rgb(205,51,194)"/><path d="M122.58644335340306,-83.92890296705004L143.84589908261248,-85.24439150387921L122.62812304696293,-103.2342293598962z" style="fill:rgb(217,183,198)"/><path d="M-31.786982557013378,143.9381051493662L-48.30866886503864,160.03275117391837L-19.282517597339787,160.47033733279568z" style="fill:rgb(100,25,198)"/><path d="M139.84465910341223,52.41247012992012L161.19636921668226,48.286175735710216L155.8634550600935,27.704890582806563z" style="fill:rgb(229,93,196)"/><path d="M-149.6571790433241,12.327288223089235L-164.5280989796016,29.28671818983467L-152.21910071564454,42.61066962676825z" style="fill:rgb(22,112,197)"/><path d="M-94.04834401953258,-125.93744800304033L-120.79496522339699,-110.65896744884643L-95.79236166065611,-122.0297977604783z" style="fill:rgb(55,207,195)"/><path d="M143.84589908261248,-85.24439150387921L122.58644335340306,-83.92890296705004L144.23844610153552,-64.22840502469333z" style="fill:rgb(217,183,198)"/><path d="M122.62812304696293,-103.2342293598962L92.85580398254505,-133.48798575547298L96.6393000866244,-118.25435725672028z" style="fill:rgb(200,207,194)"/><path d="M-40.904808096856996,-147.71296608268565L-21.70565500834202,-163.02473656375452L-44.620621667061044,-149.07405548645218z" style="fill:rgb(107,231,198)"/><path d="M20.971752372997813,-162.23938282815095L-3.7510894068151157,-151.78523143871374L27.857130238245528,-155.1752681930442z" style="fill:rgb(134,232,199)"/><path d="M-48.30866886503864,160.03275117391837L-31.786982557013378,143.9381051493662L-61.76898941195384,143.7051578185645z" style="fill:rgb(100,25,198)"/><path d="M-3.7510894068151157,-151.78523143871374L20.971752372997813,-162.23938282815095L-8.265100659648759,-156.70894572846444z" style="fill:rgb(134,232,199)"/><path d="M50.87044111832647,158.59188145691584L72.76464741102878,133.33908226027637L42.53456351570807,146.9461606618642z" style="fill:rgb(168,29,197)"/><path d="M32.30725536418886,-146.56401357563027L57.85378432459215,-153.34490047734354L27.857130238245528,-155.1752681930442z" style="fill:rgb(158,227,200)"/><path d="M78.96811550207875,145.96772860837834L100.80812133717218,115.83117126577021L72.76464741102878,133.33908226027637z" style="fill:rgb(187,39,197)"/><path d="M166.2503475345958,2.850117028914335L144.9687181954625,5.288620007824585L155.8634550600935,27.704890582806563z" style="fill:rgb(231,124,200)"/><path d="M139.20762576116888,-41.602847969093986L160.45346308777036,-43.02653427082833L144.23844610153552,-64.22840502469333z" style="fill:rgb(228,155,200)"/><path d="M-149.68240611899395,70.65035885474892L-135.5254658121272,53.11491999095372L-152.21910071564454,42.61066962676825z" style="fill:rgb(32,85,201)"/><path d="M57.85378432459215,-153.34490047734354L32.30725536418886,-146.56401357563027L63.98465557040628,-142.3483456570506z" style="fill:rgb(158,227,200)"/><path d="M-66.75048576124294,-129.57603578819175L-69.46562082864524,-145.99504600814524L-74.67127586545386,-143.55594206627413z" style="fill:rgb(81,218,203)"/><path d="M-66.75048576124294,-129.57603578819175L-74.67127586545386,-143.55594206627413L-79.60892819634553,-140.63593402436143z" style="fill:rgb(79,217,203)"/><path d="M160.45346308777036,-43.02653427082833L139.20762576116888,-41.602847969093986L155.58779362928976,-19.294865201925784z" style="fill:rgb(228,155,200)"/><path d="M144.9687181954625,5.288620007824585L166.2503475345958,2.850117028914335L155.58779362928976,-19.294865201925784z" style="fill:rgb(231,124,200)"/><path d="M-64.13888677776512,-147.88389394569646L-69.46562082864524,-145.99504600814524L-66.75048576124294,-129.57603578819175z" style="fill:rgb(83,219,203)"/><path d="M-66.75048576124294,-129.57603578819175L-79.60892819634553,-140.63593402436143L-84.1385569792789,-137.31696492390893z" style="fill:rgb(78,216,203)"/><path d="M-120.87276184974755,-89.85125667667022L-144.1493095013725,-74.91644356950559L-141.80404907139226,-65.42239612368736zM-144.1493095013725,-74.91644356950559L-120.87276184974755,-89.85125667667022L-122.66875535118768,-96.2255636452965z" style="fill:rgb(38,181,201)"/><path d="M-14.320091050792938,-160.48292016870312L-37.90713298927223,-145.72583316355278L-8.265100659648759,-156.70894572846444z" style="fill:rgb(110,229,202)"/><path d="M-58.84176372570135,-149.16729707238594L-64.13888677776512,-147.88389394569646L-66.75048576124294,-129.57603578819175z" style="fill:rgb(84,219,204)"/><path d="M-135.5254658121272,53.11491999095372L-149.68240611899395,70.65035885474892L-131.77336624046367,82.45666870516075z" style="fill:rgb(32,85,201)"/><path d="M-66.75048576124294,-129.57603578819175L-84.1385569792789,-137.31696492390893L-88.13022789271584,-133.69189264558503z" style="fill:rgb(76,215,204)"/><path d="M-95.79236166065611,-122.0297977604783L-122.62812304696298,-103.2342293598961L-96.63930008662447,-118.25435725672023z" style="fill:rgb(54,203,199)"/><path d="M-157.59550715312466,-39.30881201004949L-136.78616255664934,-57.08197373302209L-141.80404907139226,-65.42239612368736z" style="fill:rgb(29,158,202)"/><path d="M-53.72536884257918,-149.80566327860356L-58.84176372570135,-149.16729707238594L-66.75048576124294,-129.57603578819175z" style="fill:rgb(86,220,204)"/><path d="M-96.55374086706716,-114.72468863832242L-122.62812304696298,-103.2342293598961L-122.66875535118768,-96.2255636452965z" style="fill:rgb(54,199,203)"/><path d="M66.75048576124286,-129.57603578819177L92.85580398254505,-133.48798575547298L63.98465557040628,-142.3483456570506z" style="fill:rgb(181,214,203)"/><path d="M-73.69399984991459,121.73959714392512L-88.81995977232313,138.72652309419288L-61.76898941195384,143.7051578185645z" style="fill:rgb(73,40,203)"/><path d="M-66.75048576124294,-129.57603578819175L-88.13022789271584,-133.69189264558503L-91.46707516987027,-129.86250594891592z" style="fill:rgb(75,214,205)"/><path d="M-136.78616255664934,-57.08197373302209L-157.59550715312466,-39.30881201004949L-151.4429897315756,-28.27485342849282z" style="fill:rgb(29,158,202)"/><path d="M-37.90713298927223,-145.72583316355278L-14.320091050792938,-160.48292016870312L-40.904808096856996,-147.71296608268565z" style="fill:rgb(110,229,202)"/><path d="M-123.77329014601533,108.15952416459292L-109.50505215074298,90.65337148820117L-131.77336624046367,82.45666870516075z" style="fill:rgb(49,60,203)"/><path d="M-88.81995977232313,138.72652309419288L-73.69399984991459,121.73959714392512L-100.66991210951919,117.10032066214667z" style="fill:rgb(73,40,203)"/><path d="M145.85421976828403,72.34727589545676L118.61286197757309,75.94681417657677L125.49266359352244,95.19373839880502z" style="fill:rgb(215,78,205)"/><path d="M-109.50505215074298,90.65337148820117L-123.77329014601533,108.15952416459292L-100.66991210951919,117.10032066214667z" style="fill:rgb(49,60,203)"/><path d="M-48.93782650813878,-149.77621233091614L-53.72536884257918,-149.80566327860356L-66.75048576124294,-129.57603578819175z" style="fill:rgb(88,220,205)"/><path d="M-122.62812304696298,-103.2342293598961L-96.55374086706716,-114.72468863832242L-96.63930008662447,-118.25435725672023z" style="fill:rgb(54,199,203)"/><path d="M92.85580398254505,-133.48798575547298L66.75048576124286,-129.57603578819177L96.6393000866244,-118.25435725672028z" style="fill:rgb(181,214,203)"/><path d="M-66.75048576124294,-129.57603578819175L-91.46707516987027,-129.86250594891592L-94.04834401953258,-125.93744800304033z" style="fill:rgb(74,212,206)"/><path d="M3.9810442100699545e-14,139.22233158266627L-19.282517597339787,160.47033733279568L11.412848984342563,156.09273772969917z" style="fill:rgb(120,28,206)"/><path d="M-44.620621667061044,-149.07405548645218L-48.93782650813878,-149.77621233091614L-66.75048576124294,-129.57603578819175z" style="fill:rgb(90,219,206)"/><path d="M-160.75046025922683,0.8994860233753426L-141.90859177887998,-19.039319629500298L-151.4429897315756,-28.27485342849282z" style="fill:rgb(27,132,206)"/><path d="M-66.75048576124294,-129.57603578819175L-94.04834401953258,-125.93744800304033L-95.79236166065611,-122.0297977604783z" style="fill:rgb(73,211,207)"/><path d="M-8.265100659648759,-156.70894572846444L-35.72607761971856,-143.16464951328743L-3.7510894068151157,-151.78523143871374z" style="fill:rgb(113,226,206)"/><path d="M-0.9528225169228431,-145.8326261990172L27.857130238245528,-155.1752681930442L-3.7510894068151157,-151.78523143871374z" style="fill:rgb(137,226,206)"/><path d="M118.61286197757309,75.94681417657677L145.85421976828403,72.34727589545676L139.84465910341223,52.41247012992012z" style="fill:rgb(215,78,205)"/><path d="M-141.90859177887998,-19.039319629500298L-160.75046025922683,0.8994860233753426L-149.6571790433241,12.327288223089235z" style="fill:rgb(27,132,206)"/><path d="M-35.72607761971856,-143.16464951328743L-8.265100659648759,-156.70894572846444L-37.90713298927223,-145.72583316355278z" style="fill:rgb(113,226,206)"/><path d="M-40.904808096856996,-147.71296608268565L-44.620621667061044,-149.07405548645218L-66.75048576124294,-129.57603578819175z" style="fill:rgb(91,219,208)"/><path d="M96.15424051746147,-101.24707482273494L122.62812304696293,-103.2342293598962L96.6393000866244,-118.25435725672028z" style="fill:rgb(200,194,207)"/><path d="M27.857130238245528,-155.1752681930442L-0.9528225169228431,-145.8326261990172L32.30725536418886,-146.56401357563027z" style="fill:rgb(137,226,206)"/><path d="M-66.75048576124294,-129.57603578819175L-95.79236166065611,-122.0297977604783L-96.63930008662447,-118.25435725672023z" style="fill:rgb(73,209,208)"/><path d="M-95.52688516027942,-111.54984568090481L-122.66875535118768,-96.2255636452965L-120.87276184974755,-89.85125667667022zM-122.66875535118768,-96.2255636452965L-95.52688516027942,-111.54984568090481L-96.55374086706716,-114.72468863832242z" style="fill:rgb(55,195,207)"/><path d="M-141.80404907139226,-65.42239612368736L-117.24936728020522,-84.3212306365161L-120.87276184974755,-89.85125667667022z" style="fill:rgb(41,176,208)"/><path d="M122.62812304696293,-103.2342293598962L96.15424051746147,-101.24707482273494L122.58644335340306,-83.92890296705004z" style="fill:rgb(200,194,207)"/><path d="M-19.282517597339787,160.47033733279568L3.9810442100699545e-14,139.22233158266627L-31.786982557013378,143.9381051493662z" style="fill:rgb(120,28,206)"/><path d="M-37.90713298927223,-145.72583316355278L-40.904808096856996,-147.71296608268565L-66.75048576124294,-129.57603578819175z" style="fill:rgb(92,218,209)"/><path d="M-117.24936728020522,-84.3212306365161L-141.80404907139226,-65.42239612368736L-136.78616255664934,-57.08197373302209z" style="fill:rgb(41,176,208)"/><path d="M-66.75048576124294,-129.57603578819175L-96.63930008662447,-118.25435725672023L-96.55374086706716,-114.72468863832242z" style="fill:rgb(73,208,209)"/><path d="M34.0939338890487,-136.61942744627612L63.98465557040628,-142.3483456570506L32.30725536418886,-146.56401357563027z" style="fill:rgb(160,219,209)"/><path d="M125.49266359352244,95.19373839880502L92.89816285104357,97.27380127063651L100.80812133717218,115.83117126577021z" style="fill:rgb(199,64,211)"/><path d="M-152.21910071564454,42.61066962676825L-134.68989744079997,21.2036646983832L-149.6571790433241,12.327288223089235z" style="fill:rgb(33,105,210)"/><path d="M32.294354987792815,129.61101327482518L11.412848984342563,156.09273772969917L42.53456351570807,146.9461606618642z" style="fill:rgb(141,33,212)"/><path d="M63.98465557040628,-142.3483456570506L34.0939338890487,-136.61942744627612L66.75048576124286,-129.57603578819177z" style="fill:rgb(160,219,209)"/><path d="M-35.72607761971856,-143.16464951328743L-37.90713298927223,-145.72583316355278L-66.75048576124294,-129.57603578819175z" style="fill:rgb(93,217,210)"/><path d="M-34.43805580629451,-140.09991114665553L-3.7510894068151157,-151.78523143871374L-35.72607761971856,-143.16464951328743z" style="fill:rgb(115,223,210)"/><path d="M155.8634550600935,27.704890582806563L128.7192740117146,29.787422793972365L139.84465910341223,52.41247012992012z" style="fill:rgb(221,108,211)"/><path d="M117.50250968788775,-63.148780256739464L144.23844610153552,-64.22840502469333L122.58644335340306,-83.92890296705004z" style="fill:rgb(214,169,211)"/><path d="M-66.75048576124294,-129.57603578819175L-96.55374086706716,-114.72468863832242L-95.52688516027942,-111.54984568090481z" style="fill:rgb(73,207,211)"/><path d="M-134.68989744079997,21.2036646983832L-152.21910071564454,42.61066962676825L-135.5254658121272,53.11491999095372z" style="fill:rgb(33,105,210)"/><path d="M-3.7510894068151157,-151.78523143871374L-34.43805580629451,-140.09991114665553L-0.9528225169228431,-145.8326261990172z" style="fill:rgb(115,223,210)"/><path d="M-151.4429897315756,-28.27485342849282L-129.15712214547426,-50.20078471415932L-136.78616255664934,-57.08197373302209z" style="fill:rgb(35,152,212)"/><path d="M92.89816285104357,97.27380127063651L72.76464741102878,133.33908226027637L100.80812133717218,115.83117126577021z" style="fill:rgb(181,51,214)"/><path d="M-120.87276184974755,-89.85125667667022L-93.57812129664606,-108.83089834779985L-95.52688516027942,-111.54984568090481z" style="fill:rgb(57,192,211)"/><path d="M144.23844610153552,-64.22840502469333L117.50250968788775,-63.148780256739464L139.20762576116888,-41.602847969093986z" style="fill:rgb(214,169,211)"/><path d="M66.75048576124286,-129.57603578819177L96.15424051746147,-101.24707482273494L96.6393000866244,-118.25435725672028z" style="fill:rgb(181,203,214)"/><path d="M128.7192740117146,29.787422793972365L155.8634550600935,27.704890582806563L144.9687181954625,5.288620007824585z" style="fill:rgb(221,108,211)"/><path d="M63.7141595192694,115.43161245360754L42.53456351570807,146.9461606618642L72.76464741102878,133.33908226027637z" style="fill:rgb(162,41,214)"/><path d="M-93.57812129664606,-108.83089834779985L-120.87276184974755,-89.85125667667022L-117.24936728020522,-84.3212306365161z" style="fill:rgb(57,192,211)"/><path d="M-34.43805580629451,-140.09991114665553L-35.72607761971856,-143.16464951328743L-66.75048576124294,-129.57603578819175z" style="fill:rgb(94,216,212)"/><path d="M-129.15712214547426,-50.20078471415932L-151.4429897315756,-28.27485342849282L-141.90859177887998,-19.039319629500298z" style="fill:rgb(35,152,212)"/><path d="M-43.73617615498452,121.67384002177978L-61.76898941195384,143.7051578185645L-31.786982557013378,143.9381051493662z" style="fill:rgb(92,40,213)"/><path d="M-66.75048576124294,-129.57603578819175L-95.52688516027942,-111.54984568090481L-93.57812129664606,-108.83089834779985z" style="fill:rgb(74,206,212)"/><path d="M-3.975412556270547e-14,-139.01034953040525L32.30725536418886,-146.56401357563027L-0.9528225169228431,-145.8326261990172z" style="fill:rgb(138,220,213)"/><path d="M92.89816285104357,97.27380127063651L125.49266359352244,95.19373839880502L118.61286197757309,75.94681417657677z" style="fill:rgb(199,64,211)"/><path d="M128.63228636686645,-18.134165293338647L155.58779362928976,-19.294865201925784L139.20762576116888,-41.602847969093986zM155.58779362928976,-19.294865201925784L128.63228636686645,-18.134165293338647L144.9687181954625,5.288620007824585z" style="fill:rgb(221,139,213)"/><path d="M-131.77336624046367,82.45666870516075L-114.79893735205789,60.25801277741037L-135.5254658121272,53.11491999095372z" style="fill:rgb(46,80,214)"/><path d="M11.412848984342563,156.09273772969917L32.294354987792815,129.61101327482518L3.7626157758518946e-14,139.22233158266627z" style="fill:rgb(141,33,212)"/><path d="M-61.76898941195384,143.7051578185645L-43.73617615498452,121.67384002177978L-73.69399984991459,121.73959714392512z" style="fill:rgb(92,40,213)"/><path d="M-34.09393388904879,-136.6194274462761L-0.9528225169228431,-145.8326261990172L-34.43805580629451,-140.09991114665553z" style="fill:rgb(116,219,215)"/><path d="M-34.09393388904879,-136.6194274462761L-34.43805580629451,-140.09991114665553L-66.75048576124294,-129.57603578819175z" style="fill:rgb(94,215,213)"/><path d="M32.30725536418886,-146.56401357563027L-3.975412556270547e-14,-139.01034953040525L34.0939338890487,-136.61942744627612z" style="fill:rgb(138,220,213)"/><path d="M-136.78616255664934,-57.08197373302209L-111.86619085084533,-79.8292045289749L-117.24936728020522,-84.3212306365161z" style="fill:rgb(46,171,215)"/><path d="M-114.79893735205789,60.25801277741037L-131.77336624046367,82.45666870516075L-109.50505215074298,90.65337148820117z" style="fill:rgb(46,80,214)"/><path d="M-66.75048576124294,-129.57603578819175L-93.57812129664606,-108.83089834779985L-90.75585419124845,-106.65737235907086z" style="fill:rgb(75,205,214)"/><path d="M-117.24936728020522,-84.3212306365161L-90.75585419124845,-106.65737235907086L-93.57812129664606,-108.83089834779985z" style="fill:rgb(59,189,216)"/><path d="M-83.48669205418523,94.72323274783093L-100.66991210951919,117.10032066214667L-73.69399984991459,121.73959714392512zM-100.66991210951919,117.10032066214667L-83.48669205418523,94.72323274783093L-109.50505215074298,90.65337148820117z" style="fill:rgb(67,57,215)"/><path d="M-0.9528225169228431,-145.8326261990172L-34.09393388904879,-136.6194274462761L-4.630680350523493e-14,-139.01034953040525z" style="fill:rgb(116,219,215)"/><path d="M-149.6571790433241,12.327288223089235L-129.15630936044306,-11.992293357047437L-141.90859177887998,-19.039319629500298z" style="fill:rgb(36,126,217)"/><path d="M-111.86619085084533,-79.8292045289749L-136.78616255664934,-57.08197373302209L-129.15712214547426,-50.20078471415932z" style="fill:rgb(46,171,215)"/><path d="M-34.09393388904879,-136.6194274462761L-66.75048576124294,-129.57603578819175L-34.7160627246872,-132.8263036630686z" style="fill:rgb(94,213,215)"/><path d="M-66.75048576124294,-129.57603578819175L-90.75585419124845,-106.65737235907086L-87.13742479105754,-105.1037201738394z" style="fill:rgb(76,204,215)"/><path d="M-90.75585419124845,-106.65737235907086L-117.24936728020522,-84.3212306365161L-111.86619085084533,-79.8292045289749z" style="fill:rgb(59,189,216)"/><path d="M42.53456351570807,146.9461606618642L63.7141595192694,115.43161245360754L32.294354987792815,129.61101327482518z" style="fill:rgb(162,41,214)"/><path d="M34.0939338890487,-136.61942744627612L65.90538519543708,-115.36858018540119L66.75048576124286,-129.57603578819177z" style="fill:rgb(160,209,218)"/><path d="M72.76464741102878,133.33908226027637L92.89816285104357,97.27380127063651L63.7141595192694,115.43161245360754z" style="fill:rgb(181,51,214)"/><path d="M96.15424051746147,-101.24707482273494L66.75048576124286,-129.57603578819177L65.90538519543708,-115.36858018540119z" style="fill:rgb(181,203,214)"/><path d="M-129.15630936044306,-11.992293357047437L-149.6571790433241,12.327288223089235L-134.68989744079997,21.2036646983832z" style="fill:rgb(36,126,217)"/><path d="M-34.7160627246872,-132.8263036630686L-66.75048576124294,-129.57603578819175L-36.296150306555845,-128.83623813308833z" style="fill:rgb(94,212,216)"/><path d="M-66.75048576124294,-129.57603578819175L-87.13742479105754,-105.1037201738394L-82.82782338620082,-104.2260329423683z" style="fill:rgb(78,203,216)"/><path d="M91.19579651474889,-82.97208158925866L122.58644335340306,-83.92890296705004L96.15424051746147,-101.24707482273494z" style="fill:rgb(197,181,219)"/><path d="M-111.86619085084533,-79.8292045289749L-87.13742479105754,-105.1037201738394L-90.75585419124845,-106.65737235907086z" style="fill:rgb(63,187,220)"/><path d="M139.84465910341223,52.41247012992012L107.26765016650914,53.18554794005263L118.61286197757309,75.94681417657677z" style="fill:rgb(208,93,220)"/><path d="M-34.09393388904879,-136.6194274462761L-0.9680612709779195,-131.5141004056395L-4.412257752439178e-14,-139.01034953040525z" style="fill:rgb(116,215,219)"/><path d="M-36.296150306555845,-128.83623813308833L-66.75048576124294,-129.57603578819175L-38.79414905475562,-124.77394311848458z" style="fill:rgb(93,211,217)"/><path d="M-4.412257752439178e-14,-139.01034953040525L33.06378209982333,-125.61661291150614L34.0939338890487,-136.61942744627612z" style="fill:rgb(138,213,220)"/><path d="M-66.75048576124294,-129.57603578819175L-82.82782338620082,-104.2260329423683L-77.95714527099135,-104.0592628609277z" style="fill:rgb(79,203,217)"/><path d="M-0.9680612709779195,-131.5141004056395L-34.09393388904879,-136.6194274462761L-34.7160627246872,-132.8263036630686z" style="fill:rgb(116,215,219)"/><path d="M-141.90859177887998,-19.039319629500298L-119.07368814384483,-45.05573218914644L-129.15712214547426,-50.20078471415932z" style="fill:rgb(43,147,220)"/><path d="M122.58644335340306,-83.92890296705004L91.19579651474889,-82.97208158925866L117.50250968788775,-63.148780256739464z" style="fill:rgb(197,181,219)"/><path d="M-11.920430135504603,116.71318367391805L-31.786982557013378,143.9381051493662L3.7626157758518946e-14,139.22233158266627z" style="fill:rgb(113,42,221)"/><path d="M-38.79414905475562,-124.77394311848458L-66.75048576124294,-129.57603578819175L-42.13844498270608,-120.76904801122072z" style="fill:rgb(92,209,218)"/><path d="M-129.15712214547426,-50.20078471415932L-104.85269008548586,-76.54394209732745L-111.86619085084533,-79.8292045289749z" style="fill:rgb(52,167,222)"/><path d="M-66.75048576124294,-129.57603578819175L-77.95714527099135,-104.0592628609277L-72.67689840581913,-104.61509349715767z" style="fill:rgb(81,203,218)"/><path d="M107.26765016650914,53.18554794005263L139.84465910341223,52.41247012992012L128.7192740117146,29.787422793972365z" style="fill:rgb(208,93,220)"/><path d="M65.90538519543708,-115.36858018540119L34.0939338890487,-136.61942744627612L33.06378209982333,-125.61661291150614z" style="fill:rgb(160,209,218)"/><path d="M-87.13742479105754,-105.1037201738394L-111.86619085084533,-79.8292045289749L-104.85269008548586,-76.54394209732745z" style="fill:rgb(63,187,220)"/><path d="M-135.5254658121272,53.11491999095372L-116.18193066409252,27.082648737102097L-134.68989744079997,21.2036646983832z" style="fill:rgb(46,100,222)"/><path d="M-42.13844498270608,-120.76904801122072L-66.75048576124294,-129.57603578819175L-46.22742347998526,-116.95133549237737z" style="fill:rgb(91,208,219)"/><path d="M-119.07368814384483,-45.05573218914644L-141.90859177887998,-19.039319629500298L-129.15630936044306,-11.992293357047437z" style="fill:rgb(43,147,220)"/><path d="M-67.15493743190693,-105.88074235710114L-66.75048576124294,-129.57603578819175L-72.67689840581913,-104.61509349715767z" style="fill:rgb(83,203,219)"/><path d="M33.06378209982333,-125.61661291150614L-4.412257752439178e-14,-139.01034953040525L-0.9680612709779195,-131.5141004056395z" style="fill:rgb(138,213,220)"/><path d="M-104.85269008548586,-76.54394209732745L-82.82782338620082,-104.2260329423683L-87.13742479105754,-105.1037201738394z" style="fill:rgb(67,185,223)"/><path d="M-46.22742347998526,-116.95133549237737L-66.75048576124294,-129.57603578819175L-50.93249389057022,-113.44587400205351z" style="fill:rgb(90,206,219)"/><path d="M-61.56952112135191,-107.81874764334093L-66.75048576124294,-129.57603578819175L-67.15493743190693,-105.88074235710114z" style="fill:rgb(84,204,219)"/><path d="M107.29603100311195,-41.593106826376676L139.20762576116888,-41.602847969093986L117.50250968788775,-63.148780256739464z" style="fill:rgb(207,153,223)"/><path d="M-31.786982557013378,143.9381051493662L-11.920430135504603,116.71318367391805L-43.73617615498452,121.67384002177978z" style="fill:rgb(113,42,221)"/><path d="M-116.18193066409252,27.082648737102097L-135.5254658121272,53.11491999095372L-114.79893735205789,60.25801277741037z" style="fill:rgb(46,100,222)"/><path d="M65.90538519543708,-115.36858018540119L91.19579651474889,-82.97208158925866L96.15424051746147,-101.24707482273494z" style="fill:rgb(178,191,224)"/><path d="M-50.93249389057022,-113.44587400205351L-66.75048576124294,-129.57603578819175L-56.10254468668337,-110.36799895313777z" style="fill:rgb(88,205,220)"/><path d="M-56.10254468668337,-110.36799895313777L-66.75048576124294,-129.57603578819175L-61.56952112135191,-107.81874764334093z" style="fill:rgb(86,204,220)"/><path d="M-104.85269008548586,-76.54394209732745L-129.15712214547426,-50.20078471415932L-119.07368814384483,-45.05573218914644z" style="fill:rgb(52,167,222)"/><path d="M-3.870089114822503,-123.57204497267735L-34.7160627246872,-132.8263036630686L-36.296150306555845,-128.83623813308833z" style="fill:rgb(115,210,223)"/><path d="M144.9687181954625,5.288620007824585L112.65043286962008,5.29064395882697L128.7192740117146,29.787422793972365z" style="fill:rgb(211,123,223)"/><path d="M139.20762576116888,-41.602847969093986L107.29603100311195,-41.593106826376676L128.63228636686645,-18.134165293338647z" style="fill:rgb(207,153,223)"/><path d="M-34.7160627246872,-132.8263036630686L-3.870089114822503,-123.57204497267735L-0.9680612709779195,-131.5141004056395z" style="fill:rgb(115,210,223)"/><path d="M112.65043286962008,5.29064395882697L144.9687181954625,5.288620007824585L128.63228636686645,-18.134165293338647z" style="fill:rgb(211,123,223)"/><path d="M118.61286197757309,75.94681417657677L81.3540340999347,74.45550537786521L92.89816285104357,97.27380127063651z" style="fill:rgb(192,78,226)"/><path d="M-109.50505215074298,90.65337148820117L-90.61209360684845,63.59362754700851L-114.79893735205789,60.25801277741037z" style="fill:rgb(63,77,225)"/><path d="M-82.82782338620082,-104.2260329423683L-104.85269008548586,-76.54394209732745L-96.40081552388365,-74.60032001937172z" style="fill:rgb(67,185,223)"/><path d="M20.454441533802207,106.92241827672132L4.854757946942195e-14,139.22233158266627L32.294354987792815,129.61101327482518z" style="fill:rgb(134,48,227)"/><path d="M-54.57448367224515,94.30204536406649L-73.69399984991459,121.73959714392512L-43.73617615498452,121.67384002177978z" style="fill:rgb(86,57,225)"/><path d="M-90.61209360684845,63.59362754700851L-109.50505215074298,90.65337148820117L-83.48669205418523,94.72323274783093z" style="fill:rgb(63,77,225)"/><path d="M-8.650790221203287,-115.43820355678713L-36.296150306555845,-128.83623813308833L-38.79414905475562,-124.77394311848458z" style="fill:rgb(113,206,226)"/><path d="M-134.68989744079997,21.2036646983832L-113.49000741202568,-7.472824907551292L-129.15630936044306,-11.992293357047437z" style="fill:rgb(48,122,227)"/><path d="M-73.69399984991459,121.73959714392512L-54.57448367224515,94.30204536406649L-83.48669205418523,94.72323274783093z" style="fill:rgb(86,57,225)"/><path d="M33.06378209982333,-125.61661291150614L61.320221130009585,-100.15209950652141L65.90538519543708,-115.36858018540119z" style="fill:rgb(158,200,227)"/><path d="M-0.9680612709779195,-131.5141004056395L29.155337239667872,-113.88833886276159L33.06378209982333,-125.61661291150614z" style="fill:rgb(137,206,226)"/><path d="M-119.07368814384483,-45.05573218914644L-96.40081552388365,-74.60032001937172L-104.85269008548586,-76.54394209732745z" style="fill:rgb(58,165,228)"/><path d="M-82.82782338620082,-104.2260329423683L-86.7624405038149,-74.0907893446249L-77.95714527099135,-104.0592628609277z" style="fill:rgb(72,184,227)"/><path d="M81.3540340999347,74.45550537786521L63.7141595192694,115.43161245360754L92.89816285104357,97.27380127063651z" style="fill:rgb(174,66,229)"/><path d="M-36.296150306555845,-128.83623813308833L-8.650790221203287,-115.43820355678713L-3.870089114822503,-123.57204497267735z" style="fill:rgb(113,206,226)"/><path d="M91.19579651474889,-82.97208158925866L65.90538519543708,-115.36858018540119L61.320221130009585,-100.15209950652141z" style="fill:rgb(178,191,224)"/><path d="M52.002083036189994,92.63809032461336L32.294354987792815,129.61101327482518L63.7141595192694,115.43161245360754z" style="fill:rgb(154,56,229)"/><path d="M81.3540340999347,74.45550537786521L118.61286197757309,75.94681417657677L107.26765016650914,53.18554794005263z" style="fill:rgb(192,78,226)"/><path d="M29.155337239667872,-113.88833886276159L-0.9680612709779195,-131.5141004056395L-3.870089114822503,-123.57204497267735z" style="fill:rgb(137,206,226)"/><path d="M-129.15630936044306,-11.992293357047437L-106.79387052331488,-41.878683074647434L-119.07368814384483,-45.05573218914644z" style="fill:rgb(52,144,229)"/><path d="M-113.49000741202568,-7.472824907551292L-134.68989744079997,21.2036646983832L-116.18193066409252,27.082648737102097z" style="fill:rgb(48,122,227)"/><path d="M-86.7624405038149,-74.0907893446249L-82.82782338620082,-104.2260329423683L-96.40081552388365,-74.60032001937172z" style="fill:rgb(72,184,227)"/><path d="M-15.183545427403656,-107.3836006691154L-38.79414905475562,-124.77394311848458L-42.13844498270608,-120.76904801122072z" style="fill:rgb(110,202,229)"/><path d="M4.854757946942195e-14,139.22233158266627L20.454441533802207,106.92241827672132L-11.920430135504603,116.71318367391805z" style="fill:rgb(134,48,227)"/><path d="M-77.95714527099135,-104.0592628609277L-76.24290085537896,-75.05813837377123L-72.67689840581913,-104.61509349715767z" style="fill:rgb(77,184,229)"/><path d="M61.320221130009585,-100.15209950652141L33.06378209982333,-125.61661291150614L29.155337239667872,-113.88833886276159z" style="fill:rgb(158,200,227)"/><path d="M-96.40081552388365,-74.60032001937172L-119.07368814384483,-45.05573218914644L-106.79387052331488,-41.878683074647434z" style="fill:rgb(58,165,228)"/><path d="M81.73184743213753,-64.03925726685895L117.50250968788775,-63.148780256739464L91.19579651474889,-82.97208158925866z" style="fill:rgb(191,167,230)"/><path d="M-106.79387052331488,-41.878683074647434L-129.15630936044306,-11.992293357047437L-113.49000741202568,-7.472824907551292z" style="fill:rgb(52,144,229)"/><path d="M-23.271354079231894,-99.68512445762094L-42.13844498270608,-120.76904801122072L-46.22742347998526,-116.95133549237737z" style="fill:rgb(107,198,231)"/><path d="M-72.67689840581913,-104.61509349715767L-65.19054450394992,-77.49038688524226L-67.15493743190693,-105.88074235710114z" style="fill:rgb(82,185,231)"/><path d="M-38.79414905475562,-124.77394311848458L-15.183545427403656,-107.3836006691154L-8.650790221203287,-115.43820355678713z" style="fill:rgb(110,202,229)"/><path d="M117.50250968788775,-63.148780256739464L81.73184743213753,-64.03925726685895L107.29603100311195,-41.593106826376676z" style="fill:rgb(191,167,230)"/><path d="M-65.19054450394992,-77.49038688524226L-61.56952112135191,-107.81874764334093L-67.15493743190693,-105.88074235710114z" style="fill:rgb(88,186,233)"/><path d="M-76.24290085537896,-75.05813837377123L-77.95714527099135,-104.0592628609277L-86.7624405038149,-74.0907893446249z" style="fill:rgb(77,184,229)"/><path d="M128.7192740117146,29.787422793972365L91.69067377022098,27.709680487376357L107.26765016650914,53.18554794005263z" style="fill:rgb(198,108,232)"/><path d="M-32.65219339188944,-92.61305584668287L-46.22742347998526,-116.95133549237737L-50.93249389057022,-113.44587400205351z" style="fill:rgb(103,194,233)"/><path d="M32.294354987792815,129.61101327482518L52.002083036189994,92.63809032461336L20.454441533802207,106.92241827672132z" style="fill:rgb(154,56,229)"/><path d="M-114.79893735205789,60.25801277741037L-94.6529436348813,29.606711816514593L-116.18193066409252,27.082648737102097z" style="fill:rgb(61,98,232)"/><path d="M-106.79387052331488,-41.878683074647434L-86.7624405038149,-74.0907893446249L-96.40081552388365,-74.60032001937172z" style="fill:rgb(66,164,233)"/><path d="M63.7141595192694,115.43161245360754L81.3540340999347,74.45550537786521L52.002083036189994,92.63809032461336z" style="fill:rgb(174,66,229)"/><path d="M-53.982705940027856,-81.3185859212477L-56.10254468668337,-110.36799895313777L-61.56952112135191,-107.81874764334093z" style="fill:rgb(93,188,233)"/><path d="M-43.008848763247286,-86.41803094752922L-50.93249389057022,-113.44587400205351L-56.10254468668337,-110.36799895313777z" style="fill:rgb(98,191,233)"/><path d="M-3.870089114822503,-123.57204497267735L22.413559889704278,-101.81658661842614L29.155337239667872,-113.88833886276159z" style="fill:rgb(134,199,232)"/><path d="M61.320221130009585,-100.15209950652141L81.73184743213753,-64.03925726685895L91.19579651474889,-82.97208158925866z" style="fill:rgb(173,180,234)"/><path d="M91.69067377022098,27.709680487376357L128.7192740117146,29.787422793972365L112.65043286962008,5.29064395882697z" style="fill:rgb(198,108,232)"/><path d="M22.413559889704278,-101.81658661842614L-3.870089114822503,-123.57204497267735L-8.650790221203287,-115.43820355678713z" style="fill:rgb(134,199,232)"/><path d="M92.12300388849408,-20.06566572907861L128.63228636686645,-18.134165293338647L107.29603100311195,-41.593106826376676z" style="fill:rgb(198,139,232)"/><path d="M-23.846183894103042,89.22900669857931L-43.73617615498452,121.67384002177978L-11.920430135504603,116.71318367391805z" style="fill:rgb(106,59,233)"/><path d="M-94.6529436348813,29.606711816514593L-114.79893735205789,60.25801277741037L-90.61209360684845,63.59362754700851z" style="fill:rgb(61,98,232)"/><path d="M-42.13844498270608,-120.76904801122072L-23.271354079231894,-99.68512445762094L-15.183545427403656,-107.3836006691154z" style="fill:rgb(107,198,231)"/><path d="M128.63228636686645,-18.134165293338647L92.12300388849408,-20.06566572907861L112.65043286962008,5.29064395882697z" style="fill:rgb(198,139,232)"/><path d="M-65.19054450394992,-77.49038688524226L-72.67689840581913,-104.61509349715767L-76.24290085537896,-75.05813837377123z" style="fill:rgb(82,185,231)"/><path d="M29.155337239667872,-113.88833886276159L53.00809004237618,-84.4290523230041L61.320221130009585,-100.15209950652141z" style="fill:rgb(154,190,234)"/><path d="M-43.73617615498452,121.67384002177978L-23.846183894103042,89.22900669857931L-54.57448367224515,94.30204536406649z" style="fill:rgb(106,59,233)"/><path d="M-83.48669205418523,94.72323274783093L-63.75787307197735,62.8173374844946L-90.61209360684845,63.59362754700851z" style="fill:rgb(81,76,234)"/><path d="M-86.7624405038149,-74.0907893446249L-106.79387052331488,-41.878683074647434L-92.67696640677332,-40.83978998210838z" style="fill:rgb(66,164,233)"/><path d="M-116.18193066409252,27.082648737102097L-95.35857987503992,-5.742635731231218L-113.49000741202568,-7.472824907551292z" style="fill:rgb(60,120,235)"/><path d="M-113.49000741202568,-7.472824907551292L-92.67696640677332,-40.83978998210838L-106.79387052331488,-41.878683074647434z" style="fill:rgb(62,142,236)"/><path d="M-46.22742347998526,-116.95133549237737L-32.65219339188944,-92.61305584668287L-23.271354079231894,-99.68512445762094z" style="fill:rgb(103,194,233)"/><path d="M-63.75787307197735,62.8173374844946L-83.48669205418523,94.72323274783093L-54.57448367224515,94.30204536406649z" style="fill:rgb(81,76,234)"/><path d="M-61.56952112135191,-107.81874764334093L-65.19054450394992,-77.49038688524226L-53.982705940027856,-81.3185859212477z" style="fill:rgb(88,186,233)"/><path d="M-50.93249389057022,-113.44587400205351L-43.008848763247286,-86.41803094752922L-32.65219339188944,-92.61305584668287z" style="fill:rgb(98,191,233)"/><path d="M53.00809004237618,-84.4290523230041L29.155337239667872,-113.88833886276159L22.413559889704278,-101.81658661842614z" style="fill:rgb(154,190,234)"/><path d="M81.73184743213753,-64.03925726685895L61.320221130009585,-100.15209950652141L53.00809004237618,-84.4290523230041z" style="fill:rgb(173,180,234)"/><path d="M-56.10254468668337,-110.36799895313777L-53.982705940027856,-81.3185859212477L-43.008848763247286,-86.41803094752922z" style="fill:rgb(93,188,233)"/><path d="M12.999455397001867,-89.81881764442227L-8.650790221203287,-115.43820355678713L-15.183545427403656,-107.3836006691154z" style="fill:rgb(129,193,236)"/><path d="M107.26765016650914,53.18554794005263L66.4768414368926,48.149402698364696L81.3540340999347,74.45550537786521z" style="fill:rgb(182,95,237)"/><path d="M-95.35857987503992,-5.742635731231218L-116.18193066409252,27.082648737102097L-94.6529436348813,29.606711816514593z" style="fill:rgb(60,120,235)"/><path d="M-8.650790221203287,-115.43820355678713L12.999455397001867,-89.81881764442227L22.413559889704278,-101.81658661842614z" style="fill:rgb(129,193,236)"/><path d="M-92.67696640677332,-40.83978998210838L-113.49000741202568,-7.472824907551292L-95.35857987503992,-5.742635731231218z" style="fill:rgb(62,142,236)"/><path d="M-86.7624405038149,-74.0907893446249L-77.17630477541589,-42.03220449293426L-76.24290085537896,-75.05813837377123z" style="fill:rgb(74,163,237)"/><path d="M7.454392306354788,79.58338536019838L-11.920430135504603,116.71318367391805L20.454441533802207,106.92241827672132z" style="fill:rgb(126,65,238)"/><path d="M-77.17630477541589,-42.03220449293426L-86.7624405038149,-74.0907893446249L-92.67696640677332,-40.83978998210838z" style="fill:rgb(74,163,237)"/><path d="M67.93304166074476,-45.14116641737718L107.29603100311195,-41.593106826376676L81.73184743213753,-64.03925726685895z" style="fill:rgb(183,154,239)"/><path d="M66.4768414368926,48.149402698364696L107.26765016650914,53.18554794005263L91.69067377022098,27.709680487376357z" style="fill:rgb(182,95,237)"/><path d="M66.4768414368926,48.149402698364696L52.002083036189994,92.63809032461336L81.3540340999347,74.45550537786521z" style="fill:rgb(165,83,240)"/><path d="M-63.75787307197735,62.8173374844946L-94.6529436348813,29.606711816514593L-90.61209360684845,63.59362754700851z" style="fill:rgb(77,98,240)"/><path d="M37.99954526808657,65.69871163522434L20.454441533802207,106.92241827672132L52.002083036189994,92.63809032461336z" style="fill:rgb(146,72,241)"/><path d="M107.29603100311195,-41.593106826376676L67.93304166074476,-45.14116641737718L92.12300388849408,-20.06566572907861z" style="fill:rgb(183,154,239)"/><path d="M-11.920430135504603,116.71318367391805L7.454392306354788,79.58338536019838L-23.846183894103042,89.22900669857931z" style="fill:rgb(126,65,238)"/><path d="M1.1925628504477923,-78.32948317916726L-15.183545427403656,-107.3836006691154L-23.271354079231894,-99.68512445762094z" style="fill:rgb(123,186,240)"/><path d="M-76.24290085537896,-75.05813837377123L-60.823676200002495,-45.46020842363623L-65.19054450394992,-77.49038688524226z" style="fill:rgb(83,165,241)"/><path d="M53.00809004237618,-84.4290523230041L67.93304166074476,-45.14116641737718L81.73184743213753,-64.03925726685895z" style="fill:rgb(166,168,241)"/><path d="M112.65043286962008,5.29064395882697L72.40056401338298,0.5658097562188119L91.69067377022098,27.709680487376357z" style="fill:rgb(185,125,240)"/><path d="M22.413559889704278,-101.81658661842614L41.143469414590975,-68.76035280116275L53.00809004237618,-84.4290523230041z" style="fill:rgb(148,181,241)"/><path d="M72.40056401338298,0.5658097562188119L112.65043286962008,5.29064395882697L92.12300388849408,-20.06566572907861z" style="fill:rgb(185,125,240)"/><path d="M-15.183545427403656,-107.3836006691154L1.1925628504477923,-78.32948317916726L12.999455397001867,-89.81881764442227z" style="fill:rgb(123,186,240)"/><path d="M-60.823676200002495,-45.46020842363623L-53.982705940027856,-81.3185859212477L-65.19054450394992,-77.49038688524226z" style="fill:rgb(92,167,243)"/><path d="M41.143469414590975,-68.76035280116275L22.413559889704278,-101.81658661842614L12.999455397001867,-89.81881764442227z" style="fill:rgb(148,181,241)"/><path d="M-75.34980336590388,-6.9606327700941435L-92.67696640677332,-40.83978998210838L-95.35857987503992,-5.742635731231218z" style="fill:rgb(73,142,242)"/><path d="M-35.22534010790684,57.80868163252286L-54.57448367224515,94.30204536406649L-23.846183894103042,89.22900669857931z" style="fill:rgb(99,79,242)"/><path d="M-60.823676200002495,-45.46020842363623L-76.24290085537896,-75.05813837377123L-77.17630477541589,-42.03220449293426z" style="fill:rgb(83,165,241)"/><path d="M-12.615237432902225,-67.77767444860805L-23.271354079231894,-99.68512445762094L-32.65219339188944,-92.61305584668287z" style="fill:rgb(117,180,243)"/><path d="M-70.80544835913499,28.54325532483822L-95.35857987503992,-5.742635731231218L-94.6529436348813,29.606711816514593z" style="fill:rgb(74,119,243)"/><path d="M-54.57448367224515,94.30204536406649L-35.22534010790684,57.80868163252286L-63.75787307197735,62.8173374844946z" style="fill:rgb(99,79,242)"/><path d="M20.454441533802207,106.92241827672132L37.99954526808657,65.69871163522434L7.454392306354788,79.58338536019838z" style="fill:rgb(146,72,241)"/><path d="M52.002083036189994,92.63809032461336L66.4768414368926,48.149402698364696L37.99954526808657,65.69871163522434z" style="fill:rgb(165,83,240)"/><path d="M-92.67696640677332,-40.83978998210838L-75.34980336590388,-6.9606327700941435L-77.17630477541589,-42.03220449293426z" style="fill:rgb(73,142,242)"/><path d="M-94.6529436348813,29.606711816514593L-63.75787307197735,62.8173374844946L-70.80544835913499,28.54325532483822z" style="fill:rgb(77,98,240)"/><path d="M-44.205957601277156,-51.03262710967775L-43.008848763247286,-86.41803094752922L-53.982705940027856,-81.3185859212477z" style="fill:rgb(101,170,244)"/><path d="M-27.935238416433563,-58.563096099477285L-32.65219339188944,-92.61305584668287L-43.008848763247286,-86.41803094752922z" style="fill:rgb(109,175,244)"/><path d="M67.93304166074476,-45.14116641737718L53.00809004237618,-84.4290523230041L41.143469414590975,-68.76035280116275z" style="fill:rgb(166,168,241)"/><path d="M-23.271354079231894,-99.68512445762094L-12.615237432902225,-67.77767444860805L1.1925628504477923,-78.32948317916726z" style="fill:rgb(117,180,243)"/><path d="M-95.35857987503992,-5.742635731231218L-70.80544835913499,28.54325532483822L-75.34980336590388,-6.9606327700941435z" style="fill:rgb(74,119,243)"/><path d="M-53.982705940027856,-81.3185859212477L-60.823676200002495,-45.46020842363623L-44.205957601277156,-51.03262710967775z" style="fill:rgb(92,167,243)"/><path d="M50.18945689980704,-27.01907372781021L92.12300388849408,-20.06566572907861L67.93304166074476,-45.14116641737718z" style="fill:rgb(172,141,246)"/><path d="M91.69067377022098,27.709680487376357L48.808096189481304,19.424848801871693L66.4768414368926,48.149402698364696z" style="fill:rgb(171,112,246)"/><path d="M-32.65219339188944,-92.61305584668287L-27.935238416433563,-58.563096099477285L-12.615237432902225,-67.77767444860805z" style="fill:rgb(109,175,244)"/><path d="M-35.22534010790684,57.80868163252286L-70.80544835913499,28.54325532483822L-63.75787307197735,62.8173374844946z" style="fill:rgb(93,100,247)"/><path d="M12.999455397001867,-89.81881764442227L26.07090046653793,-53.73897430357271L41.143469414590975,-68.76035280116275z" style="fill:rgb(140,172,246)"/><path d="M-43.008848763247286,-86.41803094752922L-44.205957601277156,-51.03262710967775L-27.935238416433563,-58.563096099477285z" style="fill:rgb(101,170,244)"/><path d="M26.07090046653793,-53.73897430357271L12.999455397001867,-89.81881764442227L1.1925628504477923,-78.32948317916726z" style="fill:rgb(140,172,246)"/><path d="M92.12300388849408,-20.06566572907861L50.18945689980704,-27.01907372781021L72.40056401338298,0.5658097562188119z" style="fill:rgb(172,141,246)"/><path d="M-6.149736016822446,48.66073708698799L-23.846183894103042,89.22900669857931L7.454392306354788,79.58338536019838z" style="fill:rgb(118,84,247)"/><path d="M48.808096189481304,19.424848801871693L91.69067377022098,27.709680487376357L72.40056401338298,0.5658097562188119z" style="fill:rgb(171,112,246)"/><path d="M-77.17630477541589,-42.03220449293426L-54.170770266184306,-11.161771426853932L-60.823676200002495,-45.46020842363623zM-54.170770266184306,-11.161771426853932L-77.17630477541589,-42.03220449293426L-75.34980336590388,-6.9606327700941435z" style="fill:rgb(85,143,246)"/><path d="M41.143469414590975,-68.76035280116275L50.18945689980704,-27.01907372781021L67.93304166074476,-45.14116641737718z" style="fill:rgb(156,157,247)"/><path d="M-23.846183894103042,89.22900669857931L-6.149736016822446,48.66073708698799L-35.22534010790684,57.80868163252286z" style="fill:rgb(118,84,247)"/><path d="M66.4768414368926,48.149402698364696L22.260018681501325,35.69033347630991L37.99954526808657,65.69871163522434z" style="fill:rgb(155,100,249)"/><path d="M-45.502314463899005,23.816362847975643L-75.34980336590388,-6.9606327700941435L-70.80544835913499,28.54325532483822z" style="fill:rgb(89,121,249)"/><path d="M22.260018681501325,35.69033347630991L7.454392306354788,79.58338536019838L37.99954526808657,65.69871163522434z" style="fill:rgb(137,91,249)"/><path d="M50.18945689980704,-27.01907372781021L41.143469414590975,-68.76035280116275L26.07090046653793,-53.73897430357271z" style="fill:rgb(156,157,247)"/><path d="M-70.80544835913499,28.54325532483822L-35.22534010790684,57.80868163252286L-45.502314463899005,23.816362847975643z" style="fill:rgb(93,100,247)"/><path d="M8.29979125722397,-39.95645744147686L1.1925628504477923,-78.32948317916726L-12.615237432902225,-67.77767444860805z" style="fill:rgb(131,164,249)"/><path d="M-60.823676200002495,-45.46020842363623L-32.61466656763298,-18.243913970080047L-44.205957601277156,-51.03262710967775z" style="fill:rgb(97,146,250)"/><path d="M1.1925628504477923,-78.32948317916726L8.29979125722397,-39.95645744147686L26.07090046653793,-53.73897430357271z" style="fill:rgb(131,164,249)"/><path d="M-75.34980336590388,-6.9606327700941435L-45.502314463899005,23.816362847975643L-54.170770266184306,-11.161771426853932z" style="fill:rgb(89,121,249)"/><path d="M22.260018681501325,35.69033347630991L66.4768414368926,48.149402698364696L48.808096189481304,19.424848801871693z" style="fill:rgb(155,100,249)"/><path d="M7.454392306354788,79.58338536019838L22.260018681501325,35.69033347630991L-6.149736016822446,48.66073708698799z" style="fill:rgb(137,91,249)"/><path d="M-32.61466656763298,-18.243913970080047L-60.823676200002495,-45.46020842363623L-54.170770266184306,-11.161771426853932z" style="fill:rgb(97,146,250)"/><path d="M-32.61466656763298,-18.243913970080047L-27.935238416433563,-58.563096099477285L-44.205957601277156,-51.03262710967775z" style="fill:rgb(109,151,251)"/><path d="M-11.516227751320443,-27.96563599945329L-12.615237432902225,-67.77767444860805L-27.935238416433563,-58.563096099477285z" style="fill:rgb(120,157,251)"/><path d="M29.108132243355197,-10.418091569855017L72.40056401338298,0.5658097562188119L50.18945689980704,-27.01907372781021zM72.40056401338298,0.5658097562188119L29.108132243355197,-10.418091569855017L48.808096189481304,19.424848801871693z" style="fill:rgb(158,129,251)"/><path d="M-35.22534010790684,57.80868163252286L-19.724496600229237,15.528027312970746L-45.502314463899005,23.816362847975643z" style="fill:rgb(111,104,251)"/><path d="M26.07090046653793,-53.73897430357271L29.108132243355197,-10.418091569855017L50.18945689980704,-27.01907372781021z" style="fill:rgb(145,147,252)"/><path d="M-19.724496600229237,15.528027312970746L-35.22534010790684,57.80868163252286L-6.149736016822446,48.66073708698799z" style="fill:rgb(111,104,251)"/><path d="M-12.615237432902225,-67.77767444860805L-11.516227751320443,-27.96563599945329L8.29979125722397,-39.95645744147686z" style="fill:rgb(120,157,251)"/><path d="M-27.935238416433563,-58.563096099477285L-32.61466656763298,-18.243913970080047L-11.516227751320443,-27.96563599945329z" style="fill:rgb(109,151,251)"/><path d="M-19.724496600229237,15.528027312970746L-54.170770266184306,-11.161771426853932L-45.502314463899005,23.816362847975643z" style="fill:rgb(104,125,252)"/><path d="M29.108132243355197,-10.418091569855017L26.07090046653793,-53.73897430357271L8.29979125722397,-39.95645744147686z" style="fill:rgb(145,147,252)"/><path d="M-54.170770266184306,-11.161771426853932L-19.724496600229237,15.528027312970746L-32.61466656763298,-18.243913970080047z" style="fill:rgb(104,125,252)"/><path d="M48.808096189481304,19.424848801871693L5.4883864564488425,3.9640587368882962L22.260018681501325,35.69033347630991z" style="fill:rgb(144,119,253)"/><path d="M5.4883864564488425,3.9640587368882962L-6.149736016822446,48.66073708698799L22.260018681501325,35.69033347630991z" style="fill:rgb(127,111,253)"/><path d="M5.4883864564488425,3.9640587368882962L48.808096189481304,19.424848801871693L29.108132243355197,-10.418091569855017z" style="fill:rgb(144,119,253)"/><path d="M-6.149736016822446,48.66073708698799L5.4883864564488425,3.9640587368882962L-19.724496600229237,15.528027312970746z" style="fill:rgb(127,111,253)"/><path d="M8.29979125722397,-39.95645744147686L5.4883864564488425,3.9640587368882962L29.108132243355197,-10.418091569855017zM5.4883864564488425,3.9640587368882962L8.29979125722397,-39.95645744147686L-11.516227751320443,-27.96563599945329z" style="fill:rgb(132,138,254)"/><path d="M-32.61466656763298,-18.243913970080047L5.4883864564488425,3.9640587368882962L-11.516227751320443,-27.96563599945329zM5.4883864564488425,3.9640587368882962L-32.61466656763298,-18.243913970080047L-19.724496600229237,15.528027312970746z" style="fill:rgb(118,131,254)"/></svg>
