<?xml version="1.0" encoding="UTF-8"?>
<!-- Generated by jsxcad -->
<!DOCTYPE svg PUBLIC "-//W3C//DTD SVG 1.1 Tiny//EN" "http://www.w3.org/Graphics/SVG/1.1/DTD/svg11-tiny.dtd">
<svg viewBox="-250 -250 500 500" width="500" height="500" xmlns="http://www.w3.org/2000/svg"><path d="M87.11365668954699,29.699238633973103L95.88066487093316,63.53860844571514L95.00803855771882,47.491702284027404z" style="fill:rgb(247,158,158)"/><path d="M87.68600884515364,41.97203932684886L-0.7431009067394232,51.2050220519338L-1.3626381704779083,63.502203578119854zM-0.7431009067394232,51.2050220519338L87.68600884515364,41.97203932684886L87.11365668954699,29.699238633973103z" style="fill:rgb(84,220,202)"/><path d="M95.88066487093316,63.53860844571514L87.11365668954699,29.699238633973103L95.41358922609729,76.5856318330717z" style="fill:rgb(247,158,158)"/><path d="M87.19412426918943,51.76380252235692L-1.3626381704779083,63.502203578119854L-3.216737697322521,73.41176311169544z" style="fill:rgb(85,234,182)"/><path d="M95.41358922609729,76.5856318330717L87.11365668954699,29.699238633973103L87.68600884515364,41.97203932684886z" style="fill:rgb(247,158,158)"/><path d="M-1.3626381704779083,63.502203578119854L87.19412426918943,51.76380252235692L87.68600884515364,41.97203932684886z" style="fill:rgb(85,234,182)"/><path d="M-6.298134032256012,80.47761131727164L87.19412426918943,51.76380252235692L-3.216737697322521,73.41176311169544z" style="fill:rgb(89,244,159)"/><path d="M-1.3626381704779083,63.502203578119854L91.51026866068287,89.20891558951917L87.68600884515364,41.97203932684886zM-3.3298085672310838,112.58831388498889L87.19412426918943,51.76380252235692L-3.216737697322521,73.41176311169544zM91.51026866068287,89.20891558951917L-1.3626381704779083,63.502203578119854L-1.4207324252457731,110.59614753022123z" style="fill:rgb(83,212,212)"/><path d="M95.41358922609729,76.5856318330717L87.68600884515364,41.97203932684886L91.51026866068287,89.20891558951917zM87.19412426918943,51.76380252235692L91.51026866068287,89.20891558951917L87.68600884515364,41.97203932684886z" style="fill:rgb(247,158,158)"/><path d="M87.19412426918943,51.76380252235692L-6.298134032256012,80.47761131727164L85.60458008960153,58.61638322811417z" style="fill:rgb(89,244,159)"/><path d="M-10.556136034867272,84.2954323022804L85.60458008960153,58.61638322811417L-6.298134032256012,80.47761131727164z" style="fill:rgb(93,250,135)"/><path d="M95.41358922609729,76.5856318330717L91.51026866068287,89.20891558951917L93.54021411233923,86.00902724684725z" style="fill:rgb(247,158,158)"/><path d="M87.19412426918943,51.76380252235692L-3.3298085672310838,112.58831388498889L90.33006596252888,91.06930782526564z" style="fill:rgb(83,212,212)"/><path d="M85.60458008960153,58.61638322811417L90.33006596252888,91.06930782526564L87.19412426918943,51.76380252235692z" style="fill:rgb(247,158,158)"/><path d="M-6.298134032256012,80.47761131727164L88.15973882085483,91.44164788400339L85.60458008960153,58.61638322811417z" style="fill:rgb(83,212,212)"/><path d="M91.51026866068287,89.20891558951917L87.19412426918943,51.76380252235692L90.33006596252888,91.06930782526564z" style="fill:rgb(247,158,158)"/><path d="M85.60458008960153,58.61638322811417L-10.556136034867272,84.2954323022804L82.91849483562034,62.125249756267685z" style="fill:rgb(93,250,135)"/><path d="M88.15973882085483,91.44164788400339L-6.298134032256012,80.47761131727164L-6.48182016801806,113.18909284229117zM-10.82991998798222,113.48411750540579L82.91849483562034,62.125249756267685L-10.556136034867272,84.2954323022804z" style="fill:rgb(83,212,212)"/><path d="M90.23295504016022,91.22238511185972L-10.296665638546187,113.74557887195459L-3.486865747008467,112.75221051488224z" style="fill:rgb(155,4,143)"/><path d="M82.91849483562034,62.125249756267685L88.15973882085483,91.44164788400339L85.60458008960153,58.61638322811417zM90.33006596252888,91.06930782526564L85.60458008960153,58.61638322811417L88.15973882085483,91.44164788400339zM90.33006596252888,91.06930782526564L88.15973882085483,91.44164788400339L90.23295504016022,91.22238511185972z" style="fill:rgb(247,158,158)"/><path d="M-10.296665638546187,113.74557887195459L90.23295504016022,91.22238511185972L85.51752047535511,91.72107955957772z" style="fill:rgb(155,4,143)"/><path d="M82.91849483562034,62.125249756267685L-10.82991998798222,113.48411750540579L85.120200269511,91.41924013192346zM-16.259656242468584,110.82187643801214L79.17989572797082,61.97106417889231L-15.888732998080673,84.54329402511574z" style="fill:rgb(83,212,212)"/><path d="M88.15973882085483,91.44164788400339L82.91849483562034,62.125249756267685L85.120200269511,91.41924013192346zM79.17989572797082,61.97106417889231L85.120200269511,91.41924013192346L82.91849483562034,62.125249756267685zM88.15973882085483,91.44164788400339L85.120200269511,91.41924013192346L85.51752047535511,91.72107955957772z" style="fill:rgb(247,158,158)"/><path d="M-10.296665638546187,113.74557887195459L79.48770322620095,87.14029464367638L-18.385402417870736,109.77961162971006zM79.48770322620095,87.14029464367638L-10.296665638546187,113.74557887195459L85.51752047535511,91.72107955957772z" style="fill:rgb(148,8,167)"/><path d="M79.17989572797082,61.97106417889231L-16.259656242468584,110.82187643801214L81.0729958571055,88.34461986751145z" style="fill:rgb(83,212,212)"/><path d="M85.120200269511,91.41924013192346L79.17989572797082,61.97106417889231L81.0729958571055,88.34461986751145zM74.48331680388007,57.95697170619684L81.0729958571055,88.34461986751145L79.17989572797082,61.97106417889231z" style="fill:rgb(247,158,158)"/><path d="M76.1514170279966,82.57141071733692L-22.136320469322957,81.01771681086619L-22.620199679062516,105.54652174771746zM-22.136320469322957,81.01771681086619L76.1514170279966,82.57141071733692L74.48331680388007,57.95697170619684z" style="fill:rgb(83,212,212)"/><path d="M81.0729958571055,88.34461986751145L74.48331680388007,57.95697170619684L76.1514170279966,82.57141071733692z" style="fill:rgb(247,158,158)"/><path d="M-18.385402417870736,109.77961162971006L72.31814200790163,77.32192762680137L-27.48328834151002,100.68538616653727zM72.31814200790163,77.32192762680137L-18.385402417870736,109.77961162971006L79.48770322620095,87.14029464367638z" style="fill:rgb(140,16,189)"/><path d="M68.97916975090533,50.04769127703558L76.1514170279966,82.57141071733692L74.48331680388007,57.95697170619684zM81.0729958571055,88.34461986751145L76.1514170279966,82.57141071733692L79.48770322620095,87.14029464367638z" style="fill:rgb(247,158,158)"/><path d="M70.48859739670344,73.92495085017188L-29.078961259649997,73.67151882220996L-29.69979274229847,97.47208586523358zM-29.078961259649997,73.67151882220996L70.48859739670344,73.92495085017188L68.97916975090533,50.04769127703558z" style="fill:rgb(83,212,212)"/><path d="M76.1514170279966,82.57141071733692L68.97916975090533,50.04769127703558L70.48859739670344,73.92495085017188zM62.87477467743942,38.40436756415715L70.48859739670344,73.92495085017188L68.97916975090533,50.04769127703558z" style="fill:rgb(247,158,158)"/><path d="M64.27125073073188,62.38099799531022L-36.43924084404524,62.647693127676085L-37.22858877638073,86.5574756794478z" style="fill:rgb(83,212,212)"/><path d="M-27.48328834151002,100.68538616653727L64.27125073073188,62.38099799531022L-37.22858877638073,86.5574756794478z" style="fill:rgb(131,29,208)"/><path d="M-36.43924084404524,62.647693127676085L64.27125073073188,62.38099799531022L62.87477467743942,38.40436756415715z" style="fill:rgb(83,212,212)"/><path d="M76.1514170279966,82.57141071733692L70.48859739670344,73.92495085017188L72.31814200790163,77.32192762680137z" style="fill:rgb(247,158,158)"/><path d="M64.27125073073188,62.38099799531022L-27.48328834151002,100.68538616653727L72.31814200790163,77.32192762680137z" style="fill:rgb(131,29,208)"/><path d="M70.48859739670344,73.92495085017188L62.87477467743942,38.40436756415715L64.27125073073188,62.38099799531022zM-11.66423534323125,-119.61575422709258L64.27125073073188,62.38099799531022L62.87477467743942,38.40436756415715z" style="fill:rgb(247,158,158)"/><path d="M-11.965166233581355,-95.84153402183406L-37.22858877638073,86.5574756794478L64.27125073073188,62.38099799531022zM-37.22858877638073,86.5574756794478L-11.965166233581355,-95.84153402183406L-127.22010691598315,-63.34998977437356z" style="fill:rgb(127,37,217)"/><path d="M64.27125073073188,62.38099799531022L-11.66423534323125,-119.61575422709258L-11.965166233581355,-95.84153402183406z" style="fill:rgb(247,158,158)"/><path d="M-127.22010691598315,-63.34998977437356L-11.66423534323125,-119.61575422709258L-124.10961892714069,-87.25605623353276zM-11.66423534323125,-119.61575422709258L-127.22010691598315,-63.34998977437356L-11.965166233581355,-95.84153402183406z" style="fill:rgb(83,212,212)"/></svg>
